<?xml version="1.0" encoding="UTF-8" standalone="no"?>
<svg
   width="880.16014"
   height="576.27222"
   viewBox="0 0 880.16014 576.27222"
   role="img"
   artist="Katerina Limpitsouni"
   source="https://undraw.co/"
   version="1.1"
   id="svg109"
   sodipodi:docname="header.svg"
   inkscape:version="1.3.2 (091e20e, 2023-11-25, custom)"
   xmlns:inkscape="http://www.inkscape.org/namespaces/inkscape"
   xmlns:sodipodi="http://sodipodi.sourceforge.net/DTD/sodipodi-0.dtd"
   xmlns="http://www.w3.org/2000/svg"
   xmlns:svg="http://www.w3.org/2000/svg">
  <defs
     id="defs109" />
  <sodipodi:namedview
     id="namedview109"
     pagecolor="#ffffff"
     bordercolor="#000000"
     borderopacity="0.25"
     inkscape:showpageshadow="2"
     inkscape:pageopacity="0.0"
     inkscape:pagecheckerboard="0"
     inkscape:deskcolor="#d1d1d1"
     inkscape:zoom="0.69305569"
     inkscape:cx="567.054"
     inkscape:cy="142.12422"
     inkscape:window-width="1920"
     inkscape:window-height="1009"
     inkscape:window-x="1912"
     inkscape:window-y="-8"
     inkscape:window-maximized="1"
     inkscape:current-layer="svg109" />
  <path
     d="M655.233,220.48677a13.2351,13.2351,0,0,0-11.17-9.29,1.08068,1.08068,0,0,0-.18,0,1.41827,1.41827,0,0,0-.22-.05c-8.94-1.16-18.88,1.66-25.57,7.8a23.95824,23.95824,0,0,0-5.83,8.04,12.917,12.917,0,0,0-10.83-5.28,13.1835,13.1835,0,0,0-11.8,9.51,1.52646,1.52646,0,0,0,.69,1.69,6.673,6.673,0,0,0,2.79,1.42c2.21.47,4.44.9,6.67,1.29q6.54,1.14,13.15,1.85,4.365.465,8.75.74c6.04.38,12.11.47,18.16.28,3-.1,5.88-.2,8.62-1.52a12.79759,12.79759,0,0,0,4.95-4.31A14.54772,14.54772,0,0,0,655.233,220.48677Z"
     transform="translate(-159.91993 -161.86389)"
     fill="#e6e6e6"
     id="path1" />
  <path
     d="M600.30305,259.38679a13.65247,13.65247,0,0,0-.56-3.3,13.26025,13.26025,0,0,0-11.18-9.29.9647.9647,0,0,0-.17,0,1.88726,1.88726,0,0,0-.23-.05,33.19377,33.19377,0,0,0-14.69,1.51c-7.26,2.43-13.63,7.32995-16.7,14.33a12.9223,12.9223,0,0,0-10.84-5.28,13.18342,13.18342,0,0,0-11.8,9.51,1.55528,1.55528,0,0,0,.69,1.69,6.73289,6.73289,0,0,0,2.79,1.42c2.22.47,4.44.9,6.68,1.29q6.54,1.14,13.14,1.85a195.164,195.164,0,0,0,26.92,1.01995c2.99-.1,5.88-.2,8.62-1.51995a12.76973,12.76973,0,0,0,4.94-4.31A14.26452,14.26452,0,0,0,600.30305,259.38679Z"
     transform="translate(-159.91993 -161.86389)"
     fill="#e6e6e6"
     id="path2" />
  <path
     d="M948.05243,583.37544a171.85535,171.85535,0,0,1-7.4426,53.77281c-.18624.63255-.40951,1.26511-.63278,1.89789H830.422a98.32226,98.32226,0,0,1,7.40558-22.32779c9.117-19.35079,24.00219-35.91062,38.70137-52.35869,20.24387-22.66281,40.004-45.13937,43.13-74.612a169.25824,169.25824,0,0,1,19.053,39.33415,46.23132,46.23132,0,0,0-15.29449,9.37752c-1.22809,1.15359-2.53068,2.82822-1.89789,4.42835.5953,1.33961,2.23268,1.78638,3.684,2.08392,3.498.66981,6.99606,1.33961,10.49409,1.9724,2.75373.558,5.5447,1.07909,8.33568,1.60013A182.72887,182.72887,0,0,1,948.05243,583.37544Z"
     transform="translate(-159.91993 -161.86389)"
     fill="#f2f2f2"
     id="path3" />
  <path
     d="M1040.08007,571.31847c-17.56465,10.6801-28.72854,27.20268-37.84554,45.69742a46.7431,46.7431,0,0,0-21.2487,11.1639c-1.26534,1.15382-2.5677,2.82822-1.8979,4.42835.55829,1.33984,2.23292,1.78638,3.684,2.08392,3.46078.67,6.99606,1.33984,10.45684,1.9724-.33479.78155-.6698,1.60013-1.00459,2.38168H876.11967A164.17446,164.17446,0,0,1,893.57257,619.1c1.37686-1.37709,2.791-2.67945,4.24233-4.01907a173.65293,173.65293,0,0,1,50.23753-31.70553A176.73359,176.73359,0,0,1,1040.08007,571.31847Z"
     transform="translate(-159.91993 -161.86389)"
     fill="#f2f2f2"
     id="path4" />
  <path
     d="M895.47047,639.04614H792.09268a167.93161,167.93161,0,0,1,.149-24.85824c4.13059-51.09359,31.92858-99.768,73.86769-129.24085-5.35868,19.09027-2.605,38.069,2.977,57.12206-.78133.26052-1.56288.48379-2.26994.78133a46.23567,46.23567,0,0,0-15.29448,9.37775c-1.22809,1.15359-2.53046,2.82822-1.8979,4.42835.55806,1.33961,2.23269,1.78615,3.684,2.08392,3.498.6698,6.99606,1.33961,10.45684,1.9724,2.791.558,5.582,1.07909,8.37292,1.63738,1.30237.22326,2.605.48356,3.90732.74407.186.44654.29777.85606.48379,1.26535,6.54952,18.0482,13.69435,36.24541,17.04361,54.74038a127.77792,127.77792,0,0,1,1.71188,14.02914C895.396,635.10158,895.47047,637.07375,895.47047,639.04614Z"
     transform="translate(-159.91993 -161.86389)"
     fill="#f2f2f2"
     id="path5" />
  <path
     d="M332.05243,583.37544a171.85535,171.85535,0,0,1-7.4426,53.77281c-.18624.63255-.40951,1.26511-.63278,1.89789H214.422a98.32226,98.32226,0,0,1,7.40558-22.32779c9.117-19.35079,24.00219-35.91062,38.70137-52.35869,20.24387-22.66281,40.004-45.13937,43.13-74.612a169.25824,169.25824,0,0,1,19.053,39.33415,46.23132,46.23132,0,0,0-15.29449,9.37752c-1.22809,1.15359-2.53068,2.82822-1.89789,4.42835.5953,1.33961,2.23268,1.78638,3.684,2.08392,3.498.66981,6.99606,1.33961,10.49409,1.9724,2.75373.558,5.5447,1.07909,8.33568,1.60013A182.72887,182.72887,0,0,1,332.05243,583.37544Z"
     transform="translate(-159.91993 -161.86389)"
     fill="#f2f2f2"
     id="path6" />
  <path
     d="M424.08007,571.31847c-17.56465,10.6801-28.72854,27.20268-37.84554,45.69742a46.7431,46.7431,0,0,0-21.2487,11.1639c-1.26534,1.15382-2.5677,2.82822-1.8979,4.42835.55829,1.33984,2.23292,1.78638,3.68405,2.08392,3.46078.67,6.99606,1.33984,10.45684,1.9724-.33479.78155-.6698,1.60013-1.00459,2.38168H260.11967A164.17446,164.17446,0,0,1,277.57257,619.1c1.37686-1.37709,2.791-2.67945,4.24233-4.01907a173.65293,173.65293,0,0,1,50.23753-31.70553A176.73359,176.73359,0,0,1,424.08007,571.31847Z"
     transform="translate(-159.91993 -161.86389)"
     fill="#f2f2f2"
     id="path7" />
  <path
     d="M279.47047,639.04614H176.09268a167.93161,167.93161,0,0,1,.149-24.85824c4.13059-51.09359,31.92858-99.768,73.86769-129.24085-5.35868,19.09027-2.605,38.069,2.977,57.12206-.78133.26052-1.56288.48379-2.26994.78133a46.23567,46.23567,0,0,0-15.29448,9.37775c-1.22809,1.15359-2.53046,2.82822-1.8979,4.42835.55806,1.33961,2.23269,1.78615,3.684,2.08392,3.498.6698,6.99606,1.33961,10.45684,1.9724,2.791.558,5.582,1.07909,8.37292,1.63738,1.30237.22326,2.605.48356,3.90732.74407.186.44654.29777.85606.48379,1.26535,6.54952,18.0482,13.69435,36.24541,17.04361,54.74038a127.77792,127.77792,0,0,1,1.71188,14.02914C279.396,635.10158,279.47047,637.07375,279.47047,639.04614Z"
     transform="translate(-159.91993 -161.86389)"
     fill="#f2f2f2"
     id="path8" />
  <path
     d="M664.3299,595.64392l92.37,8.2.99.09v-394.14q-.49494-.345-.99-.69a288.32258,288.32258,0,0,0-62.01-32.94l-4.72,65.1-.43,5.96-4.67,64.56-1.44,19.86005-18.93,261.7Z"
     transform="translate(-159.91993 -161.86389)"
     fill="#e6e6e6"
     id="path9" />
  <path
     d="M435.89991,202.45392c-.66.42-1.32.84-1.98,1.28v400.2l1.98-.18,91.37-8.11-.17-2.3-18.93-261.7-1.44-19.86-4.67005-64.56-.43-5.96-4.95-68.27A287.68677,287.68677,0,0,0,435.89991,202.45392Z"
     transform="translate(-159.91993 -161.86389)"
     fill="#e6e6e6"
     id="path10" />
  <path
     d="M433.91993,203.73389c-1.33.86-2.66,1.74-3.97,2.63v403.03c0,10.07,5.97,18.51,13.95,20.66a15.24855,15.24855,0,0,0,4,.53h296.8a15.11793,15.11793,0,0,0,3.99-.53,17.06,17.06,0,0,0,7.78-4.66,22.9187,22.9187,0,0,0,6.18-16v-396.02c-1.64-1.21-3.29-2.41-4.96-3.58q-.49494-.345-.99-.69v400.29a16.10772,16.10772,0,0,1-.46,3.85c-1.41,5.95-6.06,10.31-11.54,10.31h-296.8c-6.62,0-12-6.35-12-14.16v-406.94C435.23987,202.8739,434.5799,203.29388,433.91993,203.73389Z"
     transform="translate(-159.91993 -161.86389)"
     fill="#e6e6e6"
     id="path11" />
  <rect
     x="273.00257"
     y="79.40401"
     width="326.75223"
     height="5.95901"
     fill="#e6e6e6"
     id="rect11" />
  <path
     d="M659.59992,165.2539c-1.98-.49-3.96-.95-5.96-1.38v161.81h5.96Z"
     transform="translate(-159.91993 -161.86389)"
     fill="#e6e6e6"
     id="path12" />
  <path
     d="M538.95991,161.86389c-1.99.37-3.98.75-5.96,1.16v162.66h5.96Z"
     transform="translate(-159.91993 -161.86389)"
     fill="#e6e6e6"
     id="path13" />
  <path
     d="M368.85993,620.15387a26.71127,26.71127,0,0,0,1.93,9.98,25.54045,25.54045,0,0,0,1.75,3.56,27.096,27.096,0,0,0,3.02,4.18,26.7604,26.7604,0,0,0,20.12,9.11h391.31a26.82,26.82,0,0,0,0-53.64h-391.31A26.84644,26.84644,0,0,0,368.85993,620.15387Z"
     transform="translate(-159.91993 -161.86389)"
     fill="#e6e6e6"
     id="path14" />
  <rect
     x="432.9225"
     y="311.78281"
     width="324.76589"
     height="19.86336"
     transform="translate(1030.69096 481.5651) rotate(-180)"
     fill="#e6e6e6"
     id="rect14" />
  <path
     d="M581.40109,305.82381h27.8087a0,0,0,0,1,0,0v0A10.92484,10.92484,0,0,1,598.285,316.74865h-5.959a10.92484,10.92484,0,0,1-10.92484-10.92484v0A0,0,0,0,1,581.40109,305.82381Z"
     transform="translate(1030.69096 460.70857) rotate(-180)"
     fill="#e6e6e6"
     id="path15" />
  <path
     d="M159.91993,635.47388a289.004,289.004,0,0,0,28.12,28.95h806.58a289.004,289.004,0,0,0,28.12-28.95Z"
     transform="translate(-159.91993 -161.86389)"
     fill="#3f3d56"
     id="path16" />
  <path
     d="M556.60993,538.66388v102.56h71.85v-102.56a3.448,3.448,0,0,0-2.43-3.3,3.17457,3.17457,0,0,0-1.03-.16H560.0799A3.46327,3.46327,0,0,0,556.60993,538.66388Zm28.04,35.24a7.67034,7.67034,0,0,1,15.34,0v11.9a7.6701,7.6701,0,0,1-15.34,0Z"
     transform="translate(-159.91993 -161.86389)"
     fill="#2f2e41"
     id="path17" />
  <path
     d="M556.39,637.94391v9.89a1.94622,1.94622,0,0,0,1.93,1.94h68.43a1.93971,1.93971,0,0,0,1.93-1.94v-9.89Z"
     transform="translate(-159.91993 -161.86389)"
     fill="#3f3d56"
     id="path18" />
  <path
     d="M443.5799,384.14392v187.26a9.00714,9.00714,0,0,0,9,9h277.5a9.0071,9.0071,0,0,0,9-9V384.14392a9.01147,9.01147,0,0,0-9-8.99h-277.5A9.01151,9.01151,0,0,0,443.5799,384.14392Z"
     transform="translate(-159.91993 -161.86389)"
     fill="#3f3d56"
     id="path19" />
  <path
     d="M450.08991,386.47388v182.62a4.81834,4.81834,0,0,0,4.81,4.81h272.87a4.81829,4.81829,0,0,0,4.81-4.81v-182.62a4.82046,4.82046,0,0,0-4.81-4.82h-272.87A4.82051,4.82051,0,0,0,450.08991,386.47388Z"
     transform="translate(-159.91993 -161.86389)"
     fill="#f07c2c"
     id="path20" />
  <path
     d="M505.72993,652.10388a2.94839,2.94839,0,0,0,2.32,1.11H670.39a2.98724,2.98724,0,0,0,2.92-3.6l-2.52-11.97a2.99262,2.99262,0,0,0-1.86-2.17,2.89451,2.89451,0,0,0-1.06-.2h-157.31a2.89422,2.89422,0,0,0-1.06.2,2.99237,2.99237,0,0,0-1.86,2.17l-2.52,11.97A2.98494,2.98494,0,0,0,505.72993,652.10388Z"
     transform="translate(-159.91993 -161.86389)"
     fill="#2f2e41"
     id="path21" />
  <rect
     x="661.71693"
     y="637.42968"
     width="5"
     height="3"
     rx="0.48819"
     transform="translate(1168.51393 1115.99546) rotate(-180)"
     fill="#3f3d56"
     id="rect21" />
  <rect
     x="651.71693"
     y="637.42968"
     width="5"
     height="3"
     rx="0.48819"
     transform="translate(1148.51393 1115.99546) rotate(-180)"
     fill="#3f3d56"
     id="rect22" />
  <rect
     x="641.71693"
     y="637.42968"
     width="5"
     height="3"
     rx="0.48819"
     transform="translate(1128.51393 1115.99546) rotate(-180)"
     fill="#3f3d56"
     id="rect23" />
  <rect
     x="631.71693"
     y="637.42968"
     width="5"
     height="3"
     rx="0.48819"
     transform="translate(1108.51393 1115.99546) rotate(-180)"
     fill="#3f3d56"
     id="rect24" />
  <rect
     x="621.71693"
     y="637.42968"
     width="5"
     height="3"
     rx="0.48819"
     transform="translate(1088.51393 1115.99546) rotate(-180)"
     fill="#3f3d56"
     id="rect25" />
  <rect
     x="611.71693"
     y="637.42968"
     width="5"
     height="3"
     rx="0.48819"
     transform="translate(1068.51393 1115.99546) rotate(-180)"
     fill="#3f3d56"
     id="rect26" />
  <rect
     x="601.71693"
     y="637.42968"
     width="5"
     height="3"
     rx="0.48819"
     transform="translate(1048.51393 1115.99546) rotate(-180)"
     fill="#3f3d56"
     id="rect27" />
  <rect
     x="591.71693"
     y="637.42968"
     width="5"
     height="3"
     rx="0.48819"
     transform="translate(1028.51393 1115.99546) rotate(-180)"
     fill="#3f3d56"
     id="rect28" />
  <rect
     x="581.71693"
     y="637.42968"
     width="5"
     height="3"
     rx="0.48819"
     transform="translate(1008.51393 1115.99546) rotate(-180)"
     fill="#3f3d56"
     id="rect29" />
  <rect
     x="571.71693"
     y="637.42968"
     width="5"
     height="3"
     rx="0.48819"
     transform="translate(988.51393 1115.99546) rotate(-180)"
     fill="#3f3d56"
     id="rect30" />
  <rect
     x="561.71693"
     y="637.42968"
     width="5"
     height="3"
     rx="0.48819"
     transform="translate(968.51393 1115.99546) rotate(-180)"
     fill="#3f3d56"
     id="rect31" />
  <rect
     x="551.71693"
     y="637.42968"
     width="5"
     height="3"
     rx="0.48819"
     transform="translate(948.51393 1115.99546) rotate(-180)"
     fill="#3f3d56"
     id="rect32" />
  <rect
     x="541.71693"
     y="637.42968"
     width="5"
     height="3"
     rx="0.48819"
     transform="translate(928.51393 1115.99546) rotate(-180)"
     fill="#3f3d56"
     id="rect33" />
  <rect
     x="531.71693"
     y="637.42968"
     width="5"
     height="3"
     rx="0.48819"
     transform="translate(908.51393 1115.99546) rotate(-180)"
     fill="#3f3d56"
     id="rect34" />
  <rect
     x="521.71693"
     y="637.42968"
     width="5"
     height="3"
     rx="0.48819"
     transform="translate(888.51393 1115.99546) rotate(-180)"
     fill="#3f3d56"
     id="rect35" />
  <rect
     x="511.71693"
     y="637.42968"
     width="5"
     height="3"
     rx="0.48819"
     transform="translate(868.51393 1115.99546) rotate(-180)"
     fill="#3f3d56"
     id="rect36" />
  <rect
     x="661.83509"
     y="642.42968"
     width="5"
     height="3"
     rx="0.48819"
     transform="translate(1168.75026 1125.99546) rotate(-180)"
     fill="#3f3d56"
     id="rect37" />
  <rect
     x="651.83509"
     y="642.42968"
     width="5"
     height="3"
     rx="0.48819"
     transform="translate(1148.75026 1125.99546) rotate(-180)"
     fill="#3f3d56"
     id="rect38" />
  <rect
     x="641.83509"
     y="642.42968"
     width="5"
     height="3"
     rx="0.48819"
     transform="translate(1128.75026 1125.99546) rotate(-180)"
     fill="#3f3d56"
     id="rect39" />
  <rect
     x="631.83509"
     y="642.42968"
     width="5"
     height="3"
     rx="0.48819"
     transform="translate(1108.75026 1125.99546) rotate(-180)"
     fill="#3f3d56"
     id="rect40" />
  <rect
     x="621.83509"
     y="642.42968"
     width="5"
     height="3"
     rx="0.48819"
     transform="translate(1088.75026 1125.99546) rotate(-180)"
     fill="#3f3d56"
     id="rect41" />
  <rect
     x="611.83509"
     y="642.42968"
     width="5"
     height="3"
     rx="0.48819"
     transform="translate(1068.75026 1125.99546) rotate(-180)"
     fill="#3f3d56"
     id="rect42" />
  <rect
     x="601.83509"
     y="642.42968"
     width="5"
     height="3"
     rx="0.48819"
     transform="translate(1048.75026 1125.99546) rotate(-180)"
     fill="#3f3d56"
     id="rect43" />
  <rect
     x="591.83509"
     y="642.42968"
     width="5"
     height="3"
     rx="0.48819"
     transform="translate(1028.75026 1125.99546) rotate(-180)"
     fill="#3f3d56"
     id="rect44" />
  <rect
     x="581.83509"
     y="642.42968"
     width="5"
     height="3"
     rx="0.48819"
     transform="translate(1008.75026 1125.99546) rotate(-180)"
     fill="#3f3d56"
     id="rect45" />
  <rect
     x="571.83509"
     y="642.42968"
     width="5"
     height="3"
     rx="0.48819"
     transform="translate(988.75026 1125.99546) rotate(-180)"
     fill="#3f3d56"
     id="rect46" />
  <rect
     x="561.83509"
     y="642.42968"
     width="5"
     height="3"
     rx="0.48819"
     transform="translate(968.75026 1125.99546) rotate(-180)"
     fill="#3f3d56"
     id="rect47" />
  <rect
     x="551.83509"
     y="642.42968"
     width="5"
     height="3"
     rx="0.48819"
     transform="translate(948.75026 1125.99546) rotate(-180)"
     fill="#3f3d56"
     id="rect48" />
  <rect
     x="541.83509"
     y="642.42968"
     width="5"
     height="3"
     rx="0.48819"
     transform="translate(928.75026 1125.99546) rotate(-180)"
     fill="#3f3d56"
     id="rect49" />
  <rect
     x="531.83509"
     y="642.42968"
     width="5"
     height="3"
     rx="0.48819"
     transform="translate(908.75026 1125.99546) rotate(-180)"
     fill="#3f3d56"
     id="rect50" />
  <rect
     x="521.83509"
     y="642.42968"
     width="5"
     height="3"
     rx="0.48819"
     transform="translate(888.75026 1125.99546) rotate(-180)"
     fill="#3f3d56"
     id="rect51" />
  <rect
     x="511.83509"
     y="642.42968"
     width="5"
     height="3"
     rx="0.48819"
     transform="translate(868.75026 1125.99546) rotate(-180)"
     fill="#3f3d56"
     id="rect52" />
  <rect
     x="578.83509"
     y="648.42968"
     width="40"
     height="3"
     rx="0.48819"
     transform="translate(1037.75026 1137.99546) rotate(-180)"
     fill="#3f3d56"
     id="rect53" />
  <path
     d="M468.6118,406.8106H723.93516a1.01559,1.01559,0,0,0,0-2.03069H468.6118a1.01559,1.01559,0,0,0,0,2.03069Z"
     transform="translate(-159.91993 -161.86389)"
     fill="#3f3d56"
     id="path53" />
  <ellipse
     cx="546.63504"
     cy="231.64882"
     rx="5.95043"
     ry="6.08304"
     fill="#3f3d56"
     id="ellipse53" />
  <ellipse
     cx="526.07902"
     cy="231.64882"
     rx="5.95043"
     ry="6.08304"
     fill="#3f3d56"
     id="ellipse54" />
  <ellipse
     cx="505.523"
     cy="231.64882"
     rx="5.95043"
     ry="6.08304"
     fill="#3f3d56"
     id="ellipse55" />
  <path
     d="M479.89991,390.04388a1.0948,1.0948,0,0,0,1.09,1.1h14.6a1.1053,1.1053,0,0,0,0-2.21h-14.6A1.1034,1.1034,0,0,0,479.89991,390.04388Z"
     transform="translate(-159.91993 -161.86389)"
     fill="#3f3d56"
     id="path55" />
  <path
     d="M479.89991,394.19391a1.09475,1.09475,0,0,0,1.09,1.1h14.6a1.10527,1.10527,0,0,0,0-2.21h-14.6A1.1034,1.1034,0,0,0,479.89991,394.19391Z"
     transform="translate(-159.91993 -161.86389)"
     fill="#3f3d56"
     id="path56" />
  <path
     d="M479.89991,398.33392a1.1034,1.1034,0,0,0,1.09,1.11h14.6a1.1053,1.1053,0,0,0,0-2.21h-14.6A1.09476,1.09476,0,0,0,479.89991,398.33392Z"
     transform="translate(-159.91993 -161.86389)"
     fill="#3f3d56"
     id="path57" />
  <rect
     x="316.36599"
     y="268.5433"
     width="11.00609"
     height="5.75992"
     rx="2.87996"
     fill="#e6e6e6"
     id="rect57" />
  <rect
     x="376.36599"
     y="268.5433"
     width="11.00609"
     height="5.75992"
     rx="2.87996"
     fill="#e6e6e6"
     id="rect58" />
  <rect
     x="393.36599"
     y="268.5433"
     width="11.00609"
     height="5.75992"
     rx="2.87996"
     fill="#e6e6e6"
     id="rect59" />
  <rect
     x="332.68618"
     y="268.06314"
     width="38.3657"
     height="5.75992"
     rx="2.87996"
     fill="#e6e6e6"
     id="rect60" />
  <rect
     x="412.68618"
     y="268.06314"
     width="38.3657"
     height="5.75992"
     rx="2.87996"
     fill="#e6e6e6"
     id="rect61" />
  <rect
     x="332.36599"
     y="281.5433"
     width="11.00609"
     height="5.75992"
     rx="2.87996"
     fill="#e6e6e6"
     id="rect62" />
  <rect
     x="392.36599"
     y="281.5433"
     width="11.00609"
     height="5.75992"
     rx="2.87996"
     fill="#e6e6e6"
     id="rect63" />
  <rect
     x="409.36599"
     y="281.5433"
     width="11.00609"
     height="5.75992"
     rx="2.87996"
     fill="#e6e6e6"
     id="rect64" />
  <rect
     x="348.68618"
     y="281.06314"
     width="38.3657"
     height="5.75992"
     rx="2.87996"
     fill="#e6e6e6"
     id="rect65" />
  <rect
     x="428.68618"
     y="281.06314"
     width="38.3657"
     height="5.75992"
     rx="2.87996"
     fill="#e6e6e6"
     id="rect66" />
  <rect
     x="348.36599"
     y="294.5433"
     width="11.00609"
     height="5.75992"
     rx="2.87996"
     fill="#e6e6e6"
     id="rect67" />
  <rect
     x="408.36599"
     y="294.5433"
     width="11.00609"
     height="5.75992"
     rx="2.87996"
     fill="#e6e6e6"
     id="rect68" />
  <rect
     x="425.36599"
     y="294.5433"
     width="11.00609"
     height="5.75992"
     rx="2.87996"
     fill="#e6e6e6"
     id="rect69" />
  <rect
     x="364.68618"
     y="294.06314"
     width="38.3657"
     height="5.75992"
     rx="2.87996"
     fill="#e6e6e6"
     id="rect70" />
  <rect
     x="444.68618"
     y="294.06314"
     width="38.3657"
     height="5.75992"
     rx="2.87996"
     fill="#e6e6e6"
     id="rect71" />
  <rect
     x="364.36599"
     y="307.5433"
     width="11.00609"
     height="5.75992"
     rx="2.87996"
     fill="#e6e6e6"
     id="rect72" />
  <rect
     x="424.36599"
     y="307.5433"
     width="11.00609"
     height="5.75992"
     rx="2.87996"
     fill="#e6e6e6"
     id="rect73" />
  <rect
     x="441.36599"
     y="307.5433"
     width="11.00609"
     height="5.75992"
     rx="2.87996"
     fill="#e6e6e6"
     id="rect74" />
  <rect
     x="380.68618"
     y="307.06314"
     width="38.3657"
     height="5.75992"
     rx="2.87996"
     fill="#e6e6e6"
     id="rect75" />
  <rect
     x="376.36599"
     y="359.23682"
     width="11.00609"
     height="5.75992"
     rx="2.87996"
     fill="#e6e6e6"
     id="rect76" />
  <rect
     x="393.36599"
     y="359.23682"
     width="11.00609"
     height="5.75992"
     rx="2.87996"
     fill="#e6e6e6"
     id="rect77" />
  <rect
     x="412.68618"
     y="359.71699"
     width="38.3657"
     height="5.75992"
     rx="2.87996"
     fill="#e6e6e6"
     id="rect78" />
  <rect
     x="316.36599"
     y="359.23682"
     width="11.00609"
     height="5.75992"
     rx="2.87996"
     fill="#e6e6e6"
     id="rect79" />
  <rect
     x="332.68618"
     y="359.71699"
     width="38.3657"
     height="5.75992"
     rx="2.87996"
     fill="#e6e6e6"
     id="rect80" />
  <rect
     x="332.36599"
     y="346.23682"
     width="11.00609"
     height="5.75992"
     rx="2.87996"
     fill="#e6e6e6"
     id="rect81" />
  <rect
     x="392.36599"
     y="346.23682"
     width="11.00609"
     height="5.75992"
     rx="2.87996"
     fill="#e6e6e6"
     id="rect82" />
  <rect
     x="409.36599"
     y="346.23682"
     width="11.00609"
     height="5.75992"
     rx="2.87996"
     fill="#e6e6e6"
     id="rect83" />
  <rect
     x="348.68618"
     y="346.71699"
     width="38.3657"
     height="5.75992"
     rx="2.87996"
     fill="#e6e6e6"
     id="rect84" />
  <rect
     x="348.36599"
     y="333.23682"
     width="11.00609"
     height="5.75992"
     rx="2.87996"
     fill="#e6e6e6"
     id="rect85" />
  <rect
     x="408.36599"
     y="333.23682"
     width="11.00609"
     height="5.75992"
     rx="2.87996"
     fill="#e6e6e6"
     id="rect86" />
  <rect
     x="425.36599"
     y="333.23682"
     width="11.00609"
     height="5.75992"
     rx="2.87996"
     fill="#e6e6e6"
     id="rect87" />
  <rect
     x="364.68618"
     y="333.71699"
     width="38.3657"
     height="5.75992"
     rx="2.87996"
     fill="#e6e6e6"
     id="rect88" />
  <rect
     x="364.36599"
     y="320.23682"
     width="11.00609"
     height="5.75992"
     rx="2.87996"
     fill="#e6e6e6"
     id="rect89" />
  <rect
     x="424.36599"
     y="320.23682"
     width="11.00609"
     height="5.75992"
     rx="2.87996"
     fill="#e6e6e6"
     id="rect90" />
  <rect
     x="441.36599"
     y="320.23682"
     width="11.00609"
     height="5.75992"
     rx="2.87996"
     fill="#e6e6e6"
     id="rect91" />
  <rect
     x="380.68618"
     y="320.71699"
     width="38.3657"
     height="5.75992"
     rx="2.87996"
     fill="#e6e6e6"
     id="rect92" />
  <path
     d="m 315.1005,520.67584 c -0.14167,0.0709 -0.28333,0.14166 -0.425,0.20606 q -1.34261,0.66647 -2.70454,1.31363 -4.07614,1.94148 -8.2553,3.68977 a 183.83345,183.83345 0 0 1 -22.51855,7.74659 c -1.28787,-8.02992 -2.53711,-26.96817 -3.73484,-40.89656 -0.22538,-2.62084 -0.45076,-5.0614 -0.67614,-7.21856 a 62.562049,62.562049 0 0 0 -1.21704,-8.42272 2.8070264,2.8070264 0 0 0 -0.25114,-0.62462 c 0.12235,1.11401 0.25114,4.43674 0.37349,9.04734 0.0644,2.1572 0.12234,4.59772 0.18674,7.21856 0.30265,13.4068 0.61818,31.64959 0.93371,42.03633 -0.89507,0.21894 -1.79659,0.43788 -2.6981,0.64394 -0.56667,0.13523 -1.13978,0.26401 -1.71288,0.38636 -0.69546,0.15455 -1.39091,0.30909 -2.08636,0.45073 q -1.09148,0.23187 -2.18296,0.44432 a 186.78888,186.78888 0 0 1 -36.09921,3.50302 c -0.80493,0 -1.60341,-0.006 -2.40834,-0.0129 -0.24469,0 -0.48939,-0.006 -0.74053,-0.0129 -0.70833,-0.0129 -1.44242,-0.0258 -2.18939,-0.0451 a 185.83505,185.83505 0 0 1 -42.39694,-6.11098 l 0.56023,-41.28293 0.0966,-7.21855 0.0386,-2.73674 a 9.7764742,9.7764742 0 0 0 -0.56667,2.73674 c -0.22538,1.75795 -0.4572,4.24999 -0.68901,7.21855 -0.8822,11.43636 -1.79015,29.88521 -2.73031,40.38141 -11.1337,-3.16817 -19.27309,-6.05946 -29.44732,-11.14658 -0.39284,-0.19318 -0.79205,-0.3928 -1.18485,-0.59242 0.0708,-0.49584 0.1481,-0.99167 0.21894,-1.50038 1.15265,-8.0106 -0.20606,-18.43597 1.06894,-27.14203 0.97234,-6.71628 1.97689,-13.16855 2.98787,-18.64203 1.22349,-6.58749 2.46626,-11.76476 3.69621,-14.28256 1.41667,-2.90417 2.83333,-5.76326 4.20492,-8.5 q 0.88868,-1.76761 1.74508,-3.47083 c 0.30909,-0.61174 0.61818,-1.21704 0.92083,-1.80947 1.37803,-2.6981 2.67879,-5.19015 3.87007,-7.39886 0.83712,-1.55189 1.60985,-2.95568 2.31818,-4.1856 0.83069,-1.44886 1.56478,-2.64659 2.17008,-3.55454 a 35.613623,35.613623 0 0 1 18.85453,-14.30189 l 0.19318,-0.0515 0.18675,0.0773 0.21246,0.0966 12.27348,-4.48825 5.47992,-13.19431 28.14657,-1.7322 4.54621,3.45795 2.32462,1.77084 2.47916,1.88674 4.55909,3.47083 1.29432,0.39924 1.92538,0.59242 13.16855,4.04394 0.13523,-0.058 0.19318,0.0515 a 35.524766,35.524766 0 0 1 17.61817,12.55681 c 0.43787,0.56667 0.84356,1.15265 1.23636,1.74508 1.06894,1.58409 2.51136,4.08901 4.21136,7.23143 0.70189,1.29432 1.44242,2.6981 2.22159,4.1856 0.47007,0.89508 4.52689,13.55492 8.47424,26.48521 3.68977,12.10605 7.28295,24.45036 7.75302,27.61854 0.0837,0.58599 0.17386,1.17838 0.25758,1.7644 0.53447,3.66401 1.0625,7.35378 1.57121,10.9534 0.75341,5.33825 1.4875,10.48976 2.18939,15.09393 0.006,0.0451 0.0129,0.0838 0.0193,0.12882 z"
     fill="#3f3d56"
     id="path92"
     style="stroke-width:0.643939" />
  <polygon
     points="303.59 473.566 295.093 440.774 287.59 469.07 303.59 473.566"
     opacity="0.2"
     id="polygon92" />
  <path
     d="M175.74923,635.04964a6.41621,6.41621,0,0,0,6.18311,4.331l26.49182-.68178a6.32847,6.32847,0,0,0,5.98085-4.657l3.74889-40.08722a9.794,9.794,0,0,0,4.23792.87079,9.66133,9.66133,0,0,0-.48489-19.31658,8.18393,8.18393,0,0,0-1.73618.18056,6.54767,6.54767,0,0,0-4.87405-2.103l-40.75052,1.05229a5.85418,5.85418,0,0,0-1.00519.1248,6.36455,6.36455,0,0,0-4.87318,8.26464Zm43.17346-43.81684,2.66763-9.55274a6.50638,6.50638,0,0,0,.02037-3.37458c.12944-.00034.24363-.06168.37306-.062a6.91049,6.91049,0,0,1,.32358,13.81714A6.50523,6.50523,0,0,1,218.92269,591.2328Z"
     transform="translate(-159.91993 -161.86389)"
     fill="#2f2e41"
     id="path93" />
  <path
     d="M173.541,574.76349c.86818,4.96412,10.62909,8.45388,22.36585,7.8473,10.79272-.49726,19.61746-4.287,21.23421-8.77851a6.025,6.025,0,0,0-1.84435-.24588l-40.75052,1.05229A5.85418,5.85418,0,0,0,173.541,574.76349Z"
     transform="translate(-159.91993 -161.86389)"
     fill="#3f3d56"
     id="path94" />
  <path
     d="M198.05786,613.02141a.49675.49675,0,0,0,.15092-.06642l5.75315-3.76566a.49923.49923,0,0,0,.00032-.83621l-5.97979-3.91667a.49972.49972,0,1,0-.54792.83585l5.34091,3.49818-5.114,3.34794a.49991.49991,0,0,0,.39637.903Z"
     transform="translate(-159.91993 -161.86389)"
     fill="#f07c2c"
     id="path95" />
  <path
     d="M188.97111,613.44045a.5.5,0,0,0,.12607-.91842l-5.30305-3.04034,5.1256-3.80723a.49963.49963,0,1,0-.596-.80208l-5.73863,4.26265a.49951.49951,0,0,0,.04918.83476l5.96526,3.41968A.49965.49965,0,0,0,188.97111,613.44045Z"
     transform="translate(-159.91993 -161.86389)"
     fill="#f07c2c"
     id="path96" />
  <path
     d="M197.48564,616.32142a.482.482,0,0,0,.137-.05785.49976.49976,0,0,0,.16751-.68714l-8.15548-13.40836a.50026.50026,0,0,0-.85441.52058L196.9357,616.097A.50033.50033,0,0,0,197.48564,616.32142Z"
     transform="translate(-159.91993 -161.86389)"
     fill="#f07c2c"
     id="path97" />
  <path
     d="M945.069,708.90387c-.61.31-1.23.62-1.84.92-15.8,7.9-28.44,12.39-45.73,17.31-1.46-16.3-2.87-44.95-4.24-62.71-.36-4.61-.72-8.48-1.07-11.21a15.18215,15.18215,0,0,0-.88-4.25l.06,4.25.15,11.21.87,64.11a288.5879,288.5879,0,0,1-65.84,9.49c-1.16.03-2.3.05-3.4.07-.39.01-.77.02-1.15.02-1.25.01-2.49.02-3.74.02a289.2711,289.2711,0,0,1-69.54-8.43c.49-16.13.98-44.46,1.44995-65.28.1-4.07.19-7.86.29-11.21.19-7.16.39-12.32.58-14.05a4.36163,4.36163,0,0,0-.39.97,97.15388,97.15388,0,0,0-1.89,13.08c-.35,3.35-.7,7.14-1.05,11.21-1.86,21.63-3.8,51.04-5.8,63.51a285.47262,285.47262,0,0,1-34.97-12.03q-9-3.75-17.68-8.09c1.1-7.2,2.25-15.27,3.43-23.64.92-6.49,1.87-13.16,2.84-19.75,1.5-10.18,52.46-120.11,64.47-123.96l.3-.08.21.09,20.45-6.28,2.99-.92,2.01-.62,7.08-5.39,3.85-2.93,3.61-2.75,7.06-5.37,43.71,2.69,8.51,20.49,19.06,6.97.33-.15.29-.12.3.08a55.306,55.306,0,0,1,29.28,22.21c.94,1.41,2.08,3.27,3.37,5.52,1.1,1.91,2.3,4.09,3.6,6.5,1.85,3.43005,3.87,7.30005,6.01,11.49.47.92.95,1.86,1.43,2.81q1.335,2.63993,2.71,5.38995c2.13,4.25,4.33,8.69,6.53,13.2,1.91,3.91,3.84,11.95,5.74,22.18,1.57,8.5,3.13,18.52,4.64,28.95,1.98,13.52-.13,29.71,1.66,42.15C944.83905,707.36389,944.95905,708.13391,945.069,708.90387Z"
     fill="#3f3d56"
     id="path98"
     transform="translate(-159.91993 -161.86389)" />
  <circle
     cx="656.95415"
     cy="296.15827"
     r="50.83645"
     fill="#ffb6b6"
     id="circle98" />
  <polygon
     points="575.659 473.566 584.156 440.774 591.659 469.07 575.659 473.566"
     opacity="0.2"
     id="polygon98" />
  <path
     d="M668.10237,616.03915,690.436,604.87234,671.8246,554.62155l-4.90493-25.342a19.16137,19.16137,0,0,0-31.2822-10.90731h0a19.16136,19.16136,0,0,0-2.4925,26.51833l18.20718,22.75891Z"
     fill="#ffb6b6"
     id="path101"
     transform="translate(-159.91993 -161.86389)" />
  <path
     d="M690.436,595.56664l-29.77821,14.889,22.59854,70.80908A30.97684,30.97684,0,0,0,705.592,701.98112h0a30.97683,30.97683,0,0,0,33.73744-14.197l59.92487-102.71393a31.62026,31.62026,0,0,0-10.19564-42.982h0a31.62045,31.62045,0,0,0-45.29614,12.76511l-36.576,77.93632Z"
     fill="#3f3d56"
     id="path102"
     transform="translate(-159.91993 -161.86389)" />
  <circle
     cx="224.68867"
     cy="354.28165"
     fill="#a0616a"
     id="circle102"
     r="36.018745"
     style="stroke-width:0.643939" />
  <path
     d="m 189.10248,329.46061 c 2.92859,-3.94724 7.13792,-6.75356 10.35762,-10.46716 1.7666,-2.03759 3.23348,-4.34627 5.21955,-6.17038 3.69002,-3.38916 8.85045,-4.77789 13.85773,-4.9506 a 34.968834,34.968834 0 0 1 28.54654,13.54747 q 3.92597,-2.30189 7.85195,-4.60369 1.55105,4.08238 3.1021,8.16485 a 4.7591789,4.7591789 0 0 1 7.25309,5.95515 c 0.62285,-1.92474 3.47673,-2.33308 5.0501,-1.06157 1.57337,1.27161 1.99467,3.53394 1.73806,5.54054 a 11.152868,11.152868 0 0 1 -8.41295,9.22507 c -3.41549,0.76092 -7.39076,-0.0385 -10.12439,2.14591 -2.19166,1.75121 -2.85329,4.94006 -5.08989,6.63338 -2.75609,2.08659 -6.6515,1.12159 -10.07741,1.58268 -5.99384,0.80685 -10.73986,6.93715 -10.01953,12.94204 -0.54226,-1.89477 -1.11217,-3.84439 -2.34299,-5.38354 -1.23091,-1.53915 -3.30394,-2.58007 -5.19171,-2.01421 -3.12042,0.93533 -3.6309,5.18868 -2.87464,8.35717 2.00571,8.40341 9.60712,21.98665 9.60712,21.98665 -9.87011,3.89339 -21.62911,0.21186 -29.24459,-7.17605 -7.61539,-7.38791 -11.58166,-17.8492 -13.30939,-28.31777 -1.46506,-8.87729 -1.25744,-18.71008 4.10363,-25.93594 z"
     fill="#2f2e41"
     id="path103"
     style="stroke-width:0.643939" />
  <path
     d="M880.58187,486.04614c10.6416-24.3981,4.61285-46.8497-8.36-58.76l0-.01c-5.1-11.43-11.88-20.25-19.64-22.32-3.75-2.41-7.39-5.24-11.43-6.68a14.88737,14.88737,0,0,0-11.68.53l-2.06-.55c-1.75-4.47-3.8-4.56-6.08-1.62-8.78-4.09-16.69-5.92-23.73-5.92-22.96,0-36.54,19.44-40.14,42.94l19.19,5.11,6.67-10.63-3.08,11.59,10.59,2.81c16.12,20.99-3.17,69.41-27.62,96.35q8.73-2.415,17.39-4.08l20.98-30.76-13,28c6.75-.99,15.36-.04,24.77,1.87,3.17-4.14,4.84-9.66,3.2-14.58a55.74547,55.74547,0,0,1,5.48,16.53c19.86,4.85,46.95,7.34,61.55,9.18C895.37777,541.1955,895.40987,497.70636,880.58187,486.04614Z"
     fill="#2f2e41"
     id="path104"
     transform="translate(-159.91993 -161.86389)" />
  <path
     d="M887.50523,403.05443c7.7946,17.45324-7.93319,24.96034-22.34136,24.74834-13.019-.19157-24.08365-9.33791-24.74832-22.34137a23.57558,23.57558,0,0,1,22.34136-24.74832C875.76037,380.04841,882.19575,391.16571,887.50523,403.05443Z"
     transform="translate(-159.91993 -161.86389)"
     fill="#2f2e41"
     id="path105" />
  <path
     d="m 325.44863,507.38288 -8.26789,-13.79044 27.49049,-20.85599 11.42992,-12.06787 a 12.338759,12.338759 0 0 1 20.76373,4.89619 v 0 a 12.338746,12.338746 0 0 1 -7.81888,15.26557 l -17.76151,6.06362 z"
     fill="#a0616a"
     id="path106"
     style="stroke-width:0.643939" />
  <path
     d="m 331.42434,506.92776 -12.87234,10.72802 -3.47083,2.89129 -0.40564,0.33485 q -1.34262,0.66647 -2.70455,1.31363 -4.07613,1.94148 -8.25529,3.68977 a 183.83345,183.83345 0 0 1 -22.51855,7.74659 q -2.18291,0.59886 -4.38522,1.13977 c -0.89508,0.21894 -1.79659,0.43788 -2.69811,0.64394 -0.56666,0.13523 -1.13977,0.26401 -1.71288,0.38636 -0.69545,0.15455 -1.3909,0.30909 -2.08636,0.45073 q -1.09147,0.23187 -2.18295,0.44431 a 19.938455,19.938455 0 0 1 -6.19469,-14.44999 c 0,-0.17383 0,-0.35416 0.006,-0.53443 l 2.06704,-53.0155 0.91443,-23.49733 a 20.360062,20.360062 0 0 1 20.40642,-19.82044 c 0.61818,0 1.22992,0.0322 1.83523,0.0902 0.43787,0.56667 0.84356,1.15265 1.23636,1.74508 1.06894,1.58409 2.51136,4.08901 4.21136,7.23143 0.70189,1.29432 1.44242,2.69811 2.22159,4.1856 0.47007,0.89508 4.52689,13.55492 8.47424,26.48521 l -1.73864,13.5034 -3.14242,24.34093 12.89166,-8.46136 9.07954,-5.96287 1.07537,1.79658 2.80114,4.675 5.40909,9.01515 z"
     fill="#3f3d56"
     id="path107"
     style="stroke-width:0.643939" />
  <path
     d="m 372.95926,514.05823 c -0.01,1.7 -0.05,3.37 -0.14,5.02 a 97.24839,97.24839 0 0 1 -1.58,13.56 79.14449,79.14449 0 0 1 -7.31,21.61 c -0.46,0.91 -0.95,1.81006 -1.45,2.69 -1.29,0.68006 -2.6,1.34 -3.91,2 -0.22,0.11005 -0.44,0.22 -0.66,0.32 q -8.355,4.155 -17.02,7.77 a 285.48273,285.48273 0 0 1 -34.97,12.03 q -3.38993,0.93 -6.81,1.77 -6.67493,1.65 -13.48,2.99 a 290.07234,290.07234 0 0 1 -56.06,5.44 c -1.25,0 -2.49,-0.01 -3.74,-0.02 -0.38,0 -0.76,-0.01 -1.15,-0.02 -1.1,-0.02 -2.24,-0.04 -3.4,-0.07 a 288.5911,288.5911 0 0 1 -65.84,-9.49 q -2.565,-0.675 -5.11,-1.4 a 286.16459,286.16459 0 0 1 -47.52,-18.22 c -16.779997,-34.53 -13.629997,-52.97 -16.669997,-94.85 6.24,-15.59 111.809997,-4.58 193.089997,13.03 22.06,4.78 42.32,10.05 58.33,15.41 16.54,5.53 28.53,11.15 33.23,16.43006 a 7.9373,7.9373 0 0 1 2.17,3.99994 z"
     fill="#2f2e41"
     id="path108" />
  <path
     d="m 85.062999,472.71888 c -0.15527,-2.59271 -0.32885,-5.27093 -0.53131,-8.05987 10.14,-25.32 282.230001,19.51 286.820001,48.87 -0.0126,2.69184 -0.12775,5.30414 -0.32129,7.85456 C 359.91481,492.40528 101.42567,449.79725 85.062999,472.71888 Z"
     opacity="0.2"
     id="path109" />
</svg>
