<?xml version="1.0" encoding="UTF-8" standalone="no"?>
<svg
   data-name="Layer 1"
   width="731.07696"
   height="629.61397"
   viewBox="0 0 731.07696 629.61397"
   version="1.1"
   id="svg38"
   sodipodi:docname="ranking.svg"
   inkscape:version="1.3.2 (091e20e, 2023-11-25, custom)"
   xmlns:inkscape="http://www.inkscape.org/namespaces/inkscape"
   xmlns:sodipodi="http://sodipodi.sourceforge.net/DTD/sodipodi-0.dtd"
   xmlns="http://www.w3.org/2000/svg"
   xmlns:svg="http://www.w3.org/2000/svg">
  <defs
     id="defs38" />
  <sodipodi:namedview
     id="namedview38"
     pagecolor="#ffffff"
     bordercolor="#000000"
     borderopacity="0.25"
     inkscape:showpageshadow="2"
     inkscape:pageopacity="0.0"
     inkscape:pagecheckerboard="0"
     inkscape:deskcolor="#d1d1d1"
     inkscape:zoom="0.64563372"
     inkscape:cx="595.53891"
     inkscape:cy="398.83295"
     inkscape:window-width="1920"
     inkscape:window-height="1009"
     inkscape:window-x="1912"
     inkscape:window-y="-8"
     inkscape:window-maximized="1"
     inkscape:current-layer="svg38" />
  <path
     d="m 314.77805,499.00375 6.59768,-20.63092 a 72.522227,69.633115 0 0 0 -28.98895,-18.64827 c 10.84438,17.2502 0.33617,39.75332 4.71509,59.45888 a 43.622199,41.884395 0 0 0 23.36469,28.54328 l 10.01201,11.91107 a 73.097066,70.185054 0 0 0 5.37259,-58.5392 70.607601,67.794763 0 0 0 -8.17551,-15.08775 c -5.94953,6.71579 -12.8976,12.99291 -12.8976,12.99291 z"
     fill="#f2f2f2"
     id="path1"
     style="stroke-width:0.809648" />
  <path
     d="m 278.50021,501.63973 -3.67753,-21.29076 a 72.522235,69.633123 0 0 0 -34.60816,-4.27754 c 17.71862,10.79594 18.76569,35.43697 31.83795,51.19916 a 43.622224,41.884419 0 0 0 34.17027,15.54236 l 14.49368,6.37363 a 73.097082,70.18507 0 0 0 -22.38188,-54.69565 70.607452,67.79462 0 0 0 -14.32546,-10.0033 c -2.20569,8.55857 -5.50887,17.1521 -5.50887,17.1521 z"
     fill="#f2f2f2"
     id="path2"
     style="stroke-width:0.809648" />
  <polygon
     points="509.237,616.733 503.386,569.293 521.539,569.294 521.537,616.734 "
     fill="#ffb6b6"
     id="polygon2"
     transform="matrix(0.8262741,0,0,0.79335732,63.503503,65.052756)" />
  <path
     d="m 497.02744,563.80159 -32.76838,-10e-4 v -0.39795 a 12.755061,12.24693 0 0 1 12.75437,-12.24609 h 8.2e-4 l 5.98559,-4.36008 11.16776,4.36074 2.86049,1.2e-4 z"
     fill="#2f2e41"
     id="path3"
     style="stroke-width:0.809648" />
  <polygon
     points="711.831,580.869 673.137,552.804 685.514,539.526 720.217,571.872 "
     fill="#ffb6b6"
     id="polygon3"
     transform="matrix(0.8262741,0,0,0.79335732,63.503503,65.052756)" />
  <path
     d="m 667.57346,523.38003 -22.34245,23.01558 -0.3032,-0.27133 a 12.755061,12.24693 0 0 1 -0.63422,-17.308 l 5.6e-4,-5.7e-4 0.75908,-7.17695 10.93656,-4.87103 1.95037,-2.00911 z"
     fill="#2f2e41"
     id="path4"
     style="stroke-width:0.809648" />
  <path
     d="m 643.56266,497.59936 -10.74156,21.57087 -65.96077,-41.933 -9.5958,-12.55346 -31.46352,-41.16135 -12.78965,19.4855 -8.89939,20.36945 v 0 a 23.38521,22.453599 0 0 0 -10.47266,16.3862 l -0.40719,3.60622 5.62345,48.5395 -21.37399,6.3015 -12.27554,-65.20612 4.0128,-14.12961 4.13137,-19.83393 20.80041,-62.67523 h 55.6614 l 31.92516,65.24744 2.33376,13.29494 9.05188,9.9746 z"
     fill="#2f2e41"
     id="path5"
     style="stroke-width:0.809648" />
  <path
     d="m 527.88759,273.82314 9.36994,6.85064 11.30013,3.33419 c 0,0 4.67157,63.09439 8.88091,67.13603 4.20934,4.04164 0.41303,4.15027 1.25884,9.40062 0.84582,5.25034 2.90161,16.01294 2.90161,16.01294 -28.41314,14.44115 -52.90825,14.82853 -72.58405,-2.07007 a 4.9007804,4.7055451 0 0 1 2.67389,-5.31122 c 3.662,-1.86569 -3.37579,-10.57352 -0.38306,-12.02947 2.99272,-1.45594 -1.21661,-14.08606 -1.21661,-14.08606 l 2.7613,-26.35181 -2.18156,-4.21238 5.32382,-25.77506 9.23785,-3.23928 3.69015,-8.53673 z"
     fill="#3f3d56"
     id="path6"
     style="stroke-width:0.809648" />
  <path
     d="m 533.75738,385.96318 a 8.1225636,7.7989802 0 0 1 9.26035,-7.99723 l 13.20523,-24.64458 7.35706,12.55077 -13.66781,21.47877 a 8.166571,7.8412344 0 0 1 -16.15478,-1.38773 z"
     fill="#ffb6b6"
     id="path7"
     style="stroke-width:0.809648" />
  <path
     d="m 555.99605,379.93449 28.32334,-42.14902 -0.0935,-0.19394 c -0.10694,-0.22219 -6.52069,-13.52245 -12.73536,-25.70464 -0.95704,-1.87603 -1.90935,-3.72555 -2.83319,-5.49669 q -0.59807,-1.1466 -1.17832,-2.24525 c -2.6102,-4.9409 -4.89072,-9.02466 -6.25199,-10.96452 a 23.974583,23.019493 0 0 0 -12.70418,-9.25344 l -0.13104,-0.0324 -0.12512,0.0501 a 12.166333,11.681655 0 0 0 -7.2405,12.85043 86.177191,82.744098 0 0 0 15.9908,34.71335 l 4.59165,5.81113 -15.95663,33.30928 z"
     fill="#3f3d56"
     id="path8"
     style="stroke-width:0.809648" />
  <path
     d="m 458.60035,218.37064 a 8.1225471,7.7989643 0 0 1 -1.94903,11.8115 l 5.90422,27.12893 -13.94637,-5.30174 -3.46865,-24.94929 a 8.166571,7.8412344 0 0 1 13.45978,-8.6894 z"
     fill="#ffb6b6"
     id="path9"
     style="stroke-width:0.809648" />
  <path
     d="m 445.27824,236.49975 5.63974,49.86769 0.19981,0.0941 c 0.16467,0.0777 7.30975,3.44266 16.08038,7.45011 1.47958,0.67604 1.26751,3.60448 2.81386,4.30439 1.06518,0.48211 3.87806,-1.26724 4.95434,-0.78397 9.58668,4.30455 19.28046,8.49019 23.14378,9.62434 a 23.974591,23.019501 0 0 0 15.93775,-0.49268 l 0.12302,-0.0541 0.0643,-0.11455 a 12.166333,11.681655 0 0 0 -2.80293,-14.36042 86.177183,82.744091 0 0 0 -35.18819,-17.29839 l -7.37806,-1.73815 -9.44935,-35.52353 z"
     fill="#3f3d56"
     id="path10"
     style="stroke-width:0.809648" />
  <ellipse
     cx="517.8974"
     cy="253.20204"
     fill="#ffb6b6"
     id="circle10"
     rx="18.533974"
     ry="17.795624"
     style="stroke-width:0.809648" />
  <path
     d="m 499.49614,241.27743 c 1.52418,-4.25759 9.1117,-7.21068 21.41221,-7.6213 12.30051,-0.41061 15.42016,13.50752 15.42016,13.50752 8.21152,6.39583 -8.76827,23.51907 -9.58973,22.90237 l 0.36934,-3.21712 c 0.61168,-5.32877 3.21049,-9.48659 -0.0946,-15.04009 l -3.17372,0.035 q -6.1483,1.13518 -12.29661,2.27035 l 4.85264,-4.10239 -0.13684,-0.20329 a 18.778277,18.030196 0 0 1 -6.62395,1.93113 c -2.60815,0.1472 -5.45954,-0.84945 -6.7088,-3.05269 a 5.3423909,5.1295628 0 0 1 -0.59938,-1.95172 c -3.51707,1.34921 -5.12537,5.51233 -5.12537,5.51233 0,0 0.77048,-6.71251 2.29466,-10.97009 z"
     fill="#2f2e41"
     id="path11"
     style="stroke-width:0.809648" />
  <path
     d="m 138.17677,242.34503 a 9.9280056,9.5324976 0 0 0 -0.81086,-0.87164 c 0.0705,-0.0931 0.14104,-0.19461 0.21156,-0.28768 z"
     fill="#2f2e41"
     id="path12"
     style="stroke-width:0.809648" />
  <path
     d="m 141.78136,313.91831 c -3.03178,5.17044 -9.08654,8.05604 -15.08838,9.46921 a 37.701631,36.199689 0 0 1 -20.50857,-0.38076 c -0.84605,-0.26233 -1.69214,-0.56701 -2.51177,-0.90546 a 21.641251,20.779115 0 0 0 0.93421,-3.08872 22.063047,21.184108 0 0 0 0.45831,-4.32418 14.217492,13.651101 0 0 1 -2.56471,3.39335 12.968075,12.451458 0 0 1 -2.688042,2.0732 26.39707,25.345474 0 0 1 -7.799754,-6.95591 c 0.132162,-0.31309 0.264407,-0.62619 0.387787,-0.93929 a 35.159822,33.759139 0 0 0 1.515857,-5.02655 35.797582,34.371492 0 0 0 0.749166,-7.03209 23.012692,22.095922 0 0 1 -4.17755,5.51732 18.731022,17.984823 0 0 1 -1.603972,1.464 21.088672,20.24855 0 0 1 1.269066,-15.57895 c 3.490083,-6.19434 10.258702,-9.87537 16.287022,-13.87798 6.03709,-4.00265 12.07423,-9.41844 12.58537,-16.45053 0.34373,-4.74728 -1.9477,-9.50308 -1.03114,-14.17419 a 11.405888,10.951504 0 0 1 19.37162,-5.62739 c -3.41956,4.65422 -6.82149,9.46922 -8.20518,15.00348 -1.41011,5.63586 -0.25557,12.24483 4.37142,15.97663 1.58638,1.28627 3.53414,2.2002 4.7592,3.80799 1.63044,2.13249 1.63927,4.97577 1.90366,7.59909 0.52877,5.10268 2.26502,10.01075 3.19922,15.06268 0.94304,5.04354 0.99591,10.51856 -1.61284,14.99505 z"
     fill="#2f2e41"
     id="path13"
     style="stroke-width:0.809648" />
  <polygon
     points="29.254,585.716 62.898,551.747 48.53,540.646 19.519,578.195 "
     fill="#a0616a"
     id="polygon13"
     transform="matrix(0.8262741,0,0,0.79335732,63.503503,65.052756)" />
  <path
     d="m 79.973749,517.93735 13.301361,8.70472 -4.209363,5.2306 5.63742,16.98471 a 4.3002775,4.1289647 0 0 1 -6.726598,4.52134 l -15.137606,-11.23076 1.554511,-7.10967 -5.182466,4.41804 -5.70748,-4.23447 z"
     fill="#2f2e41"
     id="path14"
     style="stroke-width:0.809648" />
  <path
     d="m 120.44003,257.37927 a 19.199379,18.434522 0 1 0 33.02293,-12.78624 l -0.0922,-0.0884 c -0.1536,-0.15491 -0.30721,-0.30974 -0.4685,-0.45726 a 0.00751909,0.00721955 0 0 1 -0.008,-0.007 c -0.19968,-0.17695 -0.39936,-0.35392 -0.60673,-0.52351 -3.37906,-2.84627 -8.12838,-5.93567 -12.9743,-5.93567 -10.60573,0 -18.87361,9.6152 -18.87361,19.79847 z"
     fill="#2f2e41"
     id="path15"
     style="stroke-width:0.809648" />
  <path
     d="m 229.87359,247.91243 a 7.0327246,6.7525577 0 0 1 -7.61577,7.33062 l -47.54252,41.21585 -8.18151,-12.40689 49.30538,-36.61255 a 7.0708158,6.7891315 0 0 1 14.03443,0.47294 z"
     fill="#a0616a"
     id="path16"
     style="stroke-width:0.809648" />
  <path
     d="m 154.39638,308.89947 c 0,0 1.76891,3.13693 7.81132,-1.70678 4.83742,-3.87775 28.01307,-20.71249 33.00589,-27.61099 a 5.5247909,5.3046965 0 0 0 6.5046,-1.81347 l -13.67998,-11.5034 c -4.09307,0.45241 -4.00534,3.0925 -3.57908,4.59141 l -10.31904,4.48901 -26.64699,16.3509 5.58271,14.95763 z"
     fill="#a05cf4"
     id="path17"
     style="stroke-width:0.809648" />
  <polygon
     points="77.555,349.532 76.531,370.716 121.615,373.194 120.215,340.612 115.845,333.432 78.761,343.789 "
     fill="#a0616a"
     id="polygon17"
     transform="matrix(0.8262741,0,0,0.79335732,63.503503,65.052756)" />
  <ellipse
     cx="144.36957"
     cy="261.6445"
     fill="#a0616a"
     id="circle17"
     rx="16.099504"
     ry="15.458139"
     style="stroke-width:0.809648" />
  <path
     d="m 115.78681,318.66109 -0.099,-12.84943 a 21.298173,20.449705 0 0 1 16.49385,-19.93231 l 0.0607,-0.0137 3.18348,-4.11851 12.93391,1.24229 2.37064,4.65199 9.37207,5.35825 3.60839,11.13766 a 13.717885,13.171398 0 0 1 5.9278,8.82121 c 1.22509,7.5135 -4.25385,15.03133 -4.90559,15.89332 l -1.67919,9.08045 -36.5297,6.18863 -0.29664,0.036 z"
     fill="#a05cf4"
     id="path18"
     style="stroke-width:0.809648" />
  <path
     d="m 164.07024,258.88863 a 54.887827,52.701228 0 0 1 -5.83446,3.08867 33.573029,32.23556 0 0 1 -6.36318,2.20871 21.992863,21.11672 0 0 0 -2.29144,-3.74875 14.198777,13.633132 0 0 1 0.0176,4.18874 22.728619,21.823165 0 0 1 -10.84917,-0.85463 l -3.03178,-4.88271 -0.22916,5.44966 c -2.51176,0.44005 -5.01477,0.85469 -7.52653,1.28627 -0.14981,0.0169 -0.29962,0.0508 -0.44067,0.0762 -1.56,-6.75283 0.65218,-14.19114 5.57002,-18.69299 a 17.719448,17.013548 0 0 1 18.6137,-3.46953 c 0.39661,0.15233 0.80198,0.32156 1.18977,0.49929 a 0.00864283,0.00829852 0 0 0 0.009,0.008 c 0.22916,0.10995 0.42305,0.37228 0.67864,0.34692 10.99898,-1.17632 11.35154,7.01508 10.48785,14.4957 z"
     fill="#2f2e41"
     id="path19"
     style="stroke-width:0.809648" />
  <polygon
     points="99.047,560.572 132.623,526.535 118.233,515.464 89.297,553.071 "
     fill="#a0616a"
     id="polygon19"
     transform="matrix(0.8262741,0,0,0.79335732,63.503503,65.052756)" />
  <path
     d="m 138.34773,498.54362 13.31962,8.6789 -4.19835,5.23876 5.67313,16.97374 a 4.3002775,4.1289647 0 0 1 -6.71708,4.53434 l -15.1612,-11.20141 1.53956,-7.11267 -5.17316,4.42808 -5.71638,-4.22339 z"
     fill="#2f2e41"
     id="path20"
     style="stroke-width:0.809648" />
  <path
     d="m 111.14538,470.87829 -3.8e-4,-0.10081 3.81813,-6.31743 -3.89875,-8.22352 -0.11699,-21.12768 0.632,-3.17166 a 27.789011,26.681963 0 0 0 -0.72051,-12.81945 v 0 l -0.0712,-12.86037 c -0.13698,-3.22164 5.06092,-6.05511 3.84878,-8.74091 -11.4573,-25.38664 11.69969,-44.75315 11.85611,-44.90858 l 0.47323,-0.47239 2.56755,1.86721 2.44379,0.003 32.97809,5.76976 0.23812,0.4263 c 1.29708,2.336 3.80034,10.38782 3.94884,14.03152 1.64357,1.82689 20.36518,22.62765 22.02941,24.07289 11.24626,9.77029 17.68518,25.94155 20.52234,34.71162 a 14.504986,13.927142 0 0 1 -2.48392,12.80696 l -42.57513,44.77606 -11.4573,-10.15464 23.03699,-40.30661 -1.6612,-4.08944 a 13.090661,12.56916 0 0 1 -7.63212,-4.25722 l -4.66485,-5.31649 a 10.352454,9.9400374 0 0 1 -2.3628,-5.17031 l -2.82891,-0.32692 -10.1333,-10.2153 -7.03027,61.12987 -1.91132,4.82899 -33.28539,37.57225 -14.101294,-8.46221 z"
     fill="#2f2e41"
     id="path21"
     style="stroke-width:0.809648" />
  <path
     d="m 106.06214,208.39381 a 7.0327163,6.7525498 0 0 0 2.16765,10.14287 l -10.584054,30.0857 8.642474,31.88291 13.93604,-6.0493 -8.59963,-24.04838 6.43389,-35.00428 a 7.0708158,6.7891315 0 0 0 -11.99637,-7.00953 z"
     fill="#a0616a"
     id="path22"
     style="stroke-width:0.809648" />
  <path
     d="m 118.81853,306.77502 c 0,0 -3.27317,1.6876 -5.54955,-5.54731 -1.82241,-5.7921 -14.224742,-37.24041 -14.448233,-45.63832 a 5.5248074,5.3047123 0 0 1 -4.39672,-4.94702 l 18.012933,-2.39342 c 3.16084,2.53752 1.57663,4.69702 0.36268,5.72445 l 6.13508,9.97797 12.82325,26.9372 -10.55089,14.7069 z"
     fill="#a05cf4"
     id="path23"
     style="stroke-width:0.809648" />
  <path
     d="m 127.95849,265.62314 a 32.748349,31.443734 0 0 1 25.21268,-21.0375 c 0.023,-0.007 0.0998,-0.0368 0.19967,-0.081 0.0614,-0.0369 0.13823,-0.0738 0.21502,-0.11063 -0.23039,-0.12535 -0.45308,-0.23592 -0.68351,-0.34663 a 0.00751909,0.00721955 0 0 1 -0.008,-0.007 c -0.19967,-0.17695 -0.39936,-0.35392 -0.60673,-0.52351 l -0.58366,0.0222 c 0,0 -20.51262,-3.11911 -23.74582,22.08452 z"
     fill="#fd6584"
     id="path24"
     style="stroke-width:0.809648" />
  <ellipse
     cx="-157.75035"
     cy="564.21149"
     rx="7.1172466"
     ry="8.3220606"
     transform="matrix(0.56954393,-0.82196089,0.84272993,0.53833657,0,0)"
     fill="#f2f2f2"
     id="ellipse24"
     style="stroke-width:0.809933" />
  <ellipse
     cx="-80.535782"
     cy="458.10144"
     rx="7.1172466"
     ry="8.3220606"
     transform="matrix(0.56954393,-0.82196089,0.84272993,0.53833657,0,0)"
     fill="#f2f2f2"
     id="ellipse25"
     style="stroke-width:0.809933" />
  <ellipse
     cx="-134.71584"
     cy="720.22687"
     rx="7.1172466"
     ry="8.3220606"
     transform="matrix(0.56954393,-0.82196089,0.84272993,0.53833657,0,0)"
     fill="#f2f2f2"
     id="ellipse26"
     style="stroke-width:0.809933" />
  <ellipse
     cx="-14.531204"
     cy="183.08221"
     rx="7.1172466"
     ry="8.3220606"
     transform="matrix(0.56954393,-0.82196089,0.84272993,0.53833657,0,0)"
     fill="#f2f2f2"
     id="ellipse27"
     style="stroke-width:0.809933" />
  <ellipse
     cx="114.17592"
     cy="308.8605"
     rx="7.1172466"
     ry="8.3220606"
     transform="matrix(0.56954393,-0.82196089,0.84272993,0.53833657,0,0)"
     fill="#f2f2f2"
     id="ellipse28"
     style="stroke-width:0.809933" />
  <ellipse
     cx="-200.97729"
     cy="421.15628"
     rx="7.1172466"
     ry="8.3220606"
     transform="matrix(0.56954393,-0.82196089,0.84272993,0.53833657,0,0)"
     fill="#e6e6e6"
     id="ellipse29"
     style="stroke-width:0.809933" />
  <path
     d="M 180.01522,250.8268 A 18.376543,17.644465 0 0 1 161.80008,235.09407 L 151.31027,141.5519 a 18.368197,17.636452 0 0 1 16.27816,-19.40162 L 479.05584,89.949579 a 18.36828,17.636532 0 0 1 20.20741,15.629301 l 10.48981,93.54178 a 18.3689,17.637127 0 0 1 -16.27857,19.40239 l -0.0444,-0.39435 0.0444,0.39435 -311.46742,32.2007 a 18.586028,17.845605 0 0 1 -1.99185,0.10305 z"
     fill="#e6e6e6"
     id="path30"
     style="stroke-width:0.809648" />
  <path
     d="m 475.62527,94.292131 a 16.403425,15.749952 0 0 0 -1.75179,0.09064 L 173.63581,125.42248 a 16.078633,15.438099 0 0 0 -14.26493,17.00217 l 5.30381,47.2958 a 60.988407,58.558775 0 0 0 67.16745,51.95405 l 211.11707,-21.82622 a 60.803437,58.381174 0 0 0 53.94504,-64.29567 l -5.32358,-47.47322 a 16.082103,15.441431 0 0 0 -15.9554,-13.787291 z"
     fill="#ffffff"
     id="path31"
     style="stroke-width:0.809648" />
  <path
     d="m 412.39965,143.5135 -167.80673,17.34859 a 3.6722104,3.5259183 0 1 1 -0.78626,-7.01131 L 411.61339,136.5022 a 3.67221,3.5259179 0 1 1 0.78626,7.0113 z"
     fill="#a05cf4"
     id="path32"
     style="stroke-width:0.809648" />
  <path
     d="m 414.81272,165.03164 -167.80674,17.34858 a 3.6722108,3.5259187 0 0 1 -0.78625,-7.01131 l 167.80673,-17.34858 a 3.6722108,3.5259187 0 0 1 0.78626,7.01131 z"
     fill="#a05cf4"
     id="path33"
     style="stroke-width:0.809648" />
  <path
     d="m 268.97441,201.87609 -19.55542,2.02173 a 3.6722108,3.5259187 0 0 1 -0.78626,-7.01131 l 19.55543,-2.02172 a 3.67221,3.5259179 0 1 1 0.78625,7.0113 z"
     fill="#a05cf4"
     id="path34"
     style="stroke-width:0.809648" />
  <ellipse
     cx="173.4127"
     cy="139.15207"
     fill="#3f3d56"
     id="circle34"
     rx="6.6101928"
     ry="6.3468585"
     style="stroke-width:0.809648" />
  <ellipse
     cx="469.21884"
     cy="107.41778"
     fill="#3f3d56"
     id="circle35"
     rx="6.6101928"
     ry="6.3468585"
     style="stroke-width:0.809648" />
  <path
     d="m 379.8517,244.0631 a 5.4428162,5.2259875 0 0 1 -1.8477,-4.12205 72.430642,69.545179 0 0 0 -4.65177,-27.03496 5.442808,5.2259796 0 0 1 0.36869,-4.47364 5.3201476,5.1082057 0 0 1 3.67588,-2.48305 c 7.68319,-4.45171 15.55951,-5.70151 23.41505,-3.7139 a 5.3828287,5.1683897 0 0 1 5.91885,3.56302 119.7957,115.02332 0 0 1 5.25903,30.5642 5.3825065,5.1680803 0 0 1 -4.4998,5.21651 l -23.24581,3.68745 a 5.3191808,5.1072774 0 0 1 -4.39242,-1.20358 z"
     fill="#a05cf4"
     id="path35"
     style="stroke-width:0.809648" />
  <path
     d="m 381.9164,217.20343 19.56534,-3.10361 a 1.2394112,1.190036 0 1 0 -0.40404,-2.34823 l -19.56535,3.10361 a 1.2394112,1.190036 0 0 0 0.40405,2.34823 z"
     fill="#ffffff"
     id="path36"
     style="stroke-width:0.809648" />
  <path
     d="m 383.53259,226.5964 19.56535,-3.10362 a 1.2394119,1.1900367 0 0 0 -0.40405,-2.34824 l -19.56535,3.10361 a 1.2394112,1.190036 0 1 0 0.40405,2.34824 z"
     fill="#ffffff"
     id="path37"
     style="stroke-width:0.809648" />
  <path
     d="m 385.14879,235.98937 19.56535,-3.10362 a 1.2394119,1.1900367 0 0 0 -0.40405,-2.34824 l -19.56535,3.10361 a 1.2394159,1.1900406 0 1 0 0.40405,2.34825 z"
     fill="#ffffff"
     id="path38"
     style="stroke-width:0.809648" />
</svg>
