<?xml version="1.0" encoding="UTF-8" standalone="no"?>
<svg
   data-name="Layer 1"
   width="1191.52346"
   height="764.2153"
   viewBox="0 0 1191.52346 764.2153"
   version="1.1"
   id="svg59"
   sodipodi:docname="networking.svg"
   inkscape:version="1.3.2 (091e20e, 2023-11-25, custom)"
   xmlns:inkscape="http://www.inkscape.org/namespaces/inkscape"
   xmlns:sodipodi="http://sodipodi.sourceforge.net/DTD/sodipodi-0.dtd"
   xmlns="http://www.w3.org/2000/svg"
   xmlns:svg="http://www.w3.org/2000/svg">
  <defs
     id="defs59" />
  <sodipodi:namedview
     id="namedview59"
     pagecolor="#ffffff"
     bordercolor="#000000"
     borderopacity="0.25"
     inkscape:showpageshadow="2"
     inkscape:pageopacity="0.0"
     inkscape:pagecheckerboard="0"
     inkscape:deskcolor="#d1d1d1"
     inkscape:zoom="0.26595909"
     inkscape:cx="163.55899"
     inkscape:cy="-88.359453"
     inkscape:window-width="1920"
     inkscape:window-height="1009"
     inkscape:window-x="1912"
     inkscape:window-y="-8"
     inkscape:window-maximized="1"
     inkscape:current-layer="svg59" />
  <title
     id="title1">collab</title>
  <path
     d="m 463.07958,244.64624 c -171.60777,131.62555 -85.14654,188.24659 -190.18005,188.24659 -105.0335,0 -190.180042,-84.2809 -190.180042,-188.24659 0,-103.96568 85.146542,-188.246589 190.180042,-188.246589 105.03351,0 361.78783,56.621039 190.18005,188.246589 z"
     fill="#f2f2f2"
     id="path1"
     style="stroke-width:0.856765" />
  <path
     d="m 503.41313,438.99316 c 0,21.87647 -81.4398,71.60148 -188.80789,71.60148 -107.36808,0 -200.43345,-49.72501 -200.43345,-71.60148 0,-5.47177 9.11608,1.32334 18.94537,-3.40959 28.61574,-13.80265 96.84908,-3.62859 174.29329,-4.19614 q 3.58379,-0.032 7.19479,-0.0321 c 107.36809,0 188.80789,-14.23863 188.80789,7.63783 z"
     fill="#3f3d56"
     id="path2"
     style="stroke-width:0.856765" />
  <path
     d="m 503.41313,438.99316 c 0,21.87647 -81.4398,71.60148 -188.80789,71.60148 -107.36808,0 -200.43345,-49.72501 -200.43345,-71.60148 0,-5.47177 9.11608,1.32334 18.94537,-3.40959 28.61574,-13.80265 96.84908,-3.62859 174.29329,-4.19614 q 3.58379,-0.032 7.19479,-0.0321 c 107.36809,0 188.80789,-14.23863 188.80789,7.63783 z"
     opacity="0.1"
     id="path3"
     style="stroke-width:0.856765" />
  <path
     d="m 502.98255,438.58384 c 0,21.87647 -87.03729,39.61966 -194.40538,39.61966 -107.36809,0 -194.40538,-17.74319 -194.40538,-39.61966 0,-5.47177 5.43243,-10.67592 15.26172,-15.40885 28.61574,-13.80264 94.5047,-23.61116 171.94886,-24.17871 q 3.5838,-0.0321 7.1948,-0.0321 c 107.36809,0 194.40538,17.74317 194.40538,39.61965 z"
     fill="#3f3d56"
     id="path4"
     style="stroke-width:0.856765" />
  <path
     d="m 303.69445,399.80838 a 104.62675,103.56307 0 0 1 -162.99912,19.24716 c 27.12631,-10.98742 89.58579,-18.79536 162.99912,-19.24716 z"
     opacity="0.1"
     id="path5"
     style="stroke-width:0.856765" />
  <ellipse
     cx="216.64903"
     cy="329.88617"
     rx="96.449181"
     ry="102.28783"
     fill="#3f3d56"
     id="ellipse5"
     style="stroke-width:0.856765" />
  <path
     d="m 321.57899,171.39993 v 23.97854 l -12.43978,14.25752 c 0,0 -5.2378,-1.94421 -5.2378,-14.90558 l -1.96417,-18.79399 z"
     fill="#ffb9b9"
     id="path6"
     style="stroke-width:0.856765" />
  <path
     d="m 309.13921,195.37847 c 0,0 20.29647,-13.60939 20.9512,-18.14591 0.65473,-4.53653 29.46264,-25.27469 24.87958,-12.31331 -4.58305,12.96138 -18.98702,18.79399 -18.98702,18.79399 0,0 -11.13033,29.81116 -20.9512,29.16311 -9.82086,-0.64805 -9.82091,-12.96139 -5.89256,-17.49788 z"
     fill="#ffb9b9"
     id="path7"
     style="stroke-width:0.856765" />
  <polygon
     points="246.96,347.795 259.125,344.753 259.125,334.109 249.241,334.109 "
     fill="#ffb9b9"
     id="polygon7"
     transform="matrix(0.8611534,0,0,0.85239853,82.719488,56.399651)" />
  <path
     d="m 299.31833,347.67463 c 0,0 12.10759,-7.10018 12.60105,-3.87415 0.49345,3.22602 5.73126,15.53935 8.35015,16.83549 2.6189,1.29614 5.89253,15.55365 0,14.90558 -4.56382,-0.50194 -21.30284,-9.16773 -28.61972,-13.05029 a 3.9979477,3.9573028 0 0 1 -1.71905,-5.1715 8.2487904,8.1649295 0 0 0 0.87616,-2.51644 c 0,-1.29607 8.51141,-7.12869 8.51141,-7.12869 z"
     fill="#2f2e41"
     id="path8"
     style="stroke-width:0.856765" />
  <path
     d="m 293.42581,216.11667 c 0,0 47.79488,22.03434 43.21182,38.88413 -4.58306,16.84979 -21.60588,88.13735 -21.60588,88.13735 0,0 -18.98703,4.53646 -20.29647,0 -1.30945,-4.53647 12.43977,-75.17597 11.13032,-77.76825 -1.30946,-2.59228 -25.53428,-19.44206 -25.53428,-19.44206 l -49.7591,-20.73824 20.95119,-19.44202 z"
     fill="#2f2e41"
     id="path9"
     style="stroke-width:0.856765" />
  <polygon
     points="293.338,356.158 281.173,361.48 273.57,347.795 286.495,338.671 "
     fill="#ffb9b9"
     id="polygon9"
     transform="matrix(0.8611534,0,0,0.85239853,82.719488,56.399651)" />
  <path
     d="m 294.08054,109.8334 c 0,0 -5.89253,7.77683 -1.30945,11.66525 4.58307,3.88842 1.30945,18.14592 1.30945,18.14592 l -5.89253,16.20172 -23.57009,-4.53647 v -26.57083 l 1.30945,-12.96138 c 0,0 11.78505,-11.01716 13.09449,-19.442056 1.30944,-8.424894 15.05868,17.497846 15.05868,17.497846 z"
     fill="#ffb9b9"
     id="path10"
     style="stroke-width:0.856765" />
  <path
     d="m 294.08054,109.8334 c 0,0 -5.89253,7.77683 -1.30945,11.66525 4.58307,3.88842 1.30945,18.14592 1.30945,18.14592 l -5.89253,16.20172 -23.57009,-4.53647 v -26.57083 l 1.30945,-12.96138 c 0,0 11.78505,-11.01716 13.09449,-19.442056 1.30944,-8.424894 15.05868,17.497846 15.05868,17.497846 z"
     opacity="0.1"
     id="path11"
     style="stroke-width:0.856765" />
  <path
     d="m 254.79704,210.93213 c 0,0 30.77208,33.69958 30.77208,34.99571 0,1.29613 16.36812,27.86695 16.36812,27.86695 l 32.08152,70.6395 c 0,0 -12.43977,16.84978 -17.67758,15.55364 -5.2378,-1.29614 -42.55711,-76.47208 -42.55711,-76.47208 0,0 -6.54726,-16.84979 -24.22482,-20.7382 -17.67757,-3.88841 -31.42681,-17.49786 -24.87959,-33.0515 6.54722,-15.55365 30.11738,-18.79402 30.11738,-18.79402 z"
     fill="#2f2e41"
     id="path12"
     style="stroke-width:0.856765" />
  <ellipse
     cx="294.08054"
     cy="93.631683"
     fill="#ffb9b9"
     id="circle12"
     rx="20.951199"
     ry="20.738199"
     style="stroke-width:0.856765" />
  <path
     d="m 293.42581,127.33126 c 0,0 -2.61889,14.90558 -5.2378,16.20172 -2.6189,1.29614 -4.58306,5.83262 -10.47559,-0.64807 -5.89254,-6.48069 -11.13033,-19.44206 -11.13033,-19.44206 l -20.29648,24.62665 -1.96417,68.04717 c 0,0 22.91537,-5.83261 30.11735,0 7.20197,5.83262 22.91537,5.18456 22.91537,5.18456 l -3.27362,-12.96138 2.6189,-22.03433 -0.65473,-20.09013 -0.65473,-14.25752 z"
     fill="#f2f2f2"
     id="path13"
     style="stroke-width:0.856765" />
  <path
     d="m 291.11933,116.42298 c 0,0 8.85373,4.4276 9.50846,7.01987 0.65472,2.59227 12.43977,7.77682 12.43977,7.77682 0,0 4.58306,4.53647 4.58306,7.12876 0,2.59229 -15.7134,32.40343 -15.7134,32.40343 0,0 -3.27362,20.09018 -1.96418,23.97855 1.30945,3.88837 -2.61889,18.79399 -2.61889,18.79399 l 7.85669,9.07293 h -7.20197 c 0,0 -7.8567,-3.88841 -7.8567,-5.83262 0,-1.94421 1.30945,-15.55365 1.96417,-21.38627 0.65473,-5.83262 0.65473,-26.57081 -0.65472,-33.69958 -1.30945,-7.12876 -0.65472,-25.92275 -0.65472,-30.45923 0,-4.53648 0.31243,-14.79665 0.31243,-14.79665 z"
     fill="#3f3d56"
     id="path14"
     style="stroke-width:0.856765" />
  <path
     d="m 270.8378,106.5824 c 0,0 -2.94626,0.65873 -11.45764,3.251 -8.51138,2.59228 -21.60593,6.4807 -26.189,11.66525 a 81.16184,80.336712 0 0 0 -8.51142,12.3133 l 2.6189,46.66095 c 0,0 -5.23781,9.72103 -4.58306,14.90557 0.65474,5.18455 5.89253,5.83263 1.96418,16.84979 -3.92835,11.01717 -11.78506,20.7382 -4.58306,22.03434 7.202,1.29614 26.18899,-3.24034 34.70042,-0.64807 8.51142,2.59227 18.3323,-9.72103 18.3323,-9.72103 0,0 -13.0945,1.29614 -11.13033,-3.88841 1.96417,-5.18456 23.5701,-63.51073 18.98703,-76.47209 -4.58308,-12.96135 -10.14832,-36.9506 -10.14832,-36.9506 z"
     fill="#3f3d56"
     id="path15"
     style="stroke-width:0.856765" />
  <path
     d="m 314.37701,135.10813 3.27363,2.59228 c 0,0 9.16611,32.40343 6.54724,35.64378 -2.61887,3.24034 -23.57009,10.36909 -24.87958,5.83261 -1.30949,-4.53648 15.05871,-44.06867 15.05871,-44.06867 z"
     fill="#3f3d56"
     id="path16"
     style="stroke-width:0.856765" />
  <path
     d="m 217.47771,157.7905 c 0,0 -9.82087,27.86695 -9.82087,35.64377 0,7.77683 1.30944,53.14164 1.30944,53.14164 0,0 0.65473,19.44206 14.40396,11.66523 13.74922,-7.77682 0,-12.96137 0,-12.96137 0,0 0.65472,-51.19743 5.89252,-58.32618 5.23779,-7.12875 7.20198,-17.49786 7.20198,-17.49786 z"
     fill="#ffb9b9"
     id="path17"
     style="stroke-width:0.856765" />
  <path
     d="m 324.85261,359.33986 c 0,0 9.82088,-5.18454 11.78505,-1.29613 1.96417,3.88841 12.43977,25.27468 11.13033,27.86696 -1.30945,2.59227 -8.51143,12.96137 -17.02285,10.36909 -8.51143,-2.59228 -9.16612,-16.20172 -9.16612,-16.20172 l -0.65473,-15.55364 z"
     fill="#2f2e41"
     id="path18"
     style="stroke-width:0.856765" />
  <path
     d="m 298.1831,88.622336 c -1.44321,0.672431 -3.15531,1.074201 -4.06218,2.373077 -0.67198,0.962443 -0.73878,2.213151 -1.2291,3.27766 a 4.68247,4.6348659 0 0 1 -6.024,2.180589 5.1946754,5.141864 0 0 0 -2.11838,-3.184416 3.0855126,3.0541439 0 0 0 -3.66307,0.199052 c -1.34948,1.273483 -0.87186,3.494178 -1.50154,5.231255 a 11.15458,11.041178 0 0 1 -2.39931,3.256567 c -1.43303,1.63661 -2.57468,3.55605 -4.30041,4.88746 -1.72573,1.33141 -4.3428,1.90843 -6.0573,0.56286 -1.44166,-1.13145 -1.74048,-3.21886 -1.3904,-5.00672 0.35007,-1.78785 1.21831,-3.434236 1.70797,-5.189682 1.59108,-5.704072 -0.94555,-11.793863 -0.1607,-17.660147 1.00561,-7.516782 7.46012,-13.454258 14.66447,-16.031016 a 17.155898,16.981484 0 0 1 9.46751,-0.992891 c 3.29472,0.728196 6.10935,2.804451 9.26485,3.99191 3.37446,1.269852 7.04386,1.491587 10.57519,2.233958 3.53133,0.742371 7.16534,2.177725 9.21457,5.119625 1.42928,2.051902 1.92056,4.600164 3.10507,6.799523 a 12.323966,12.198675 0 0 0 6.24232,5.535681 l -3.73294,-0.210602 a 11.002957,10.891096 0 0 0 2.97429,4.296864 7.9823581,7.9012059 0 0 1 -5.16771,-0.676157 5.6174673,5.5603576 0 0 0 1.92669,3.986037 c -2.87249,-0.08565 -5.90165,-0.216696 -8.32884,-1.739745 -1.1889,-0.746011 -2.15842,-1.785059 -3.2772,-2.630681 -2.3847,-1.802465 -5.34326,-2.658026 -8.22735,-3.477343 -1.51443,-0.430214 -3.33728,-1.028444 -4.70688,-0.06436 -1.14059,0.802875 -1.32066,2.244417 -2.79562,2.931638 z"
     fill="#2f2e41"
     id="path19"
     style="stroke-width:0.856765" />
  <path
     d="m 234.50057,126.03512 -9.82087,7.77683 -13.0945,29.81116 c 0,0 18.33229,14.25752 22.91537,12.31331 4.58307,-1.94422 12.43978,-36.29183 12.43978,-36.29183 z"
     fill="#3f3d56"
     id="path20"
     style="stroke-width:0.856765" />
  <path
     d="m 381.79825,161.60678 -41.32428,22.4681 a 1.9680283,1.9480205 0 0 1 -2.89358,-0.8449 L 327.45717,162.2851 a 2.6413211,2.6144682 0 0 1 1.35387,-3.13964 l 34.30954,-17.50486 a 2.0031978,1.9828324 0 0 1 2.62522,0.49676 l 17.13796,15.98162 a 2.5450442,2.5191701 0 0 1 -1.08551,3.4878 z"
     fill="#2f2e41"
     id="path21"
     style="stroke-width:0.856765" />
  <polygon
     points="299.111,145.508 287.139,123.932 325.732,102.945 344.098,119.795 "
     fill="#a05cf4"
     id="polygon21"
     transform="matrix(0.8611534,0,0,0.85239853,82.719488,56.399651)" />
  <ellipse
     cx="103.34724"
     cy="362.57248"
     rx="0.56689644"
     ry="0.48422733"
     transform="matrix(0.64452117,-0.76458647,0.77102716,0.63680226,0,0)"
     fill="#f2f2f2"
     id="ellipse21"
     style="stroke-width:0.856786" />
  <ellipse
     cx="97.99881"
     cy="385.69901"
     rx="0.37792525"
     ry="0.32281536"
     transform="matrix(0.64452117,-0.76458647,0.77102716,0.63680226,0,0)"
     fill="#f2f2f2"
     id="ellipse22"
     style="stroke-width:0.856786" />
  <path
     d="m 166.2845,431.183 c 0,14.84608 -8.9152,20.02943 -19.91438,20.02943 -0.25478,0 -0.50955,-0.004 -0.76248,-0.009 -0.50955,-0.0109 -1.01543,-0.0345 -1.51397,-0.0689 -9.92695,-0.69486 -17.63792,-6.14494 -17.63792,-19.95141 0,-14.28547 18.44256,-32.31376 19.83189,-33.65087 l 0.002,-0.002 c 0.0532,-0.0526 0.0806,-0.078 0.0806,-0.078 0,0 19.91438,18.88643 19.91438,33.73069 z"
     fill="#a05cf4"
     id="path22"
     style="stroke-width:0.856765" />
  <path
     d="m 145.64429,448.94096 7.28392,-10.07279 -7.30225,11.17946 -0.0183,1.15568 c -0.50955,-0.0109 -1.01543,-0.0344 -1.51397,-0.0689 l 0.78446,-14.85154 -0.005,-0.1161 0.0128,-0.02 0.0751,-1.40423 -7.32057,-11.20663 7.34257,10.15441 0.0183,0.29754 0.59202,-11.22119 -6.26666,-11.58043 6.34364,9.61194 0.61769,-23.26606 0.002,-0.0798 v 0.078 l -0.10264,18.34578 6.23917,-7.27336 -6.26483,8.85359 -0.16496,10.04736 5.82677,-9.64279 -5.85059,11.12141 -0.0917,5.58611 8.45514,-13.42187 -8.48813,15.37038 z"
     fill="#3f3d56"
     id="path23"
     style="stroke-width:0.856765" />
  <path
     d="m 444.43705,400.49666 c 0,14.84608 -8.9152,20.02942 -19.91438,20.02942 -0.25478,0 -0.50955,-0.004 -0.76249,-0.009 -0.50954,-0.0109 -1.01542,-0.0345 -1.51396,-0.0689 -9.92695,-0.69487 -17.63792,-6.14494 -17.63792,-19.95141 0,-14.28548 18.44256,-32.31377 19.83189,-33.65087 l 0.002,-0.002 c 0.0532,-0.0526 0.0806,-0.078 0.0806,-0.078 0,0 19.91438,18.88643 19.91438,33.7307 z"
     fill="#a05cf4"
     id="path24"
     style="stroke-width:0.856765" />
  <path
     d="m 423.79684,418.25462 7.28392,-10.0728 -7.30225,11.17946 -0.0183,1.15569 c -0.50954,-0.0109 -1.01542,-0.0345 -1.51396,-0.0689 l 0.78451,-14.85153 -0.005,-0.11611 0.0128,-0.02 0.0752,-1.40424 -7.32062,-11.20662 7.34257,10.15441 0.0183,0.29754 0.59202,-11.2212 -6.26666,-11.58043 6.34364,9.61194 0.61769,-23.26605 0.002,-0.0798 v 0.078 l -0.10264,18.34578 6.23917,-7.27336 -6.26483,8.85359 -0.16496,10.04737 5.82677,-9.6428 -5.8506,11.12141 -0.0917,5.58611 8.45514,-13.42187 -8.48813,15.37041 z"
     fill="#3f3d56"
     id="path25"
     style="stroke-width:0.856765" />
  <rect
     x="526.01837"
     y="279.27771"
     width="331.07129"
     height="180.43816"
     fill="#f2f2f2"
     id="rect25"
     style="stroke-width:0.856765" />
  <ellipse
     cx="581.50012"
     cy="344.47876"
     fill="#a05cf4"
     opacity="0.3"
     id="circle25"
     rx="27.286093"
     ry="27.00869"
     style="stroke-width:0.856765" />
  <ellipse
     cx="691.55408"
     cy="344.47876"
     fill="#a05cf4"
     opacity="0.3"
     id="circle26"
     rx="27.286093"
     ry="27.00869"
     style="stroke-width:0.856765" />
  <ellipse
     cx="801.60797"
     cy="344.47876"
     fill="#a05cf4"
     opacity="0.3"
     id="circle27"
     rx="27.286093"
     ry="27.00869"
     style="stroke-width:0.856765" />
  <rect
     x="543.75439"
     y="391.74396"
     width="74.582001"
     height="7.2023153"
     fill="#a05cf4"
     opacity="0.3"
     id="rect27"
     style="stroke-width:0.856765" />
  <rect
     x="654.71783"
     y="391.74396"
     width="74.582001"
     height="7.2023153"
     fill="#a05cf4"
     opacity="0.3"
     id="rect28"
     style="stroke-width:0.856765" />
  <rect
     x="765.68134"
     y="391.74396"
     width="74.582001"
     height="7.2023153"
     fill="#a05cf4"
     id="rect29"
     style="stroke-width:0.856765" />
  <path
     d="m 1108.804,632.1913 c 0,23.10558 -86.0155,75.62435 -199.41593,75.62435 -113.40045,0 -211.69463,-52.51877 -211.69463,-75.62435 0,-5.77921 9.62826,1.39768 20.00976,-3.60116 30.22349,-14.57814 102.29046,-3.83245 184.0858,-4.4319 q 3.78515,-0.0339 7.59903,-0.0339 c 113.40057,0 199.41597,-15.03862 199.41597,8.06695 z"
     fill="#3f3d56"
     id="path29"
     style="stroke-width:0.856765" />
  <path
     d="m 1108.804,632.1913 c 0,23.10558 -86.0155,75.62435 -199.41593,75.62435 -113.40045,0 -211.69463,-52.51877 -211.69463,-75.62435 0,-5.77921 9.62826,1.39768 20.00976,-3.60116 30.22349,-14.57814 102.29046,-3.83245 184.0858,-4.4319 q 3.78515,-0.0339 7.59903,-0.0339 c 113.40057,0 199.41597,-15.03862 199.41597,8.06695 z"
     opacity="0.1"
     id="path30"
     style="stroke-width:0.856765" />
  <path
     d="m 1108.3492,631.75898 c 0,23.10558 -91.9274,41.84565 -205.32788,41.84565 -113.40049,0 -205.32788,-18.74007 -205.32788,-41.84565 0,-5.7792 5.73765,-11.27574 16.11918,-16.27458 30.2235,-14.57813 99.81432,-24.93773 181.60966,-25.53718 q 3.78515,-0.0339 7.59904,-0.0339 c 113.40048,0 205.32788,18.74008 205.32788,41.84565 z"
     fill="#3f3d56"
     id="path31"
     style="stroke-width:0.856765" />
  <ellipse
     cx="913.6579"
     cy="539.42316"
     rx="49.151787"
     ry="55.176311"
     fill="#36334a"
     id="ellipse31"
     style="stroke-width:0.856765" />
  <path
     d="m 935.25061,439.58794 -73.86974,2.24982 c 0,0 -75.7815,70.39772 -21.79973,89.52108 0,0 76.91792,3.28344 92.82833,-9.09047 0,2e-5 19.888,-77.61836 2.84114,-82.68043 z m -3.40937,20.81072 -78.9838,5.06208 c 0,0 5.68229,-19.12337 28.41143,-19.12337 22.72915,0 48.29945,-5.06207 50.57237,6.74942 2.27292,11.81149 0,7.31187 0,7.31187 z"
     fill="#3f3d56"
     id="path32"
     style="stroke-width:0.856765" />
  <path
     d="m 1010.825,484.02165 -97.16709,-3.37472 22.72916,-95.05437 c 0,0 90.91663,-6.74943 88.64373,16.3111 -2.273,23.06053 -14.2058,82.11799 -14.2058,82.11799 z"
     fill="#36334a"
     id="path33"
     style="stroke-width:0.856765" />
  <path
     d="m 917.02129,529.45994 c 0,0 -58.48156,10.24444 -79.50603,-20.12797 -21.02446,-30.3724 79.55203,-14.06129 79.55203,-14.06129 l 8.52343,23.06053 z"
     fill="#36334a"
     id="path34"
     style="stroke-width:0.856765" />
  <ellipse
     cx="899.45221"
     cy="631.94647"
     fill="#36334a"
     id="circle34"
     rx="26.706753"
     ry="26.43524"
     style="stroke-width:0.856765" />
  <ellipse
     cx="902.00922"
     cy="631.94647"
     rx="16.762747"
     ry="19.123365"
     fill="#3f3d56"
     id="ellipse34"
     style="stroke-width:0.856765" />
  <path
     d="m 1045.487,382.78031 c 0,0 -22.1609,-12.37394 -23.2974,16.87355 l -18.7515,136.11335 h 7.9552 l 21.5927,-145.67502 c 0,0 10.7963,1.68734 12.501,1.68734 1.7047,0 0,-8.99922 0,-8.99922 z"
     fill="#3f3d56"
     id="path35"
     style="stroke-width:0.856765" />
  <path
     d="m 1067.5687,397.79868 v 0 a 5.3145566,5.2605264 0 0 1 -7.2099,3.42904 l -25.7074,-10.87925 4.6634,-10.16756 25.3361,11.42247 a 5.314548,5.2605179 0 0 1 2.9178,6.1953 z"
     fill="#36334a"
     id="path36"
     style="stroke-width:0.856765" />
  <path
     d="m 911.385,526.20554 c 0,0 -40.91247,-4.49962 -52.27704,34.30956 -11.36457,38.80917 -10.22812,68.61913 -19.88801,66.36931 -9.65988,-2.24981 -30.11608,-10.12413 -30.11608,-10.12413 l 1.70468,11.81149 c 0,0 35.79842,17.99847 41.4807,-1.1249 5.68229,-19.12336 9.09167,-89.42984 41.4807,-87.74249 32.38904,1.68734 38.07133,-1.68735 38.07133,-1.68735 z"
     fill="#3f3d56"
     id="path37"
     style="stroke-width:0.856765" />
  <path
     d="m 833.53766,507.64464 c 0,0 -31.8208,3.93716 -44.32184,26.99769 -12.50104,23.06053 -18.75155,64.68196 -18.75155,64.68196 h 11.93281 c 0,0 6.81874,-82.68042 42.61715,-78.18081 z"
     fill="#3f3d56"
     id="path38"
     style="stroke-width:0.856765" />
  <path
     d="m 811.94497,636.4461 -50.57236,-30.93485 c 0,0 -2.84114,-11.24904 29.5479,-15.74865 0,0 61.23627,21.19856 55.33609,29.16019 -5.90019,7.96163 -25.7882,20.3356 -34.31163,17.52331 z"
     fill="#36334a"
     id="path39"
     style="stroke-width:0.856765" />
  <path
     d="m 905.83622,458.64758 c 1.55765,1.67897 30.21426,28.66638 30.21426,28.66638 0,0 -2.84771,18.8363 -33.50851,21.17392 l -51.10132,3.89595 c 0,0 -9.65881,35.08567 -21.14287,46.2981 -11.48406,11.21242 -6.21385,11.8379 -10.52366,17.30284 -4.3098,5.46493 1.73922,6.92987 -4.80313,7.46076 -6.54235,0.53089 -20.05949,-7.29876 -20.20642,-13.35486 -0.14693,-6.0561 3.66954,-9.52518 5.36575,-11.06699 1.69621,-1.54181 5.99764,-16.28361 8.5766,-19.40153 2.57895,-3.11792 12.34169,-40.61916 12.34169,-40.61916 0,0 9.74481,-18.1423 23.25359,-19.58954 13.50879,-1.44723 28.53841,-7.95105 28.53841,-7.95105"
     fill="#2f2e41"
     id="path40"
     style="stroke-width:0.856765" />
  <path
     d="m 905.83622,458.64758 c 1.55765,1.67897 30.21426,28.66638 30.21426,28.66638 0,0 -2.84771,18.8363 -33.50851,21.17392 l -51.10132,3.89595 c 0,0 -9.65881,35.08567 -21.14287,46.2981 -11.48406,11.21242 -6.21385,11.8379 -10.52366,17.30284 -4.3098,5.46493 1.73922,6.92987 -4.80313,7.46076 -6.54235,0.53089 -20.05949,-7.29876 -20.20642,-13.35486 -0.14693,-6.0561 3.66954,-9.52518 5.36575,-11.06699 1.69621,-1.54181 5.99764,-16.28361 8.5766,-19.40153 2.57895,-3.11792 12.34169,-40.61916 12.34169,-40.61916 0,0 9.74481,-18.1423 23.25359,-19.58954 13.50879,-1.44723 28.53841,-7.95105 28.53841,-7.95105"
     opacity="0.1"
     id="path41"
     style="stroke-width:0.856765" />
  <path
     d="m 856.26731,368.57556 c 0,0 -10.75415,-28.92407 -18.11497,-19.70799 -7.36082,9.21607 11.84402,24.35026 11.84402,24.35026 z"
     fill="#a0616a"
     id="path42"
     style="stroke-width:0.856765" />
  <path
     d="m 912.91729,383.67436 -6.12292,-2.56444 c 0,0 -11.23921,7.51821 -11.97929,9.95922 -0.74007,2.441 0.863,1.58678 -3.5516,3.73451 -4.4146,2.14773 -16.47454,7.34611 -18.07762,8.20034 -1.60308,0.85423 -19.75486,-30.93349 -15.41399,-35.4979 0,0 -8.12486,2.8994 -11.82397,1.80058 0,0 9.2341,44.31432 10.63923,50.31949 1.40514,6.00516 4.68504,6.71339 10.80106,6.93365 6.11603,0.22026 43.25719,-10.56585 43.25719,-10.56585 z"
     fill="#575a89"
     id="path43"
     style="stroke-width:0.856765" />
  <path
     d="m 817.11777,574.13011 c 0,0 -0.30972,6.287 0.75059,7.0097 1.0603,0.7227 7.61277,16.019 -2.47961,17.49477 -10.09238,1.47578 -15.63385,-0.44465 -18.0744,0.36738 -2.44055,0.81204 -42.67057,-2.4728 -42.36086,-8.75979 0.30971,-6.28698 20.42473,-4.6446 20.42473,-4.6446 0,0 19.92434,-9.31773 23.65492,-15.12968 3.73059,-5.81195 18.08463,3.66222 18.08463,3.66222 z"
     fill="#2f2e41"
     id="path44"
     style="stroke-width:0.856765" />
  <path
     d="m 817.11777,574.13011 c 0,0 -0.30972,6.287 0.75059,7.0097 1.0603,0.7227 7.61277,16.019 -2.47961,17.49477 -10.09238,1.47578 -15.63385,-0.44465 -18.0744,0.36738 -2.44055,0.81204 -42.67057,-2.4728 -42.36086,-8.75979 0.30971,-6.28698 20.42473,-4.6446 20.42473,-4.6446 0,0 19.92434,-9.31773 23.65492,-15.12968 3.73059,-5.81195 18.08463,3.66222 18.08463,3.66222 z"
     opacity="0.1"
     id="path45"
     style="stroke-width:0.856765" />
  <path
     d="m 837.87603,607.24536 c 0,0 -6.11854,26.38743 -10.6069,26.1185 -4.48836,-0.26893 -36.17442,-15.53268 -40.07311,-18.55586 -5.00588,-3.88176 -4.80797,-10.74117 0.93801,-9.3004 5.74598,1.44076 21.99801,0.1485 24.76037,-2.75612 l 7.1032,-7.46903 z"
     fill="#2f2e41"
     id="path46"
     style="stroke-width:0.856765" />
  <path
     d="m 900.60396,460.64028 c 1.67682,1.56244 52.67267,44.3836 52.67267,44.3836 0,0 -1.45682,18.99144 -31.86482,23.52899 l -50.68001,7.56264 c 0,0 -7.05655,35.68784 -17.68676,47.69694 -10.63022,12.0091 -5.32804,12.2537 -9.22509,18.01427 -3.89706,5.76057 2.24355,6.7864 -4.24251,7.78666 -6.48606,1.00026 -20.54244,-5.83607 -21.13375,-11.86557 -0.5913,-6.02951 2.96031,-9.76403 4.53879,-11.42385 1.57849,-1.65982 4.7859,-16.67206 7.12905,-19.96732 2.34316,-3.29527 9.32594,-41.39975 9.32594,-41.39975 0,0 8.38667,-18.79549 21.75341,-21.21091 13.36673,-2.41543 27.87898,-9.9835 27.87898,-9.9835"
     fill="#2f2e41"
     id="path47"
     style="stroke-width:0.856765" />
  <ellipse
     cx="947.54572"
     cy="343.93689"
     fill="#a0616a"
     id="circle47"
     rx="24.18055"
     ry="23.934719"
     style="stroke-width:0.856765" />
  <path
     d="m 960.22031,358.87744 c 0,0 -3.62662,14.62169 1.89684,22.11633 5.52346,7.49464 -36.94323,3.92671 -36.94323,3.92671 0,0 11.49448,-23.72617 7.25323,-29.2434 -4.24125,-5.51722 27.79316,3.20036 27.79316,3.20036 z"
     fill="#a0616a"
     id="path48"
     style="stroke-width:0.856765" />
  <path
     d="m 905.93827,381.86732 c -5.13009,5.39431 -3.38202,35.98112 -3.38202,35.98112 l 3.2774,27.31596 c 0,0 -3.92165,4.95499 -2.63944,6.93241 1.28221,1.97741 3.37825,3.93041 -0.66632,4.85767 -4.04457,0.92727 -13.36673,2.41543 -10.3831,6.76082 a 42.323227,41.89295 0 0 0 3.12549,3.52271 c 0.9509,0.9956 2.08169,2.15102 3.3633,3.43912 2.9995,2.99837 6.81431,6.68595 11.04658,10.57474 q 1.79809,1.6637 3.68654,3.35681 c 16.14624,14.4578 36.22418,29.7615 40.37831,22.41696 6.95569,-12.30237 11.78951,-14.05946 11.46989,-24.53173 -0.31962,-10.47227 8.63504,-37.34763 8.63504,-37.34763 0,0 10.41147,-45.86681 -4.26081,-59.53818 l -2.29391,-3.63231 a 9.5849732,9.4875281 0 0 0 -10.37145,-4.20102 c -7.16135,1.69372 -18.13966,4.03363 -22.89607,3.65581 -7.34908,-0.58654 -5.73791,-3.5777 -5.73791,-3.5777 0,0 -17.22143,-1.37985 -22.35152,4.01444 z"
     fill="#575a89"
     id="path49"
     style="stroke-width:0.856765" />
  <path
     d="m 883.26515,479.70346 c 0,0 -29.91504,7.34487 -25.52631,17.69542 4.38873,10.35056 30.28504,-8.56537 30.28504,-8.56537 z"
     fill="#a0616a"
     id="path50"
     style="stroke-width:0.856765" />
  <path
     d="m 960.92807,352.69349 c -0.59545,-0.71404 -0.007,-1.75711 0.51185,-2.52778 2.77611,-4.12703 3.30625,-9.99949 0.25193,-13.92928 a 13.398014,13.261804 0 0 0 -4.41643,-3.49752 21.391051,21.173579 0 0 0 -7.70766,-2.34166 11.932047,11.81074 0 0 1 -4.18805,-0.8166 c -0.84332,-0.42354 -4.8225,-1.80292 -5.67658,-2.20479 -1.87779,-0.88352 -4.49015,-0.5017 -5.69316,-2.18022 -1.15093,-1.60584 -0.0762,-3.80545 1.042,-5.43382 2.54741,-3.70975 8.98921,-6.78435 13.41277,-7.75807 3.35688,-0.73892 6.86022,0.30005 9.97107,1.75091 a 60.876028,60.257135 0 0 1 10.15665,6.28967 c 4.35165,3.19131 8.6388,6.72785 11.25236,11.42314 2.61356,4.69529 3.24336,10.81068 0.29085,15.30482 -0.61504,0.93616 -1.36714,1.78124 -1.94302,2.7415 -1.40484,2.34255 -1.65834,5.17569 -2.65093,7.71653 a 14.429383,14.282687 0 0 1 -8.33842,8.13218 c -3.0242,1.10677 -6.74364,1.41252 -8.53029,4.06924 l -0.83374,-5.5392 a 3.2267418,3.1939373 0 0 1 1.50882,-3.72809 l 4.28338,-3.57126 a 4.8947098,4.844948 0 0 0 1.85176,-2.36327 c 0.92649,-3.82579 -3.56234,-0.34592 -4.55516,-1.53643 z"
     fill="#2f2e41"
     id="path51"
     style="stroke-width:0.856765" />
  <path
     d="m 918.03984,458.10318 -19.40626,12.5739 c 3.84829,3.8519 9.04664,8.83649 14.73312,13.9316 5.38638,-2.87017 10.87951,-5.97741 15.79382,-9.09958 17.97928,-11.42256 33.3954,-40.10375 40.30192,-54.01723 6.90652,-13.91348 1.28472,-24.63031 1.28472,-24.63031 a 52.503662,51.969886 0 0 0 -14.37725,-4.00469 c -9.0013,-1.34347 -38.33007,65.24631 -38.33007,65.24631 z"
     opacity="0.1"
     id="path52"
     style="stroke-width:0.856765" />
  <path
     d="m 915.47543,454.1484 -20.20515,13.08957 c 0.9509,0.9956 2.08169,2.15102 3.3633,3.43911 2.9995,2.99837 6.81431,6.68596 11.04658,10.57475 5.73967,-3.034 11.66206,-6.35959 16.91594,-9.69754 17.97928,-11.42256 33.3954,-40.10375 40.30192,-54.01723 6.90652,-13.91348 -11.67638,-8.92321 -11.67638,-8.92321 0,0 9.64303,-4.31981 0.64173,-5.66323 -9.0013,-1.34342 -40.38794,51.19778 -40.38794,51.19778 z"
     opacity="0.1"
     id="path53"
     style="stroke-width:0.856765" />
  <path
     d="m 969.85957,394.46918 c 0,0 5.6218,10.71684 -1.28472,24.63032 -6.90653,13.91348 -22.32264,42.59467 -40.30192,54.01722 -17.97929,11.42256 -43.70224,22.67354 -43.70224,22.67354 0,0 -2.44024,-13.23084 -6.55854,-14.72028 l 39.14013,-25.35914 c 0,0 29.32875,-66.58977 38.33005,-65.24635 a 52.503826,51.970048 0 0 1 14.37724,4.00469 z"
     fill="#575a89"
     id="path54"
     style="stroke-width:0.856765" />
  <polygon
     points="937.86,639.577 946.438,639.577 946.438,561.055 937.86,562.375 "
     fill="#3f3d56"
     id="polygon54"
     transform="matrix(0.8611534,0,0,0.85239853,82.719488,56.399651)" />
  <path
     d="m 901.15687,576.26375 c 0,0 14.20571,55.12028 5.11405,62.99461 0,0 -11.9328,-34.87202 -21.02446,-30.3724 l 2.84115,-32.62221 z"
     fill="#36334a"
     id="path55"
     style="stroke-width:0.856765" />
  <path
     d="m 1011.3933,456.46152 -73.86978,2.2498 c 0,0 -65.3463,62.99462 -11.36457,82.11798 0,0 66.48276,10.68658 82.39315,-1.68735 0,-2e-5 19.888,-77.61838 2.8412,-82.68043 z m -3.4094,20.81071 -78.98381,5.06208 c 0,0 5.68229,-19.12337 28.41143,-19.12337 22.72915,0 48.29948,-5.06206 50.57238,6.74942 2.2729,11.81148 0,7.31186 0,7.31186 z"
     fill="#3f3d56"
     id="path56"
     style="stroke-width:0.856765" />
  <ellipse
     cx="994.63049"
     cy="575.13885"
     rx="74.153847"
     ry="83.242874"
     fill="#36334a"
     id="ellipse56"
     style="stroke-width:0.856765" />
  <ellipse
     cx="998.03986"
     cy="575.13885"
     rx="55.970531"
     ry="61.869701"
     fill="#3f3d56"
     id="ellipse57"
     style="stroke-width:0.856765" />
  <path
     d="m 1012.5297,574.29517 a 16.644821,16.475602 0 0 0 -0.3245,-3.21416 l 41.8052,-20.69005 -2.8411,-6.18697 -42.2299,20.36437 a 8.8185812,8.7289275 0 0 0 -1.4029,-1.16033 l 0.032,0.007 12.3479,-60.8322 -10.9226,-0.2458 -7.2607,59.86565 0.6961,0.14463 a 6.8170195,6.7477146 0 0 0 -1.6284,0.55082 l -36.52295,-37.10837 -5.16192,7.16542 37.52453,34.17159 a 15.09397,14.940518 0 0 0 -1.66147,5.7593 l -52.90992,21.37637 -1.13646,8.99923 55.15232,-22.95909 a 12.054184,11.931636 0 0 0 2.15555,3.44839 l -16.96363,57.19497 h 6.25052 l 14.23913,-54.86718 a 6.4880848,6.422124 0 0 0 1.9554,0.30937 6.7721104,6.703262 0 0 0 3.6115,-1.07146 l 29.6299,38.75572 9.0916,-6.18696 -34.7168,-37.53594 a 15.889667,15.728125 0 0 0 1.1913,-6.05405 z"
     fill="#36334a"
     id="path57"
     style="stroke-width:0.856765" />
  <ellipse
     cx="817.75226"
     cy="344.09857"
     fill="#a05cf4"
     id="circle57"
     rx="27.286093"
     ry="27.00869"
     style="stroke-width:0.856765" />
  <path
     d="m 1093.7467,621.26788 c 0,14.84608 -8.9152,20.02942 -19.9144,20.02942 -0.2547,0 -0.5095,-0.004 -0.7624,-0.009 -0.5096,-0.0109 -1.0155,-0.0344 -1.514,-0.0689 -9.927,-0.69487 -17.6379,-6.14494 -17.6379,-19.95141 0,-14.28548 18.4425,-32.31377 19.8319,-33.65087 v -0.002 c 0.053,-0.0526 0.081,-0.078 0.081,-0.078 0,0 19.9144,18.88643 19.9144,33.7307 z"
     fill="#a05cf4"
     id="path58"
     style="stroke-width:0.856765" />
  <path
     d="m 1073.1065,639.02583 7.2839,-10.07279 -7.3022,11.17946 -0.018,1.15569 c -0.5096,-0.0109 -1.0155,-0.0345 -1.514,-0.0689 l 0.7845,-14.85153 -0.01,-0.11611 0.013,-0.02 0.075,-1.40424 -7.3205,-11.20668 7.3425,10.15441 0.018,0.29754 0.592,-11.22119 -6.2666,-11.58041 6.3436,9.61195 0.6177,-23.26606 v -0.0798 0.078 l -0.1026,18.34579 6.2392,-7.27337 -6.2649,8.85359 -0.1649,10.04737 5.8267,-9.64279 -5.8506,11.1214 -0.092,5.58611 8.4551,-13.42187 -8.4881,15.37041 z"
     fill="#3f3d56"
     id="path59"
     style="stroke-width:0.856765" />
</svg>
