<?xml version="1.0" encoding="UTF-8" standalone="no"?>
<svg
   data-name="Layer 1"
   width="883.79154"
   height="477.54833"
   viewBox="0 0 883.79154 477.54833"
   version="1.1"
   id="svg62"
   sodipodi:docname="ranking.svg"
   inkscape:version="1.3.2 (091e20e, 2023-11-25, custom)"
   xmlns:inkscape="http://www.inkscape.org/namespaces/inkscape"
   xmlns:sodipodi="http://sodipodi.sourceforge.net/DTD/sodipodi-0.dtd"
   xmlns="http://www.w3.org/2000/svg"
   xmlns:svg="http://www.w3.org/2000/svg">
  <defs
     id="defs62" />
  <sodipodi:namedview
     id="namedview62"
     pagecolor="#ffffff"
     bordercolor="#000000"
     borderopacity="0.25"
     inkscape:showpageshadow="2"
     inkscape:pageopacity="0.0"
     inkscape:pagecheckerboard="0"
     inkscape:deskcolor="#d1d1d1"
     inkscape:zoom="0.51965404"
     inkscape:cx="816.88964"
     inkscape:cy="555.17706"
     inkscape:window-width="1920"
     inkscape:window-height="1009"
     inkscape:window-x="1912"
     inkscape:window-y="-8"
     inkscape:window-maximized="1"
     inkscape:current-layer="svg62" />
  <path
     d="m 152.18241,395.8057 h 575.08715 v -33.67558 c 0,-7.03303 -8.7254,-13.95582 -23.9385,-18.99312 l -0.15633,-0.0522 c -10.27139,-3.52102 -75.93304,-28.57135 -111.44952,-27.81369 -18.76143,0.39902 -34.8239,3.48811 -47.74022,9.18154 -40.20501,17.72868 -93.01823,24.27749 -120.92134,19.13244 -24.59065,-4.53519 -92.09814,-12.0352 -117.04144,-11.69641 -34.93342,0.46672 -35.03587,6.1359 -70.89455,24.43223 -13.6957,6.98242 -18.8181,7.85832 -82.94526,13.42843 z"
     fill="#f2f2f2"
     style="isolation:isolate;stroke-width:0.908326"
     id="path1" />
  <path
     d="m 59.469329,346.308 c -1.25227,-18.06661 6.64363,-36.31764 23.004611,-43.02376 -3.307378,18.61418 0.76763,39.29876 11.27497,57.23086 4.092446,6.98435 9.34816,14.44131 8.22964,21.739 -0.69588,4.54082 -3.875999,8.14549 -7.761948,10.49298 -3.886216,2.34748 -8.465348,3.60079 -12.988666,4.83078 l -0.780939,0.79696 C 69.696701,382.20154 60.721609,364.37461 59.469329,346.308 Z"
     fill="#f2f2f2"
     id="path2"
     style="stroke-width:0.908326" />
  <path
     d="m 82.714564,303.61517 a 65.380423,63.508627 0 0 0 -10.217833,40.99199 33.699397,32.734607 0 0 0 2.248876,9.58938 21.961454,21.332713 0 0 0 6.083574,7.94144 c 2.444342,2.06792 5.156339,3.94209 7.113718,6.48011 a 11.895272,11.554719 0 0 1 2.270672,8.7698 c -0.570599,3.63713 -2.508827,6.67434 -4.521936,9.566 -2.235181,3.21063 -4.615249,6.50394 -5.020741,10.63427 -0.04913,0.50043 -0.872676,0.28787 -0.823619,-0.21183 0.705477,-7.18607 6.94462,-11.55577 9.041614,-18.10025 a 11.430272,11.103031 0 0 0 -1.130958,-9.61167 c -1.823828,-2.68441 -4.619065,-4.61916 -7.110004,-6.69476 a 23.569569,22.894788 0 0 1 -6.221125,-7.59057 31.616716,30.711551 0 0 1 -2.615679,-9.52196 67.855851,65.913185 0 0 1 1.026236,-21.26079 63.436868,61.620714 0 0 1 9.219827,-21.55258 c 0.273498,-0.39897 0.929097,0.17507 0.657378,0.57144 z"
     fill="#ffffff"
     id="path3"
     style="stroke-width:0.908326" />
  <path
     d="M 71.765928,339.77077 A 13.190794,12.813151 0 0 1 61.238994,328.98334 c -0.05917,-0.51349 0.76329,-0.51455 0.822541,-3.9e-4 a 12.211662,11.862051 0 0 0 9.810968,10.01803 0.39985146,0.38840399 0 1 1 -0.106575,0.76979 z"
     fill="#ffffff"
     id="path4"
     style="stroke-width:0.908326" />
  <path
     d="m 79.467718,361.22849 a 17.737319,17.229512 0 0 0 7.072779,-12.32999 c 0.05101,-0.50001 0.874612,-0.28758 0.823619,0.21183 a 18.442815,17.914809 0 0 1 -7.389372,12.81225 c -0.400552,0.28457 -0.905412,-0.41109 -0.507026,-0.69412 z"
     fill="#ffffff"
     id="path5"
     style="stroke-width:0.908326" />
  <path
     d="m 75.428477,317.49932 a 5.9970623,5.8253705 0 0 0 5.80709,-0.58023 c 0.395852,-0.28988 0.900315,0.40612 0.507035,0.69412 a 6.7141148,6.5218943 0 0 1 -6.420664,0.65591 0.49838122,0.4841129 0 0 1 -0.358508,-0.49082 0.35722681,0.34699965 0 0 1 0.465093,-0.27898 z"
     fill="#ffffff"
     id="path6"
     style="stroke-width:0.908326" />
  <path
     d="m 142.16709,332.72046 c -0.24078,0.18855 -0.48156,0.37711 -0.72135,0.57241 a 66.613635,64.706532 0 0 0 -8.85365,8.46844 c -0.211,0.23465 -0.42068,0.47605 -0.6233,0.71707 a 72.215297,70.147823 0 0 0 -13.74062,25.8945 75.903643,73.730573 0 0 0 -2.29329,11.78723 c -0.6089,5.55453 -0.79804,11.68632 -3.25487,16.32629 a 11.887217,11.546894 0 0 1 -0.85002,1.40096 l -30.167006,1.48741 c -0.07518,-0.0303 -0.149385,-0.0538 -0.224874,-0.084 l -1.193877,0.11323 c 0.0073,-0.21101 0.01968,-0.42907 0.02699,-0.64008 0.0037,-0.1225 0.01412,-0.2453 0.01782,-0.36782 0.0046,-0.0818 0.0095,-0.16358 0.0087,-0.23828 0.0014,-0.0272 0.0032,-0.0545 0.0059,-0.075 -7.92e-4,-0.0747 0.0068,-0.14305 0.0073,-0.21102 0.06557,-1.21955 0.137855,-2.43949 0.224256,-3.66008 -0.0013,-0.007 -0.0013,-0.007 0.0041,-0.0138 a 111.83863,108.63676 0 0 1 5.104894,-27.01123 c 0.08875,-0.25579 0.175844,-0.51834 0.278328,-0.77478 a 67.562326,65.628063 0 0 1 5.062499,-10.95888 58.10252,56.439085 0 0 1 3.654734,-5.47365 47.954951,46.582034 0 0 1 12.533696,-11.44955 43.713867,42.462369 0 0 1 34.05975,-6.03505 c 0.31299,0.0729 0.61956,0.14611 0.93386,0.22576 z"
     fill="#f2f2f2"
     id="path7"
     style="stroke-width:0.908326" />
  <path
     d="m 142.173,333.09817 a 60.98155,59.23569 0 0 0 -34.94911,23.28311 26.484883,25.726639 0 0 0 -4.07845,8.15838 17.876547,17.364754 0 0 0 0.35053,9.2237 c 0.851,2.90462 2.06094,5.82741 2.18456,8.7829 a 9.4436038,9.1732399 0 0 1 -3.54084,7.58617 c -2.804195,2.26224 -6.436866,3.29697 -10.043621,4.18402 -4.004615,0.9849 -8.189462,1.9441 -11.159778,4.65488 -0.35989,0.32846 -0.952801,-0.30465 -0.593455,-0.6326 5.167794,-4.71628 13.441741,-4.18801 19.432748,-7.63301 2.795516,-1.6075 4.980506,-4.11083 5.079936,-7.52082 0.0869,-2.9819 -1.15823,-5.99659 -2.04553,-8.93392 a 19.372465,18.817845 0 0 1 -0.69398,-9.0537 24.726683,24.018775 0 0 1 3.71186,-8.32466 57.83128,56.17561 0 0 1 14.35245,-14.57382 63.861834,62.033513 0 0 1 21.77352,-9.99274 c 0.49387,-0.12488 0.70985,0.66802 0.2192,0.79208 z"
     fill="#ffffff"
     id="path8"
     style="stroke-width:0.908326" />
  <path
     d="m 109.63715,352.50247 c -4.19207,-3.85068 -5.24097,-9.78107 -2.475,-13.8521 0.2725,-0.40107 0.99956,0.0789 0.72671,0.48051 -2.59124,3.81385 -1.58942,9.28494 2.32926,12.88448 0.41239,0.37881 -0.17094,0.86375 -0.58097,0.48711 z"
     fill="#ffffff"
     id="path9"
     style="stroke-width:0.908326" />
  <path
     d="m 102.86873,372.3185 a 18.832381,18.293223 0 0 0 14.04454,-4.66562 c 0.36128,-0.32703 0.95431,0.30596 0.59346,0.63261 a 19.601882,19.040694 0 0 1 -14.62917,4.82477 c -0.53375,-0.031 -0.53968,-0.82262 -0.009,-0.79176 z"
     fill="#ffffff"
     id="path10"
     style="stroke-width:0.908326" />
  <path
     d="m 126.95713,338.74834 a 7.399169,7.1873359 0 0 0 5.49574,2.98022 c 0.53294,0.0245 0.5383,0.8161 0.009,0.79176 a 8.2910241,8.0536578 0 0 1 -6.08552,-3.28489 0.41511339,0.40322898 0 0 1 -0.006,-0.55985 0.43114026,0.41879701 0 0 1 0.5872,0.0727 z"
     fill="#ffffff"
     id="path11"
     style="stroke-width:0.908326" />
  <path
     d="m 814.7488,346.308 c 1.25227,-18.06661 -6.64363,-36.31764 -23.00461,-43.02376 3.30737,18.61418 -0.76763,39.29876 -11.27497,57.23086 -4.09245,6.98435 -9.34817,14.44131 -8.22964,21.739 0.69587,4.54082 3.87599,8.14549 7.76194,10.49298 3.88622,2.34748 8.46535,3.60079 12.98867,4.83078 l 0.78094,0.79696 C 804.5214,382.20154 813.49652,364.37461 814.7488,346.308 Z"
     fill="#f2f2f2"
     id="path12"
     style="stroke-width:0.908326" />
  <path
     d="m 791.5036,303.61517 a 65.380423,63.508627 0 0 1 10.21783,40.99199 33.699397,32.734607 0 0 1 -2.24887,9.58938 21.961454,21.332713 0 0 1 -6.08358,7.94144 c -2.44434,2.06792 -5.15634,3.94209 -7.11371,6.48011 a 11.895272,11.554719 0 0 0 -2.27068,8.7698 c 0.5706,3.63713 2.50883,6.67434 4.52194,9.566 2.23518,3.21063 4.61525,6.50394 5.02074,10.63427 0.0491,0.50043 0.87267,0.28787 0.82362,-0.21183 -0.70548,-7.18607 -6.94462,-11.55577 -9.04162,-18.10025 a 11.430272,11.103031 0 0 1 1.13096,-9.61167 c 1.82388,-2.68441 4.61907,-4.61916 7.11,-6.69476 a 23.569449,22.894672 0 0 0 6.22113,-7.59057 31.616716,30.711551 0 0 0 2.61568,-9.52196 67.855851,65.913185 0 0 0 -1.02624,-21.26079 63.436868,61.620714 0 0 0 -9.21982,-21.55258 c -0.2735,-0.39897 -0.9291,0.17507 -0.65738,0.57144 z"
     fill="#ffffff"
     id="path13"
     style="stroke-width:0.908326" />
  <path
     d="m 802.4522,339.77077 a 13.190794,12.813151 0 0 0 10.52693,-10.78743 c 0.0592,-0.51349 -0.76329,-0.51455 -0.82254,-3.9e-4 a 12.211662,11.862051 0 0 1 -9.81097,10.01803 0.39985146,0.38840399 0 1 0 0.10658,0.76979 z"
     fill="#ffffff"
     id="path14"
     style="stroke-width:0.908326" />
  <path
     d="m 794.75044,361.22849 a 17.737319,17.229512 0 0 1 -7.07277,-12.32999 c -0.051,-0.50001 -0.87462,-0.28758 -0.82362,0.21183 a 18.442815,17.914809 0 0 0 7.38937,12.81225 c 0.40055,0.28457 0.90541,-0.41109 0.50702,-0.69412 z"
     fill="#ffffff"
     id="path15"
     style="stroke-width:0.908326" />
  <path
     d="m 798.78965,317.49932 a 5.9970623,5.8253705 0 0 1 -5.80709,-0.58023 c -0.39585,-0.28988 -0.90032,0.40612 -0.50704,0.69412 a 6.7141148,6.5218943 0 0 0 6.42067,0.65591 0.49838122,0.4841129 0 0 0 0.3585,-0.49082 0.35722681,0.34699965 0 0 0 -0.46509,-0.27898 z"
     fill="#ffffff"
     id="path16"
     style="stroke-width:0.908326" />
  <path
     d="m 732.05103,332.72046 c 0.24078,0.18855 0.48157,0.37711 0.72135,0.57241 a 66.613635,64.706532 0 0 1 8.85365,8.46843 c 0.21101,0.23465 0.42068,0.47605 0.62331,0.71707 a 72.215297,70.147823 0 0 1 13.74062,25.8945 75.903643,73.730573 0 0 1 2.29329,11.78724 c 0.6089,5.55452 0.79803,11.68631 3.25487,16.32628 a 11.887217,11.546894 0 0 0 0.85001,1.40096 l 30.16701,1.48741 c 0.0752,-0.0303 0.14939,-0.0538 0.22488,-0.084 l 1.19387,0.11323 c -0.007,-0.21101 -0.0197,-0.42907 -0.027,-0.64008 -0.004,-0.1225 -0.0141,-0.2453 -0.0178,-0.36782 -0.005,-0.0818 -0.01,-0.16358 -0.009,-0.23828 -10e-4,-0.0272 -0.003,-0.0545 -0.006,-0.075 7.9e-4,-0.0747 -0.007,-0.14305 -0.007,-0.21101 -0.0656,-1.21956 -0.13784,-2.4395 -0.22425,-3.66008 10e-4,-0.007 10e-4,-0.007 -0.004,-0.0138 a 111.83863,108.63676 0 0 0 -5.10489,-27.01123 c -0.0888,-0.25579 -0.17584,-0.51834 -0.27838,-0.77478 a 67.562326,65.628063 0 0 0 -5.0625,-10.95888 58.10252,56.439085 0 0 0 -3.65473,-5.47365 47.954914,46.581998 0 0 0 -12.53368,-11.44955 43.713895,42.462396 0 0 0 -34.05977,-6.03505 c -0.31294,0.0729 -0.61952,0.14612 -0.93382,0.22577 z"
     fill="#f2f2f2"
     id="path17"
     style="stroke-width:0.908326" />
  <path
     d="m 732.04513,333.09817 a 60.98155,59.23569 0 0 1 34.9491,23.28311 26.48468,25.726442 0 0 1 4.07846,8.15838 17.876547,17.364754 0 0 1 -0.35054,9.2237 c -0.851,2.90462 -2.06094,5.82741 -2.18456,8.7829 a 9.4436038,9.1732399 0 0 0 3.54085,7.58617 c 2.80419,2.26224 6.43686,3.29697 10.04362,4.18402 4.00461,0.9849 8.18946,1.9441 11.15977,4.65488 0.35989,0.32846 0.95281,-0.30465 0.59346,-0.6326 -5.16779,-4.71628 -13.44174,-4.18801 -19.43275,-7.63301 -2.79551,-1.6075 -4.9805,-4.11083 -5.07994,-7.52082 -0.0869,-2.9819 1.15823,-5.99659 2.04554,-8.93392 a 19.372327,18.81771 0 0 0 0.69397,-9.0537 24.726683,24.018775 0 0 0 -3.71185,-8.32466 57.83128,56.17561 0 0 0 -14.35246,-14.57382 63.861834,62.033513 0 0 0 -21.77351,-9.99274 c -0.49387,-0.12488 -0.70985,0.66802 -0.2192,0.79208 z"
     fill="#ffffff"
     id="path18"
     style="stroke-width:0.908326" />
  <path
     d="m 764.58098,352.50247 c 4.19207,-3.85068 5.24097,-9.78107 2.47499,-13.8521 -0.27248,-0.40107 -0.99955,0.0789 -0.7267,0.48051 2.59124,3.81385 1.58941,9.28494 -2.32926,12.88448 -0.4124,0.37881 0.17093,0.86375 0.58097,0.48711 z"
     fill="#ffffff"
     id="path19"
     style="stroke-width:0.908326" />
  <path
     d="m 771.34939,372.3185 a 18.832381,18.293223 0 0 1 -14.04454,-4.66562 c -0.36127,-0.32703 -0.9543,0.30596 -0.59345,0.63261 a 19.601882,19.040694 0 0 0 14.62916,4.82477 c 0.53376,-0.031 0.53968,-0.82262 0.009,-0.79176 z"
     fill="#ffffff"
     id="path20"
     style="stroke-width:0.908326" />
  <path
     d="m 747.26099,338.74834 a 7.3991598,7.1873269 0 0 1 -5.49573,2.98022 c -0.53294,0.0245 -0.53831,0.8161 -0.009,0.79176 a 8.2910241,8.0536578 0 0 0 6.08553,-3.28489 0.41511339,0.40322898 0 0 0 0.006,-0.55985 0.43114026,0.41879701 0 0 0 -0.58721,0.0727 z"
     fill="#ffffff"
     id="path21"
     style="stroke-width:0.908326" />
  <rect
     x="80.685204"
     y="256.86572"
     width="5.5296841"
     height="1.7904577"
     fill="#e6e6e6"
     id="rect21"
     style="stroke-width:0.908326" />
  <path
     d="m 782.15723,258.65619 h -11.22452 v -1.79046 h 11.22452 z m -22.44949,0 h -11.22497 v -1.79046 h 11.22497 z m -22.44995,0 h -11.22451 v -1.79046 h 11.22451 z m -22.44948,0 h -11.22498 v -1.79046 h 11.22498 z m -22.44995,0 h -11.22449 v -1.79046 h 11.22452 z m -22.44948,0 H 658.6839 v -1.79046 h 11.22498 z m -22.44995,0 h -11.22452 v -1.79046 h 11.22452 z m -22.44949,0 h -11.22497 v -1.79046 h 11.22495 z m -22.44994,0 h -11.22452 v -1.79046 h 11.22452 z m -22.4495,0 h -11.22496 v -1.79046 H 580.11 Z m -22.44993,0 h -11.22498 v -1.79046 h 11.22498 z m -22.4495,0 H 523.9856 v -1.79046 h 11.22497 z m -22.44994,0 h -11.22497 v -1.79046 h 11.22497 z m -22.44994,0 h -11.22452 v -1.79046 h 11.22452 z m -22.4495,0 h -11.22496 v -1.79046 h 11.22496 z m -22.44993,0 h -11.22498 v -1.79046 h 11.22498 z m -22.4495,0 h -11.22497 v -1.79046 h 11.22497 z m -22.44993,0 h -11.22498 v -1.79046 h 11.22498 z m -22.44995,0 h -11.22497 v -1.79046 h 11.22497 z m -22.44949,0 h -11.22497 v -1.79046 h 11.225 z m -22.44994,0 h -11.22498 v -1.79046 h 11.22498 z m -22.44994,0 h -11.22454 v -1.79046 h 11.22452 z m -22.44949,0 h -11.22498 v -1.79046 h 11.22498 z m -22.44995,0 h -11.22496 v -1.79046 h 11.22501 z m -22.44994,0 h -11.22452 v -1.79046 h 11.22452 z m -22.44949,0 h -11.22498 v -1.79046 h 11.22498 z m -22.44994,0 h -11.22497 v -1.79046 h 11.22497 z m -22.44949,0 h -11.22498 v -1.79046 h 11.22498 z m -22.44994,0 H 142.3393 v -1.79046 h 11.22497 z m -22.44995,0 H 119.8898 v -1.79046 h 11.22452 z m -22.44949,0 H 97.439864 v -1.79046 h 11.224966 z"
     fill="#e6e6e6"
     id="path22"
     style="stroke-width:0.908326" />
  <rect
     x="793.38263"
     y="256.86572"
     width="5.5296841"
     height="1.7904577"
     fill="#e6e6e6"
     id="rect22"
     style="stroke-width:0.908326" />
  <rect
     x="80.685204"
     y="244.33252"
     width="5.5296841"
     height="1.7904577"
     fill="#e6e6e6"
     id="rect23"
     style="stroke-width:0.908326" />
  <path
     d="m 782.15723,246.12299 h -11.22452 v -1.79046 h 11.22452 z m -22.44949,0 h -11.22497 v -1.79046 h 11.22497 z m -22.44995,0 h -11.22451 v -1.79046 h 11.22451 z m -22.44948,0 h -11.22498 v -1.79046 h 11.22498 z m -22.44995,0 h -11.22449 v -1.79046 h 11.22452 z m -22.44948,0 H 658.6839 v -1.79046 h 11.22498 z m -22.44995,0 h -11.22452 v -1.79046 h 11.22452 z m -22.44949,0 h -11.22497 v -1.79046 h 11.22495 z m -22.44994,0 h -11.22452 v -1.79046 h 11.22452 z m -22.4495,0 h -11.22496 v -1.79046 H 580.11 Z m -22.44993,0 h -11.22498 v -1.79046 h 11.22498 z m -22.4495,0 H 523.9856 v -1.79046 h 11.22497 z m -22.44994,0 h -11.22497 v -1.79046 h 11.22497 z m -22.44994,0 h -11.22452 v -1.79046 h 11.22452 z m -22.4495,0 h -11.22496 v -1.79046 h 11.22496 z m -22.44993,0 h -11.22498 v -1.79046 h 11.22498 z m -22.4495,0 h -11.22497 v -1.79046 h 11.22497 z m -22.44993,0 h -11.22498 v -1.79046 h 11.22498 z m -22.44995,0 h -11.22497 v -1.79046 h 11.22497 z m -22.44949,0 h -11.22497 v -1.79046 h 11.225 z m -22.44994,0 h -11.22498 v -1.79046 h 11.22498 z m -22.44994,0 h -11.22454 v -1.79046 h 11.22452 z m -22.44949,0 h -11.22498 v -1.79046 h 11.22498 z m -22.44995,0 h -11.22496 v -1.79046 h 11.22501 z m -22.44994,0 h -11.22452 v -1.79046 h 11.22452 z m -22.44949,0 h -11.22498 v -1.79046 h 11.22498 z m -22.44994,0 h -11.22497 v -1.79046 h 11.22497 z m -22.44949,0 h -11.22498 v -1.79046 h 11.22498 z m -22.44994,0 H 142.3393 v -1.79046 h 11.22497 z m -22.44995,0 H 119.8898 v -1.79046 h 11.22452 z m -22.44949,0 H 97.439864 v -1.79046 h 11.224966 z"
     fill="#e6e6e6"
     id="path23"
     style="stroke-width:0.908326" />
  <rect
     x="793.38263"
     y="244.33252"
     width="5.5296841"
     height="1.7904577"
     fill="#e6e6e6"
     id="rect24"
     style="stroke-width:0.908326" />
  <rect
     x="80.685204"
     y="218.37088"
     width="5.5296841"
     height="1.7904577"
     fill="#e6e6e6"
     id="rect25"
     style="stroke-width:0.908326" />
  <path
     d="m 782.15723,220.16135 h -11.22452 v -1.79046 h 11.22452 z m -22.44949,0 h -11.22497 v -1.79046 h 11.22497 z m -22.44995,0 h -11.22451 v -1.79046 h 11.22451 z m -22.44948,0 h -11.22498 v -1.79046 h 11.22498 z m -22.44995,0 h -11.22449 v -1.79046 h 11.22452 z m -22.44948,0 H 658.6839 v -1.79046 h 11.22498 z m -22.44995,0 h -11.22452 v -1.79046 h 11.22452 z m -22.44949,0 h -11.22497 v -1.79046 h 11.22495 z m -22.44994,0 h -11.22452 v -1.79046 h 11.22452 z m -22.4495,0 h -11.22496 v -1.79046 H 580.11 Z m -22.44993,0 h -11.22498 v -1.79046 h 11.22498 z m -22.4495,0 H 523.9856 v -1.79046 h 11.22497 z m -22.44994,0 h -11.22497 v -1.79046 h 11.22497 z m -22.44994,0 h -11.22452 v -1.79046 h 11.22452 z m -22.4495,0 h -11.22496 v -1.79046 h 11.22496 z m -22.44993,0 h -11.22498 v -1.79046 h 11.22498 z m -22.4495,0 h -11.22497 v -1.79046 h 11.22497 z m -22.44993,0 h -11.22498 v -1.79046 h 11.22498 z m -22.44995,0 h -11.22497 v -1.79046 h 11.22497 z m -22.44949,0 h -11.22497 v -1.79046 h 11.225 z m -22.44994,0 h -11.22498 v -1.79046 h 11.22498 z m -22.44994,0 h -11.22454 v -1.79046 h 11.22452 z m -22.44949,0 h -11.22498 v -1.79046 h 11.22498 z m -22.44995,0 h -11.22496 v -1.79046 h 11.22501 z m -22.44994,0 h -11.22452 v -1.79046 h 11.22452 z m -22.44949,0 h -11.22498 v -1.79046 h 11.22498 z m -22.44994,0 h -11.22497 v -1.79046 h 11.22497 z m -22.44949,0 h -11.22498 v -1.79046 h 11.22498 z m -22.44994,0 H 142.3393 v -1.79046 h 11.22497 z m -22.44995,0 H 119.8898 v -1.79046 h 11.22452 z m -22.44949,0 H 97.439864 v -1.79046 h 11.224966 z"
     fill="#e6e6e6"
     id="path25"
     style="stroke-width:0.908326" />
  <rect
     x="793.38263"
     y="218.37088"
     width="5.5296841"
     height="1.7904577"
     fill="#e6e6e6"
     id="rect26"
     style="stroke-width:0.908326" />
  <rect
     x="80.685204"
     y="200.46631"
     width="5.5296841"
     height="1.7904577"
     fill="#e6e6e6"
     id="rect27"
     style="stroke-width:0.908326" />
  <path
     d="m 782.15723,202.25677 h -11.22452 v -1.79045 h 11.22452 z m -22.44949,0 h -11.22497 v -1.79045 h 11.22497 z m -22.44995,0 h -11.22451 v -1.79045 h 11.22451 z m -22.44948,0 h -11.22498 v -1.79045 h 11.22498 z m -22.44995,0 h -11.22449 v -1.79045 h 11.22452 z m -22.44948,0 H 658.6839 v -1.79045 h 11.22498 z m -22.44995,0 h -11.22452 v -1.79045 h 11.22452 z m -22.44949,0 h -11.22497 v -1.79045 h 11.22495 z m -22.44994,0 h -11.22452 v -1.79045 h 11.22452 z m -22.4495,0 h -11.22496 v -1.79045 H 580.11 Z m -22.44993,0 h -11.22498 v -1.79045 h 11.22498 z m -22.4495,0 H 523.9856 v -1.79045 h 11.22497 z m -22.44994,0 h -11.22497 v -1.79045 h 11.22497 z m -22.44994,0 h -11.22452 v -1.79045 h 11.22452 z m -22.4495,0 h -11.22496 v -1.79045 h 11.22496 z m -22.44993,0 h -11.22498 v -1.79045 h 11.22498 z m -22.4495,0 h -11.22497 v -1.79045 h 11.22497 z m -22.44993,0 h -11.22498 v -1.79045 h 11.22498 z m -22.44995,0 h -11.22497 v -1.79045 h 11.22497 z m -22.44949,0 h -11.22497 v -1.79045 h 11.225 z m -22.44994,0 h -11.22498 v -1.79045 h 11.22498 z m -22.44994,0 h -11.22454 v -1.79045 h 11.22452 z m -22.44949,0 h -11.22498 v -1.79045 h 11.22498 z m -22.44995,0 h -11.22496 v -1.79045 h 11.22501 z m -22.44994,0 h -11.22452 v -1.79045 h 11.22452 z m -22.44949,0 h -11.22498 v -1.79045 h 11.22498 z m -22.44994,0 h -11.22497 v -1.79045 h 11.22497 z m -22.44949,0 h -11.22498 v -1.79045 h 11.22498 z m -22.44994,0 H 142.3393 v -1.79045 h 11.22497 z m -22.44995,0 H 119.8898 v -1.79045 h 11.22452 z m -22.44949,0 H 97.439864 v -1.79045 h 11.224966 z"
     fill="#e6e6e6"
     id="path27"
     style="stroke-width:0.908326" />
  <rect
     x="793.38263"
     y="200.46631"
     width="5.5296841"
     height="1.7904577"
     fill="#e6e6e6"
     id="rect28"
     style="stroke-width:0.908326" />
  <rect
     x="80.685204"
     y="161.97147"
     width="5.5296841"
     height="1.7904577"
     fill="#e6e6e6"
     id="rect29"
     style="stroke-width:0.908326" />
  <path
     d="m 782.15723,163.76193 h -11.22452 v -1.79045 h 11.22452 z m -22.44949,0 h -11.22497 v -1.79045 h 11.22497 z m -22.44995,0 h -11.22451 v -1.79045 h 11.22451 z m -22.44948,0 h -11.22498 v -1.79045 h 11.22498 z m -22.44995,0 h -11.22449 v -1.79045 h 11.22452 z m -22.44948,0 H 658.6839 v -1.79045 h 11.22498 z m -22.44995,0 h -11.22452 v -1.79045 h 11.22452 z m -22.44949,0 h -11.22497 v -1.79045 h 11.22495 z m -22.44994,0 h -11.22452 v -1.79045 h 11.22452 z m -22.4495,0 h -11.22496 v -1.79045 H 580.11 Z m -22.44993,0 h -11.22498 v -1.79045 h 11.22498 z m -22.4495,0 H 523.9856 v -1.79045 h 11.22497 z m -22.44994,0 h -11.22497 v -1.79045 h 11.22497 z m -22.44994,0 h -11.22452 v -1.79045 h 11.22452 z m -22.4495,0 h -11.22496 v -1.79045 h 11.22496 z m -22.44993,0 h -11.22498 v -1.79045 h 11.22498 z m -22.4495,0 h -11.22497 v -1.79045 h 11.22497 z m -22.44993,0 h -11.22498 v -1.79045 h 11.22498 z m -22.44995,0 h -11.22497 v -1.79045 h 11.22497 z m -22.44949,0 h -11.22497 v -1.79045 h 11.225 z m -22.44994,0 h -11.22498 v -1.79045 h 11.22498 z m -22.44994,0 h -11.22454 v -1.79045 h 11.22452 z m -22.44949,0 h -11.22498 v -1.79045 h 11.22498 z m -22.44995,0 h -11.22496 v -1.79045 h 11.22501 z m -22.44994,0 h -11.22452 v -1.79045 h 11.22452 z m -22.44949,0 h -11.22498 v -1.79045 h 11.22498 z m -22.44994,0 h -11.22497 v -1.79045 h 11.22497 z m -22.44949,0 h -11.22498 v -1.79045 h 11.22498 z m -22.44994,0 H 142.3393 v -1.79045 h 11.22497 z m -22.44995,0 H 119.8898 v -1.79045 h 11.22452 z m -22.44949,0 H 97.439864 v -1.79045 h 11.224966 z"
     fill="#e6e6e6"
     id="path29"
     style="stroke-width:0.908326" />
  <rect
     x="793.38263"
     y="161.97147"
     width="5.5296841"
     height="1.7904577"
     fill="#e6e6e6"
     id="rect30"
     style="stroke-width:0.908326" />
  <path
     d="M 348.4371,110.23934 A 50.167525,48.731263 0 1 1 298.2696,61.508115 49.945729,48.515817 0 0 1 348.4371,110.23934 Z"
     fill="#f2f2f2"
     id="path30"
     style="stroke-width:0.908326" />
  <path
     d="m 318.78701,98.579443 v 0 l -0.24823,0.434643 c 2.20942,-5.289263 0.20033,-11.806878 -3.7411,-15.795141 -3.94128,-3.988244 -9.42058,-5.811575 -14.81586,-6.534938 a 24.063812,23.374882 0 0 0 -11.97085,0.903618 c -5.51494,2.063717 -9.72848,6.841034 -13.24643,11.810754 -1.60914,2.273093 -3.19131,4.864548 -3.03101,7.705646 0.14881,2.636566 1.75996,4.873965 3.07936,7.110865 1.31955,2.23691 2.42139,5.01217 1.47441,7.4536 -0.5643,1.45489 -1.75694,2.50272 -2.72462,3.69288 -0.96767,1.19016 -1.76374,2.79881 -1.29629,4.2921 a 3.6050131,3.501804 0 0 0 2.68579,2.26732 9.496698,9.224814 0 0 0 3.56826,-0.0821 l 30.75309,-4.51331 a 13.106513,12.731282 0 0 0 9.51348,-18.745927 z"
     fill="#2f2e41"
     id="path31"
     style="stroke-width:0.908326" />
  <ellipse
     cx="295.91235"
     cy="102.5118"
     fill="#ffb9b9"
     id="circle31"
     rx="15.035764"
     ry="14.605301"
     style="stroke-width:0.908326" />
  <path
     d="m 335.93944,142.41468 a 50.149987,48.714227 0 0 1 -70.18764,4.92727 l 4.30302,-11.66304 a 12.911932,12.542273 0 0 1 10.96751,-7.3157 l 2.73745,-0.16323 6.52744,-5.46852 c 0,0 17.58783,-0.61001 17.3269,-0.90213 l 10.65353,6.22458 -0.009,-0.043 4.18798,0.24916 a 12.906283,12.536785 0 0 1 10.96753,7.3157 z"
     fill="#a05cf4"
     id="path32"
     style="stroke-width:0.908326" />
  <path
     d="m 310.17408,88.956351 c -0.38812,-1.994481 -2.48228,-2.906701 -4.27653,-3.348729 a 41.195032,40.015646 0 0 0 -15.93661,-0.850074 c -3.87706,0.537075 -7.84615,1.721346 -10.65929,4.660947 a 14.335789,13.925365 0 0 0 -3.62492,8.968214 10.994643,10.679874 0 0 0 1.31592,5.697431 5.4358915,5.2802656 0 0 0 4.51917,2.82929 l 0.1804,0.60942 a 27.370628,26.587026 0 0 0 18.97774,-12.34773 16.285537,15.819294 0 0 1 -4.75785,7.46615 29.645134,28.796415 0 0 0 12.79712,-9.580232 c 0.89304,-1.151408 1.76009,-2.587292 1.46485,-4.104687 z"
     fill="#2f2e41"
     id="path33"
     style="stroke-width:0.908326" />
  <ellipse
     cx="725.78455"
     cy="125.68564"
     fill="#f2f2f2"
     id="circle33"
     rx="50.167526"
     ry="48.731266"
     style="stroke-width:0.908326" />
  <ellipse
     cx="712.00836"
     cy="100.52007"
     fill="#2f2e41"
     id="circle34"
     rx="7.0828061"
     ry="6.8800306"
     style="stroke-width:0.908326" />
  <ellipse
     cx="723.34082"
     cy="116.1148"
     fill="#2f2e41"
     id="circle35"
     rx="17.943115"
     ry="17.429417"
     style="stroke-width:0.908326" />
  <ellipse
     cx="724.82556"
     cy="119.37653"
     fill="#9e616a"
     id="circle36"
     rx="14.580809"
     ry="14.16337"
     style="stroke-width:0.908326" />
  <path
     d="m 734.72746,104.93894 a 16.701858,16.223695 0 0 0 -25.39273,14.159 c 7.42968,1.81194 15.23502,3.1986 23.15824,0.4334 l 1.87111,-4.44832 1.10312,4.45162 c 2.41289,0.958 4.83202,1.76857 7.25115,-0.009 a 17.053546,16.565315 0 0 0 -7.99089,-14.58644 z"
     fill="#2f2e41"
     id="path36"
     style="stroke-width:0.908326" />
  <path
     d="m 705.41379,81.843363 a 14.487772,14.072997 0 0 0 -15.12114,2.262718 16.386058,15.916936 0 0 0 -5.2296,14.165126 c 0.80313,5.281943 4.10884,9.830393 7.15595,14.274103 3.04712,4.44371 6.02405,9.31302 6.02065,14.65221 a 14.952616,14.524533 0 0 1 -14.92292,14.51556 c 4.64645,1.94305 9.49612,3.92419 14.5493,3.69385 5.05318,-0.23034 10.34967,-3.38584 11.17395,-8.23409 0.59395,-3.49334 -1.17045,-6.8998 -2.64205,-10.13909 a 73.833633,71.719827 0 0 1 -5.16005,-16.49973 c -0.49146,-2.71165 -0.81148,-5.56239 0.0986,-8.16995 a 9.8763753,9.5936215 0 0 1 9.81141,-6.295645 l 1.66966,-1.459125 a 12.998546,12.626406 0 0 0 -7.40377,-12.765937 z"
     fill="#2f2e41"
     id="path37"
     style="stroke-width:0.908326" />
  <path
     d="m 763.53178,158.29055 a 50.149959,48.7142 0 0 1 -70.18763,4.92727 l 4.30297,-11.66304 a 12.911914,12.542255 0 0 1 10.96751,-7.31568 l 2.73745,-0.16325 6.52744,-5.46851 c 0,0 17.58784,-0.61002 17.3269,-0.90213 l 10.65353,6.22453 -0.009,-0.043 4.18798,0.24916 a 12.906283,12.536785 0 0 1 10.96754,7.31568 z"
     fill="#a05cf4"
     id="path38"
     style="stroke-width:0.908326" />
  <path
     d="m 633.21575,73.834315 a 50.167525,48.731263 0 1 1 -50.07849,-48.81759 50.037826,48.605278 0 0 1 50.07849,48.81759 z"
     fill="#f2f2f2"
     id="path39"
     style="stroke-width:0.908326" />
  <path
     d="m 559.79612,57.895661 c 2.0744,-6.42179 6.79168,-12.311626 13.31554,-14.482538 6.52427,-2.17093 16.07743,1.136099 20.98221,5.884339 8.97179,8.68551 11.16125,38.523264 4.99724,47.952342 -1.22603,-0.06304 -5.45662,-0.109665 -6.69751,-0.154812 l -1.75539,-5.683145 v 5.627131 q -2.96538,-0.08901 -5.97717,-0.122915 A 26.013017,25.268282 0 0 1 558.97843,72.271245 c -0.16059,-6.254337 2.1e-4,-11.844907 0.81769,-14.375584 z"
     fill="#2f2e41"
     id="path40"
     style="stroke-width:0.908326" />
  <ellipse
     cx="582.30426"
     cy="65.290932"
     fill="#9e616a"
     id="circle40"
     rx="14.297395"
     ry="13.88807"
     style="stroke-width:0.908326" />
  <path
     d="m 569.96515,53.093859 16.46208,-8.006981 v 0 a 20.691156,20.098783 0 0 1 12.11879,16.652152 l 0.41032,4.774256 -6.89351,-1.704516 -0.75523,-6.104798 -1.17064,5.628608 -3.18129,-0.786271 0.0302,-9.47768 -3.18326,9.470912 -11.36224,-2.535726 z"
     fill="#2f2e41"
     id="path41"
     style="stroke-width:0.908326" />
  <path
     d="m 620.27593,105.99627 a 50.149977,48.714218 0 0 1 -70.18763,4.92726 l 4.30297,-11.663042 a 12.911895,12.542237 0 0 1 10.9675,-7.315693 l 2.73746,-0.163236 6.52744,-5.468515 c 0,0 17.58784,-0.610018 17.3269,-0.902131 l 10.65353,6.224571 -0.009,-0.04297 4.18799,0.24916 a 12.906283,12.536785 0 0 1 10.96753,7.315694 z"
     fill="#a05cf4"
     id="path42"
     style="stroke-width:0.908326" />
  <ellipse
     cx="445.1333"
     cy="152.54251"
     fill="#f2f2f2"
     id="circle42"
     rx="50.167526"
     ry="48.731266"
     style="stroke-width:0.908326" />
  <ellipse
     cx="443.74866"
     cy="143.02371"
     fill="#ffb6b6"
     id="circle43"
     rx="16.014011"
     ry="15.555542"
     style="stroke-width:0.908326" />
  <path
     d="m 482.76998,185.14742 a 50.149959,48.7142 0 0 1 -70.18764,4.92727 l 4.30297,-11.66304 a 12.911905,12.542246 0 0 1 10.9675,-7.31569 l 2.73746,-0.16324 6.52745,-5.46851 c 0,0 17.58783,-0.61003 17.32689,-0.90213 l 10.65354,6.22453 -0.009,-0.043 4.18798,0.24916 a 12.906283,12.536785 0 0 1 10.96753,7.31569 z"
     fill="#a05cf4"
     id="path43"
     style="stroke-width:0.908326" />
  <path
     d="m 460.63813,133.37648 a 20.646689,20.055588 0 0 0 -8.64651,-11.4273 c -3.36205,-2.08884 -7.55738,-3.15523 -11.36627,-2.05059 -3.80888,1.10464 -6.96234,4.73558 -6.71303,8.65866 a 3.9075052,3.795636 0 0 0 -3.94428,1.18317 9.0422593,8.7833857 0 0 0 -1.93514,3.80587 24.909061,24.195932 0 0 0 0.23361,13.39844 l -0.0756,0.62517 c 1.85824,-0.29861 3.26774,-1.84736 4.14423,-3.49744 0.87649,-1.65009 1.38086,-3.48072 2.33082,-5.09046 0.94995,-1.60974 2.52746,-3.04566 4.40932,-3.0959 l -0.16584,2.79422 q 2.42861,-1.21543 4.85717,-2.43085 -0.57768,1.34229 -1.15534,2.6846 2.12093,-0.86111 4.24186,-1.72219 -0.2371,1.29074 -0.47417,2.58145 a 6.3112128,6.1305272 0 0 1 8.68898,-2.72896 8.3866876,8.1465825 0 0 1 3.42859,4.68502 25.408143,24.680725 0 0 1 0.82105,5.84718 21.050475,20.447815 0 0 0 1.32058,-14.22009 z"
     fill="#2f2e41"
     id="path44"
     style="stroke-width:0.908326" />
  <ellipse
     cx="154.69699"
     cy="174.69609"
     fill="#f2f2f2"
     id="circle44"
     rx="50.167526"
     ry="48.731266"
     style="stroke-width:0.908326" />
  <ellipse
     id="a04f79c1-b358-4543-9edb-632b127caa90"
     data-name="ab6171fa-7d69-4734-b81c-8dff60f9761b"
     cx="153.59258"
     cy="164.96698"
     fill="#9e616a"
     rx="15.219599"
     ry="14.783873"
     style="stroke-width:0.908326" />
  <path
     d="m 191.68792,206.87116 a 50.149987,48.714227 0 0 1 -70.18764,4.92727 l 4.30302,-11.66304 a 12.911914,12.542255 0 0 1 10.9675,-7.3157 l 2.73746,-0.16323 6.52745,-5.46852 c 0,0 17.58783,-0.61002 17.32689,-0.90213 l 10.65354,6.22458 -0.009,-0.043 4.18799,0.24916 a 12.906283,12.536785 0 0 1 10.96753,7.31569 z"
     fill="#a05cf4"
     id="path45"
     style="stroke-width:0.908326" />
  <path
     d="m 139.76386,171.80191 c -0.0299,-0.0809 -0.0572,-0.16266 -0.0867,-0.24368 -0.0586,0.0501 -0.11474,0.10189 -0.17827,0.14872 z"
     fill="#2f2e41"
     id="path46"
     style="stroke-width:0.908326" />
  <path
     d="m 171.82405,159.70756 a 10.941909,10.628649 0 0 0 -4.08585,-7.75767 9.5988405,9.3240323 0 0 1 -2.50028,-2.19553 15.46284,15.02015 0 0 1 -0.84936,-2.05751 c -1.16835,-2.70132 -4.49812,-4.13699 -7.48499,-3.72794 a 11.245654,10.923699 0 0 0 -7.31283,4.75336 4.9773977,4.8348983 0 0 0 -6.96064,5.60419 c -1.54675,-1.21035 -4.04873,-0.24218 -5.01426,1.44387 -0.96553,1.68606 -0.81227,3.74916 -0.52522,5.65826 a 55.04173,53.465923 0 0 0 2.58649,10.1296 c 1.50606,-1.28823 1.4135,-3.63434 1.22944,-5.61756 -0.19125,-2.06034 -0.0767,-4.57587 1.77809,-5.59255 1.79198,-0.98226 3.96695,0.0961 5.9428,0.65393 a 11.231314,10.909769 0 0 0 9.2906,-1.41953 29.26507,28.427231 0 0 1 3.05509,-2.06745 3.6058149,3.5025829 0 0 1 3.55448,-0.0614 4.9657393,4.8235736 0 0 1 1.64798,2.81323 q 1.14116,3.75897 2.28229,7.51794 a 10.941789,10.628533 0 0 0 3.36617,-8.07721 z"
     fill="#2f2e41"
     id="path47"
     style="stroke-width:0.908326" />
  <rect
     x="150.07512"
     y="260.9324"
     width="4.7888169"
     height="136.34554"
     fill="#3f3d56"
     id="rect47"
     style="stroke-width:0.908326" />
  <rect
     x="293.44449"
     y="197.25406"
     width="4.7888169"
     height="200.0239"
     fill="#3f3d56"
     id="rect48"
     style="stroke-width:0.908326" />
  <rect
     x="437.10907"
     y="239.11951"
     width="4.7888169"
     height="158.15845"
     fill="#3f3d56"
     id="rect49"
     style="stroke-width:0.908326" />
  <rect
     x="580.77368"
     y="162.36617"
     width="4.7888169"
     height="234.91179"
     fill="#3f3d56"
     id="rect50"
     style="stroke-width:0.908326" />
  <rect
     x="724.43823"
     y="215.86092"
     width="4.7888169"
     height="181.41702"
     fill="#3f3d56"
     id="rect51"
     style="stroke-width:0.908326" />
  <ellipse
     cx="296.13422"
     cy="200.46025"
     fill="#a05cf4"
     id="circle51"
     rx="14.649765"
     ry="14.230352"
     style="stroke-width:0.908326" />
  <ellipse
     cx="583.46338"
     cy="163.24652"
     fill="#a05cf4"
     id="circle52"
     rx="14.649765"
     ry="14.230352"
     style="stroke-width:0.908326" />
  <ellipse
     cx="439.79877"
     cy="239.99988"
     fill="#a05cf4"
     id="circle53"
     rx="14.649765"
     ry="14.230352"
     style="stroke-width:0.908326" />
  <ellipse
     cx="152.46962"
     cy="260.93262"
     fill="#a05cf4"
     id="circle54"
     rx="14.649765"
     ry="14.230352"
     style="stroke-width:0.908326" />
  <ellipse
     cx="727.12793"
     cy="214.41542"
     fill="#a05cf4"
     id="circle55"
     rx="14.649765"
     ry="14.230352"
     style="stroke-width:0.908326" />
  <path
     d="M 829.89194,395.8723 H 52.147235 l -4.883246,2.37172 a 2.4417242,2.3718193 0 0 0 2.441623,2.37172 H 829.89194 a 2.4416228,2.3717208 0 0 0 0,-4.74344 z"
     fill="#3f3d56"
     id="path55"
     style="stroke-width:0.908326" />
  <ellipse
     cx="49.288197"
     cy="397.12082"
     fill="#3f3d56"
     id="circle56"
     rx="14.649765"
     ry="14.230352"
     style="stroke-width:0.908326" />
  <ellipse
     cx="152.50896"
     cy="438.30133"
     fill="#e6e6e6"
     id="circle57"
     rx="14.649765"
     ry="14.230352"
     style="stroke-width:0.908326" />
  <ellipse
     cx="296.28076"
     cy="438.30133"
     fill="#e6e6e6"
     id="circle58"
     rx="14.649765"
     ry="14.230352"
     style="stroke-width:0.908326" />
  <ellipse
     cx="440.05255"
     cy="438.30133"
     fill="#e6e6e6"
     id="circle59"
     rx="14.649765"
     ry="14.230352"
     style="stroke-width:0.908326" />
  <ellipse
     cx="582.90271"
     cy="438.30133"
     fill="#e6e6e6"
     id="circle60"
     rx="14.649765"
     ry="14.230352"
     style="stroke-width:0.908326" />
  <ellipse
     cx="726.6745"
     cy="438.30133"
     fill="#e6e6e6"
     id="circle61"
     rx="14.649765"
     ry="14.230352"
     style="stroke-width:0.908326" />
  <ellipse
     cx="834.50336"
     cy="397.12082"
     fill="#3f3d56"
     id="circle62"
     rx="14.649765"
     ry="14.230352"
     style="stroke-width:0.908326" />
</svg>
