<?xml version="1.0" encoding="UTF-8" standalone="no"?>
<svg
   data-name="Layer 1"
   width="872.69856"
   height="590.1815"
   viewBox="0 0 872.69856 590.1815"
   version="1.1"
   id="svg65"
   sodipodi:docname="realworld.svg"
   inkscape:version="1.3.2 (091e20e, 2023-11-25, custom)"
   xmlns:inkscape="http://www.inkscape.org/namespaces/inkscape"
   xmlns:sodipodi="http://sodipodi.sourceforge.net/DTD/sodipodi-0.dtd"
   xmlns="http://www.w3.org/2000/svg"
   xmlns:svg="http://www.w3.org/2000/svg">
  <defs
     id="defs65" />
  <sodipodi:namedview
     id="namedview65"
     pagecolor="#ffffff"
     bordercolor="#000000"
     borderopacity="0.25"
     inkscape:showpageshadow="2"
     inkscape:pageopacity="0.0"
     inkscape:pagecheckerboard="0"
     inkscape:deskcolor="#d1d1d1"
     inkscape:zoom="0.68877114"
     inkscape:cx="476.93636"
     inkscape:cy="296.90559"
     inkscape:window-width="1920"
     inkscape:window-height="1009"
     inkscape:window-x="1912"
     inkscape:window-y="-8"
     inkscape:window-maximized="1"
     inkscape:current-layer="svg65" />
  <path
     d="m 126.25213,423.90991 c -3.40302,0 -6.81303,0.14711 -10.14317,0.44386 l -0.48465,0.0429 c -22.088875,2.04701 -38.245856,13.92224 -37.581365,27.62422 l 0.128459,2.47744 c 0.08471,1.56615 0.17498,3.25 0.249273,5.11796 0.04024,0.92136 1.239431,1.62836 2.731601,1.62836 H 624.48492 c 38.30764,-0.24379 76.47642,-0.55063 113.4398,-0.91212 a 193.05018,202.3711 0 0 0 20.75432,-1.12733 c 10.27227,-1.27445 17.40196,-3.80061 21.79863,-7.72318 h 10e-4 c 5.46737,-4.86408 5.63957,-10.98916 5.30905,-17.90951 -0.67352,-13.97352 -1.34149,-28.65319 -2.00807,-43.28831 -0.5888,-12.89831 -1.17486,-25.76215 -1.76089,-38.07788 -0.36246,-7.30873 -1.16791,-13.75999 -7.37685,-18.69048 -6.7297,-5.33234 -19.00318,-8.03508 -36.4801,-8.03508 -0.21109,0 -0.42078,0 -0.63464,8.6e-4 -54.77085,0.20428 -109.04036,19.94644 -135.04124,49.12588 -2.99406,3.36014 -5.78399,6.95731 -8.48226,10.43683 -3.987,5.13981 -8.10869,10.45365 -13.02752,15.20593 a 61.228103,64.184342 0 0 1 -8.60585,7.03215 c -0.21105,0.153 -0.45272,0.31693 -0.70825,0.47245 -0.58468,0.39932 -1.19565,0.78435 -1.79144,1.12733 a 62.219666,65.223781 0 0 1 -10.975,5.23062 l -0.38467,0.13534 c -0.28955,0.10847 -0.6034,0.21693 -0.91727,0.31609 -2.20111,0.74063 -4.48762,1.38121 -6.77831,1.89906 -9.91124,2.28997 -21.18134,2.83893 -33.49576,1.63005 a 161.86559,169.68085 0 0 1 -33.30481,-7.11454 c -11.40342,-3.77794 -22.07707,-8.48818 -32.39937,-13.04291 -4.53415,-2.00161 -9.22383,-4.07049 -13.90727,-6.03092 -0.88044,-0.36905 -1.7463,-0.72969 -2.62535,-1.09034 -5.72011,-2.33704 -10.90624,-4.26718 -15.85425,-5.90062 a 156.48018,164.03542 0 0 0 -37.78135,-7.33563 c -13.62192,-0.78182 -25.62592,0.6927 -35.67048,4.37229 a 61.258741,64.21646 0 0 0 -8.06842,3.64428 c -11.89711,6.47647 -19.2316,16.03483 -26.32376,25.27877 -8.82249,11.49776 -17.94565,23.38812 -35.96003,29.55186 -20.78695,7.11874 -51.12894,4.1613 -72.59567,-0.98189 -6.74914,-1.61744 -13.48996,-3.4778 -20.00928,-5.27769 q -3.9495,-1.09076 -7.90455,-2.16639 c -5.18129,-1.40223 -9.42172,-2.47664 -13.34484,-3.38368 l -1.24082,-0.28919 c -0.69019,-0.1572 -1.38107,-0.3144 -2.08446,-0.46404 -4.65982,-1.02561 -8.99886,-1.83265 -13.27193,-2.46735 l -1.01098,-0.15469 c -2.02683,-0.27993 -3.92172,-0.5128 -5.78119,-0.70867 l -0.74226,-0.0773 c -3.6419,-0.36316 -7.41087,-0.54473 -11.18678,-0.54473 z"
     fill="#f2f2f2"
     id="path1"
     style="stroke-width:0.840782" />
  <path
     d="m 688.08967,439.202 c 15.28837,-14.44194 38.02847,-21.70357 57.10326,-13.60558 a 94.819632,99.397751 0 0 0 -42.60996,51.59431 c -3.03668,8.46934 -5.57296,18.22074 -13.04205,22.755 -4.64739,2.82142 -10.42935,2.95931 -15.64014,1.59735 -5.21102,-1.36216 -9.98754,-4.09256 -14.6986,-6.79566 l -1.34034,-0.0318 c 6.0175,-20.63073 14.93949,-41.07172 30.22783,-55.51364 z"
     fill="#e6e6e6"
     id="path2"
     style="stroke-width:0.840782" />
  <path
     d="m 745.08627,426.03506 a 81.045239,84.958297 0 0 0 -45.08854,22.32203 34.901017,36.586122 0 0 0 -6.85311,8.93265 20.017219,20.983698 0 0 0 -2.31372,10.774 c 0.0826,3.49357 0.55295,7.0571 -0.17604,10.51086 a 12.25657,12.848347 0 0 1 -6.09698,8.34038 c -3.73301,2.24937 -8.0144,2.95847 -12.22425,3.4994 -4.67421,0.6006 -9.53833,1.1468 -13.58444,3.89512 -0.49025,0.333 -0.95448,-0.48388 -0.46497,-0.81638 7.03952,-4.78163 15.94727,-3.04178 23.51664,-6.23304 3.53201,-1.48911 6.65732,-4.10304 7.76354,-8.05505 0.96731,-3.45586 0.48524,-7.13102 0.37247,-10.66759 a 21.359997,22.391309 0 0 1 1.88792,-10.62301 32.265019,33.822851 0 0 1 6.50023,-9.17589 78.627997,82.424345 0 0 1 19.98228,-14.99565 82.482462,86.464913 0 0 1 26.7706,-8.65879 c 0.57745,-0.078 0.5821,0.87342 0.008,0.95094 z"
     fill="#ffffff"
     id="path3"
     style="stroke-width:0.840782" />
  <path
     d="m 703.77536,444.17461 a 12.159374,12.746458 0 0 1 1.34052,-16.4454 c 0.41575,-0.42932 1.0717,0.22775 0.6554,0.65768 a 11.2593,11.802926 0 0 0 -1.21713,15.30032 c 0.34089,0.49662 -0.43984,0.98122 -0.77879,0.48744 z"
     fill="#ffffff"
     id="path4"
     style="stroke-width:0.840782" />
  <path
     d="m 690.56649,466.29813 a 23.436157,24.567711 0 0 0 16.7472,-3.5152 c 0.49134,-0.33117 0.95574,0.48562 0.46498,0.81639 a 24.377217,25.554208 0 0 1 -17.43408,3.62076 c -0.57553,-0.10869 -0.3505,-1.03004 0.2219,-0.92196 z"
     fill="#ffffff"
     id="path5"
     style="stroke-width:0.840782" />
  <path
     d="m 726.7682,430.53586 a 6.8827872,7.2151046 0 0 0 5.14772,4.21332 c 0.57655,0.10099 0.3509,1.02227 -0.2219,0.92196 a 7.712732,8.0851212 0 0 1 -5.70461,-4.64782 0.46876042,0.4913933 0 0 1 0.15691,-0.65191 0.45581024,0.47781785 0 0 1 0.62188,0.16448 z"
     fill="#ffffff"
     id="path6"
     style="stroke-width:0.840782" />
  <path
     d="m 766.19742,495.2424 c -0.36172,-0.0523 -0.72347,-0.10466 -1.09047,-0.15117 a 90.641971,95.018383 0 0 0 -14.6846,-0.78197 c -0.37956,0.006 -0.76415,0.0177 -1.14276,0.0349 a 95.557555,100.1713 0 0 0 -34.28485,8.27279 92.798534,97.279069 0 0 0 -12.45164,6.9345 c -5.49191,3.64512 -11.16984,8.05543 -17.30906,9.54206 a 15.919476,16.688106 0 0 1 -1.9398,0.36229 l -25.36547,-23.0236 c -0.0326,-0.0826 -0.0705,-0.15952 -0.10334,-0.24243 l -1.05286,-0.87072 c 0.19602,-0.15112 0.40245,-0.30346 0.59847,-0.45459 0.11333,-0.0882 0.2324,-0.17119 0.34572,-0.25935 0.0774,-0.0572 0.15505,-0.11409 0.22173,-0.17029 0.0257,-0.0191 0.0516,-0.038 0.0724,-0.0511 0.0667,-0.0562 0.13435,-0.10099 0.19603,-0.15112 q 1.72733,-1.28224 3.47787,-2.54347 c 0.005,-0.006 0.005,-0.006 0.0157,-0.007 a 136.44633,143.03428 0 0 1 28.41403,-16.0111 c 0.30126,-0.11931 0.60725,-0.24494 0.9201,-0.35372 a 88.54984,92.825238 0 0 1 13.91031,-4.1032 78.28313,82.062827 0 0 1 7.84467,-1.14865 65.097448,68.240508 0 0 1 20.30259,1.50785 c 13.25675,3.22238 25.38282,10.85334 32.56497,22.75419 0.18363,0.30457 0.36181,0.60425 0.54032,0.9149 z"
     fill="#e6e6e6"
     id="path7"
     style="stroke-width:0.840782" />
  <path
     d="m 765.86163,495.52812 a 81.045247,84.958305 0 0 0 -48.8211,-10.6342 34.900713,36.585803 0 0 0 -10.6022,2.80696 20.017178,20.983655 0 0 0 -8.0353,7.14216 c -1.94057,2.84153 -3.61166,5.98369 -6.17736,8.28128 a 12.256562,12.848338 0 0 1 -9.65829,2.81129 c -4.2725,-0.56007 -8.09822,-2.69603 -11.77021,-4.92112 -4.07705,-2.47053 -8.27448,-5.10436 -13.08355,-5.46362 -0.58268,-0.0435 -0.48418,-0.98877 0.0976,-0.94531 8.36695,0.62507 14.48006,7.63626 22.35661,9.86553 3.67536,1.04022 7.67203,0.92565 10.82505,-1.53165 2.75718,-2.1488 4.48306,-5.38747 6.42422,-8.28239 a 21.35985,22.391154 0 0 1 7.60857,-7.29036 32.265126,33.822963 0 0 1 10.46013,-3.2239 78.628572,82.424948 0 0 1 24.56733,0.6384 82.482577,86.465034 0 0 1 26.34791,9.9824 c 0.50585,0.30215 -0.0369,1.06475 -0.53944,0.76459 z"
     fill="#ffffff"
     id="path8"
     style="stroke-width:0.840782" />
  <path
     d="m 722.45894,483.93863 a 12.159374,12.746458 0 0 1 10.51556,-12.28468 c 0.57853,-0.0804 0.72489,0.85826 0.14558,0.93875 a 11.2593,11.802926 0 0 0 -9.75937,11.44831 c -0.013,0.61168 -0.91474,0.50584 -0.90177,-0.10234 z"
     fill="#ffffff"
     id="path9"
     style="stroke-width:0.840782" />
  <path
     d="m 699.206,493.2664 a 23.436198,24.567754 0 0 0 15.39066,7.76311 c 0.58252,0.0457 0.48419,0.99093 -0.0976,0.9453 a 24.377184,25.554173 0 0 1 -15.99968,-8.11234 c -0.3971,-0.45002 0.31174,-1.04365 0.70668,-0.59607 z"
     fill="#ffffff"
     id="path10"
     style="stroke-width:0.840782" />
  <path
     d="m 748.65069,487.56052 a 6.8827872,7.2151046 0 0 0 1.69029,6.61301 c 0.40239,0.44453 -0.30694,1.0377 -0.70667,0.59608 a 7.7127567,8.085147 0 0 1 -1.88538,-7.31143 0.46875221,0.49138469 0 0 1 0.49969,-0.42148 0.45581024,0.47781785 0 0 1 0.40207,0.52382 z"
     fill="#ffffff"
     id="path11"
     style="stroke-width:0.840782" />
  <path
     d="m 287.87281,453.56518 c 12.51869,-19.90467 34.91279,-34.30295 57.46296,-31.20473 A 104.7871,109.84647 0 0 0 313.4555,489.9686 c -1.00021,9.9438 -1.12493,21.11289 -7.91002,28.14065 -4.22175,4.37294 -10.36918,6.20666 -16.3037,6.26959 -5.93484,0.0628 -11.76809,-1.46444 -17.52409,-2.98159 l -1.44196,0.35689 c 0.96082,-23.82009 5.07838,-48.2843 17.59708,-68.18896 z"
     fill="#e6e6e6"
     id="path12"
     style="stroke-width:0.840782" />
  <path
     d="m 345.33811,422.86071 a 89.564733,93.889133 0 0 0 -42.29962,37.02336 38.569343,40.431563 0 0 0 -4.95902,11.55233 22.121438,23.189514 0 0 0 0.38468,12.19788 c 1.01545,3.71241 2.46425,7.38652 2.60116,11.29304 a 13.544986,14.19897 0 0 1 -4.30748,10.69837 c -3.39562,3.49442 -7.78653,5.50143 -12.14551,7.30767 -4.83983,2.0055 -9.89721,4.00822 -13.49527,8.12762 -0.43596,0.49912 -1.14927,-0.23918 -0.71397,-0.73754 6.26002,-7.16706 16.24885,-7.90402 23.49761,-13.52466 3.38241,-2.62269 6.03133,-6.32981 6.16562,-10.87921 0.11743,-3.97824 -1.37349,-7.76837 -2.43265,-11.51795 a 23.605257,24.744975 0 0 1 -0.80005,-11.91221 35.656776,37.37837 0 0 1 4.51703,-11.70957 86.893728,91.089165 0 0 1 17.39201,-21.86579 91.153253,95.55435 0 0 1 26.33405,-17.06799 c 0.5969,-0.25187 0.85437,0.76438 0.26138,1.0146 z"
     fill="#ffffff"
     id="path13"
     style="stroke-width:0.840782" />
  <path
     d="m 305.96877,454.30914 a 13.437558,14.086355 0 0 1 -2.93066,-17.9798 c 0.33072,-0.58042 1.20667,-0.069 0.8755,0.5122 a 12.44289,13.043663 0 0 0 2.75873,16.71912 c 0.4964,0.43174 -0.21002,1.17771 -0.70357,0.74844 z"
     fill="#ffffff"
     id="path14"
     style="stroke-width:0.840782" />
  <path
     d="m 297.71278,481.82302 a 25.899828,27.150334 0 0 0 16.97877,-8.64364 c 0.43762,-0.49748 1.15106,0.24066 0.71396,0.73755 a 26.939678,28.24039 0 0 1 -17.68538,8.95684 c -0.64439,0.0516 -0.64824,-0.99943 -0.007,-1.05075 z"
     fill="#ffffff"
     id="path15"
     style="stroke-width:0.840782" />
  <path
     d="m 326.94082,433.01659 a 7.6063139,7.9735649 0 0 0 6.62379,3.00503 c 0.64344,-0.0601 0.64661,0.99102 0.007,1.05075 a 8.5234938,8.9350285 0 0 1 -7.33472,-3.30734 0.51802367,0.54303509 0 0 1 -0.005,-0.74299 0.50372673,0.52804786 0 0 1 0.70878,-0.005 z"
     fill="#ffffff"
     id="path16"
     style="stroke-width:0.840782" />
  <path
     d="m 386.28381,490.72341 c -0.40074,0.0495 -0.80148,0.099 -1.2064,0.15634 a 100.17157,105.0081 0 0 0 -15.91316,3.44615 c -0.40442,0.11689 -0.8126,0.24173 -1.21298,0.37055 a 105.60258,110.70132 0 0 0 -34.47321,18.84657 102.55248,107.50395 0 0 0 -11.4771,11.04795 c -4.90639,5.50019 -9.80871,11.87303 -15.98022,15.25339 a 17.593367,18.442817 0 0 1 -1.97852,0.9532 l -33.23931,-17.22704 c -0.0568,-0.0789 -0.11769,-0.15006 -0.17487,-0.22913 l -1.35714,-0.62422 c 0.16955,-0.21881 0.3499,-0.44193 0.51945,-0.66073 0.0978,-0.12736 0.2031,-0.25087 0.30096,-0.37822 0.0676,-0.0837 0.13555,-0.16724 0.19197,-0.24681 0.0224,-0.0279 0.0452,-0.0557 0.0638,-0.0758 0.0564,-0.0796 0.11688,-0.1472 0.16955,-0.21881 q 1.50715,-1.87513 3.04469,-3.73457 c 0.004,-0.008 0.004,-0.008 0.0149,-0.0121 7.8332,-9.42448 16.48578,-18.24622 26.14058,-25.41081 0.29055,-0.21546 0.58448,-0.43903 0.89017,-0.64665 a 97.858794,102.58365 0 0 1 13.78858,-8.44519 86.513927,90.691026 0 0 1 8.08528,-3.51627 71.940235,75.413682 0 0 1 22.11442,-4.30819 c 15.03367,-0.41966 30.02804,4.20554 40.86789,14.83931 0.27717,0.27224 0.54727,0.54078 0.82063,0.82098 z"
     fill="#e6e6e6"
     id="path17"
     style="stroke-width:0.840782" />
  <path
     d="m 386.00051,491.12693 a 89.564774,93.889176 0 0 0 -55.03786,2.86415 38.569696,40.431933 0 0 0 -10.59445,6.09407 22.121381,23.189454 0 0 0 -6.69857,9.98211 c -1.3214,3.60504 -2.27479,7.45301 -4.40915,10.65856 a 13.545011,14.198996 0 0 1 -9.58376,5.82343 c -4.7182,0.64699 -9.37679,-0.52179 -13.89461,-1.83072 -5.01617,-1.45331 -10.20444,-3.04617 -15.44322,-2.02793 -0.63478,0.12337 -0.78026,-0.91631 -0.14646,-1.0395 9.11459,-1.77156 17.51338,3.94437 26.52925,4.03157 4.20696,0.0407 8.45113,-1.24736 11.17124,-4.79507 2.37863,-3.10229 3.36502,-7.06947 4.67288,-10.73178 a 23.605273,24.744992 0 0 1 6.20287,-10.01616 35.656603,37.378189 0 0 1 10.33186,-6.49858 86.893974,91.089423 0 0 1 26.44493,-6.48182 91.153081,95.55417 0 0 1 30.82908,2.99259 c 0.62124,0.17562 0.24316,1.14954 -0.37403,0.97508 z"
     fill="#ffffff"
     id="path18"
     style="stroke-width:0.840782" />
  <path
     d="m 336.50429,491.38922 a 13.437566,14.086364 0 0 1 7.98654,-16.20551 c 0.59742,-0.25471 1.00306,0.7065 0.40485,0.96155 a 12.442907,13.04368 0 0 0 -7.39975,15.09043 c 0.14839,0.65801 -0.84409,0.80778 -0.99162,0.15354 z"
     fill="#ffffff"
     id="path19"
     style="stroke-width:0.840782" />
  <path
     d="m 314.11005,508.14685 a 25.899804,27.150308 0 0 0 18.52097,3.81449 c 0.63515,-0.12101 0.78085,0.91864 0.14646,1.03951 a 26.93976,28.240476 0 0 1 -19.26505,-4.01039 c -0.54413,-0.3655 0.0564,-1.20712 0.59762,-0.84362 z"
     fill="#ffffff"
     id="path20"
     style="stroke-width:0.840782" />
  <path
     d="m 365.47838,487.62458 a 7.6063221,7.9735735 0 0 0 3.56283,6.57989 c 0.54829,0.35811 -0.0529,1.19937 -0.59762,0.84363 a 8.5234856,8.9350199 0 0 1 -3.95683,-7.26996 0.51803188,0.5430437 0 0 1 0.42258,-0.59652 0.50372673,0.52804786 0 0 1 0.56904,0.44299 z"
     fill="#ffffff"
     id="path21"
     style="stroke-width:0.840782" />
  <path
     d="m 376.96822,304.33423 a 8.0149878,8.4019706 0 0 0 -1.0524,-12.83612 l 13.08326,-66.37648 -14.11532,4.66801 -10.52623,64.214 a 8.0584452,8.4475262 0 0 0 12.61069,10.33059 z"
     fill="#ffb6b6"
     id="path22"
     style="stroke-width:0.840782" />
  <path
     d="m 407.20946,126.90713 -8.74373,-6.9189 c 0,0 -7.71335,-0.5726 -9.07944,14.00911 -1.36609,14.58171 -9.91955,70.54596 -9.91955,70.54596 l -13.37967,64.96145 18.52108,4.26157 14.3306,-70.10488 14.34529,-48.36539 z"
     fill="#e6e6e6"
     id="path23"
     style="stroke-width:0.840782" />
  <path
     d="m 400.5482,247.1092 -41.94237,-34.18696 a 3.1275878,3.2785952 0 0 1 -0.54861,-4.59554 l 28.53721,-38.4734 a 3.1275796,3.2785866 0 0 1 4.38386,-0.57504 l 41.94233,34.18696 a 3.1275796,3.2785866 0 0 1 0.54862,4.59552 l -28.53721,38.4734 a 3.1275796,3.2785866 0 0 1 -4.38383,0.57506 z"
     fill="#3f3d56"
     id="path24"
     style="stroke-width:0.840782" />
  <path
     d="m 400.31767,243.57154 -38.38439,-31.28686 a 2.7769475,2.9110251 0 0 1 -0.4871,-4.08033 l 25.87025,-34.87787 a 2.7769557,2.9110338 0 0 1 3.8924,-0.51062 l 38.38439,31.28687 a 2.7769557,2.9110338 0 0 1 0.4871,4.08033 l -25.87026,34.87786 a 2.7769557,2.9110338 0 0 1 -3.89239,0.51062 z"
     fill="#ffffff"
     id="path25"
     style="stroke-width:0.840782" />
  <path
     d="m 366.96544,211.39747 a 0.69416912,0.72768527 0 0 1 -0.12171,-1.02001 l 13.05078,-17.59486 a 0.69339977,0.72687877 0 1 1 1.0948,0.89235 l -13.0508,17.59487 a 0.6942266,0.72774553 0 0 1 -0.97307,0.12765 z"
     fill="#e4e4e4"
     id="path26"
     style="stroke-width:0.840782" />
  <path
     d="m 369.12848,213.16056 a 0.69423482,0.72775414 0 0 1 -0.12177,-1.0201 L 382.0575,194.5456 a 0.69343155,0.72691208 0 1 1 1.09485,0.89239 l -13.0508,17.59491 a 0.69423482,0.72775414 0 0 1 -0.97307,0.12766 z"
     fill="#e4e4e4"
     id="path27"
     style="stroke-width:0.840782" />
  <path
     d="m 378.68511,204.95572 a 0.69423482,0.72775414 0 0 1 -0.12177,-1.0201 l 5.65718,-7.62695 a 0.69343826,0.72691912 0 1 1 1.09485,0.89241 l -5.65718,7.62695 a 0.69423482,0.72775414 0 0 1 -0.97308,0.12769 z"
     fill="#e4e4e4"
     id="path28"
     style="stroke-width:0.840782" />
  <path
     d="m 381.60151,219.92272 a 0.69417733,0.72769388 0 0 1 -0.12171,-1.02001 l 20.60313,-27.77682 a 0.6934027,0.72688184 0 1 1 1.0948,0.89236 l -20.60314,27.77682 a 0.69423482,0.72775414 0 0 1 -0.97308,0.12765 z"
     fill="#e4e4e4"
     id="path29"
     style="stroke-width:0.840782" />
  <path
     d="m 383.76455,221.68581 a 0.69423482,0.72775414 0 0 1 -0.12177,-1.0201 l 20.60314,-27.77682 a 0.69343407,0.72691472 0 1 1 1.09484,0.89241 l -20.60314,27.77682 a 0.69423482,0.72775414 0 0 1 -0.97307,0.12769 z"
     fill="#e4e4e4"
     id="path30"
     style="stroke-width:0.840782" />
  <path
     d="m 388.67456,225.68792 a 0.69417733,0.72769388 0 0 1 -0.12172,-1.02002 l 20.60314,-27.77682 a 0.69340168,0.72688078 0 1 1 1.09479,0.89237 l -20.60314,27.77682 a 0.69423482,0.72775414 0 0 1 -0.97307,0.12765 z"
     fill="#e4e4e4"
     id="path31"
     style="stroke-width:0.840782" />
  <path
     d="m 390.83759,227.451 a 0.69423482,0.72775414 0 0 1 -0.12176,-1.0201 l 20.60314,-27.77682 a 0.69343407,0.72691472 0 1 1 1.09484,0.89241 l -20.60314,27.77682 a 0.69424303,0.72776274 0 0 1 -0.97308,0.12769 z"
     fill="#e4e4e4"
     id="path32"
     style="stroke-width:0.840782" />
  <path
     d="m 395.7476,231.45316 a 0.69417733,0.72769388 0 0 1 -0.12172,-1.02001 l 20.60314,-27.77682 a 0.69339977,0.72687877 0 1 1 1.0948,0.89235 l -20.60314,27.77682 a 0.69423482,0.72775414 0 0 1 -0.97308,0.12766 z"
     fill="#e4e4e4"
     id="path33"
     style="stroke-width:0.840782" />
  <path
     d="m 397.91064,233.21616 a 0.69423482,0.72775414 0 0 1 -0.12177,-1.0201 l 20.60314,-27.77672 a 0.69343826,0.72691912 0 0 1 1.09485,0.89239 l -20.60314,27.77682 a 0.69423482,0.72775414 0 0 1 -0.97308,0.12761 z"
     fill="#e4e4e4"
     id="path34"
     style="stroke-width:0.840782" />
  <ellipse
     cx="363.47601"
     cy="265.17627"
     fill="#ffffff"
     id="circle34"
     rx="0.28469047"
     ry="0.29843599"
     style="stroke-width:0.840782" />
  <path
     d="m 404.96196,59.827985 a 68.551377,71.861201 0 0 1 -4.89114,16.364723 c -12.87078,28.542592 23.78278,19.23918 36.88152,19.23918 14.32157,0 28.02433,7.894532 25.93149,-27.183528 -0.89397,-14.983781 -11.60993,-27.183528 -25.93149,-27.183528 -12.23301,0 -29.43242,5.699854 -31.99038,18.763153 z"
     fill="#2f2e41"
     id="path35"
     style="stroke-width:0.840782" />
  <polygon
     points="438.481,508.085 431.41,450.772 453.34,450.772 453.34,508.085 "
     fill="#ffb6b6"
     id="polygon35"
     transform="matrix(0.82119093,0,0,0.86084,78.023179,41.064832)" />
  <path
     d="m 456.74217,500.6071 h -8.75052 l -1.5619,-8.6604 -4.00033,8.6604 h -23.20848 a 5.217026,5.4689165 0 0 1 -2.9645,-9.96939 l 18.53358,-13.41796 v -8.75537 l 19.4941,1.21972 z"
     fill="#2f2e41"
     id="path36"
     style="stroke-width:0.840782" />
  <polygon
     points="529.693,498.2 489.82,456.429 507.418,443.342 541.617,489.333 "
     fill="#ffb6b6"
     id="polygon36"
     transform="matrix(0.82119093,0,0,0.86084,78.023179,41.064832)" />
  <path
     d="m 540.57759,476.05804 -7.02188,5.47367 -6.18315,-5.97255 1.71971,9.45189 -18.6237,14.51749 a 5.217026,5.4689165 0 0 1 -8.05375,-6.14554 l 7.2344,-22.36053 -4.9838,-7.02578 16.33739,-11.2153 z"
     fill="#2f2e41"
     id="path37"
     style="stroke-width:0.840782" />
  <polygon
     points="475.21,233.327 461.183,191.129 404.675,191.129 404.675,244.313 "
     fill="#ffb6b6"
     id="polygon37"
     transform="matrix(0.82119093,0,0,0.86084,78.023179,41.064832)" />
  <path
     d="m 464.50801,223.89179 c 0,0 23.15149,20.96754 12.46967,80.74076 l -13.0408,58.56778 35.52981,64.66277 -18.0662,10.33008 -43.7841,-63.79264 -20.03546,-49.26593 -10.5978,-86.34343 z"
     fill="#2f2e41"
     id="path38"
     style="stroke-width:0.840782" />
  <polygon
     points="425.246,372.562 430.21,450.327 454.854,458.812 459.521,379.134 426.942,346.301 "
     fill="#2f2e41"
     id="polygon38"
     transform="matrix(0.82119093,0,0,0.86084,78.023179,41.064832)" />
  <path
     d="m 422.4022,102.95557 22.38977,0.91566 8.92329,15.52745 20.35884,4.16629 -12.15364,64.45364 2.23502,36.68629 -20.27192,-0.1296 A 59.295561,62.158493 0 0 0 404.20854,240.2 v 0 l 0.60644,-47.62162 -8.71959,-35.54899 1.95973,-37.27538 16.37777,-2.14607 z"
     fill="#e6e6e6"
     id="path39"
     style="stroke-width:0.840782" />
  <ellipse
     cx="434.80655"
     cy="73.335472"
     fill="#ffb6b6"
     id="circle39"
     rx="21.07226"
     ry="22.08968"
     style="stroke-width:0.840782" />
  <path
     d="m 420.49633,50.818089 a 24.13761,25.303032 0 0 1 36.6977,22.08287 c -10.7374,2.826009 -22.01777,4.988662 -33.4684,0.675949 l -2.70418,-6.937751 -1.59424,6.94289 c -3.48711,1.494134 -6.98327,2.758329 -10.4794,-0.01443 a 24.64587,25.835831 0 0 1 11.54852,-22.74953 z"
     fill="#2f2e41"
     id="path40"
     style="stroke-width:0.840782" />
  <path
     d="m 470.17673,269.24029 2.84059,27.02394 a 3.1465573,3.2984806 0 0 0 3.00753,2.32875 h 13.09403 a 3.1466641,3.2985925 0 0 0 3.00785,-2.32875 l 2.35278,-20.71253 a 4.7787728,5.0095034 0 1 0 1.2322,-9.42345 3.1185875,3.2691604 0 0 0 -2.38743,-1.15697 h -20.13969 a 3.1471321,3.2990832 0 0 0 -3.00786,4.26901 z m 24.71396,4.91074 1.44112,-4.91074 a 3.1142352,3.264598 0 0 0 0.0476,-1.74604 c 0.0616,-0.003 0.11962,-0.0192 0.18193,-0.0192 a 3.4120483,3.5767902 0 1 1 0,7.15358 3.368903,3.5315617 0 0 1 -1.67067,-0.47755 z"
     fill="#a05cf4"
     id="path41"
     style="stroke-width:0.840782" />
  <path
     d="m 489.92158,298.61159 a 8.0149631,8.4019447 0 0 1 1.1146,-12.83036 l -12.76136,-66.44526 14.09251,4.74314 10.21485,64.26923 a 8.0584452,8.4475262 0 0 1 -12.6606,10.26325 z"
     fill="#ffb6b6"
     id="path42"
     style="stroke-width:0.840782" />
  <path
     d="m 465.3304,130.48392 8.74373,-6.91891 c 0,0 7.71336,-0.5726 9.07944,14.00911 1.36609,14.58171 9.91956,70.54597 9.91956,70.54597 l 13.37967,64.96145 -18.52109,4.26157 -14.3306,-70.10488 -14.34528,-48.3654 z"
     fill="#e6e6e6"
     id="path43"
     style="stroke-width:0.840782" />
  <ellipse
     cx="389.86624"
     cy="185.78078"
     fill="#a05cf4"
     id="circle43"
     rx="4.949564"
     ry="5.1885409"
     style="stroke-width:0.840782" />
  <polygon
     points="200.106,578.005 206.082,529.556 187.543,529.557 187.545,578.006 "
     fill="#ffb6b6"
     id="polygon43"
     transform="matrix(0.82119093,0,0,0.86084,78.023179,41.064832)" />
  <path
     d="m 229.40238,535.10488 2.90335,-1.2e-4 11.33515,-4.83231 6.07531,4.83156 h 8.2e-4 a 12.946239,13.571315 0 0 1 12.94554,13.57041 v 0.44099 l -33.25956,10e-4 z"
     fill="#2f2e41"
     id="path44"
     style="stroke-width:0.840782" />
  <polygon
     points="248.474,572.857 264.975,526.914 246.891,522.831 236.221,570.09 "
     fill="#ffb6b6"
     id="polygon44"
     transform="matrix(0.82119093,0,0,0.86084,78.023179,41.064832)" />
  <path
     d="m 270.18118,527.77009 2.83207,0.6703 12.07216,-2.09615 4.9108,6.11577 8.2e-4,1.9e-4 a 12.946231,13.571306 0 0 1 9.77599,16.22635 l -0.0927,0.43016 -32.44287,-7.67882 z"
     fill="#2f2e41"
     id="path45"
     style="stroke-width:0.840782" />
  <path
     d="m 213.14991,324.10055 9.32755,109.55035 c 0,0 -3.49492,65.76896 7.78255,88.91259 h 16.35543 l 8.09787,-94.91887 1.01688,-63.71013 35.06434,53.74986 -22.33356,103.32728 20.12967,1.88642 36.24138,-112.13412 -39.81578,-105.2676 z"
     fill="#2f2e41"
     id="path46"
     style="stroke-width:0.840782" />
  <ellipse
     cx="222.91881"
     cy="124.42737"
     fill="#ffb8b8"
     id="circle46"
     rx="24.05513"
     ry="25.21657"
     style="stroke-width:0.840782" />
  <path
     d="m 265.20584,173.67407 -19.73451,-8.87633 -9.60693,-10.68176 -23.99943,4.05744 -6.36758,11.44513 -20.61284,20.09227 24.15031,114.46876 -0.73104,25.00105 c 0,0 15.45685,7.29449 82.49068,-9.5004 0.80384,-0.2014 -0.87888,-1.08338 -0.87888,-1.08338 z"
     fill="#3f3d56"
     id="path47"
     style="stroke-width:0.840782" />
  <path
     d="m 197.90515,138.7358 q -0.25142,-0.35965 -0.49791,-0.72539 c -0.0661,0.14642 -0.11873,0.29769 -0.19432,0.44067 z"
     fill="#2f2e41"
     id="path48"
     style="stroke-width:0.840782" />
  <path
     d="m 246.84733,105.98248 a 15.34888,16.08996 0 0 0 -8.03111,-8.133216 14.653758,15.361277 0 0 0 -10.98655,0.01007 c -3.18016,-2.106226 -6.71362,-3.775988 -10.43483,-3.982805 -3.72121,-0.206817 -7.65562,1.240393 -9.94882,4.426052 a 16.239478,17.023559 0 0 1 -1.73817,2.367159 c -1.84335,1.78948 -4.64473,1.53135 -7.09486,1.16545 q 1.64841,1.481 3.29765,2.962 -1.99535,0.54643 -3.99111,1.0929 2.32873,1.4805 4.65705,2.96102 c -4.5067,2.83561 -6.55504,9.02469 -6.01399,14.64571 0.51188,5.32177 2.96286,10.18817 5.89279,14.51357 1.16879,-2.58555 0.91695,-5.67932 0.89765,-8.59136 -0.0201,-3.07687 0.49914,-6.57079 2.85109,-8.29038 1.58658,-1.15996 3.62672,-1.21175 5.5399,-1.20078 a 254.51805,266.80679 0 0 1 28.87241,1.88955 8.1276716,8.520095 0 0 1 3.69656,1.1239 c 2.11901,1.51542 2.53188,4.64279 2.74468,7.38644 a 51.055469,53.520549 0 0 0 1.62973,-13.87431 24.395119,25.572974 0 0 0 -1.84007,-10.47097 z"
     fill="#2f2e41"
     id="path49"
     style="stroke-width:0.840782" />
  <ellipse
     cx="254.33653"
     cy="361.20682"
     fill="#ffffff"
     id="circle49"
     rx="37.861149"
     ry="39.689175"
     style="stroke-width:0.840782" />
  <path
     d="m 254.33654,320.63565 a 38.91026,40.788941 0 0 0 -5.81392,0.45865 c -0.98433,0.14993 -1.94319,0.34393 -2.89423,0.58208 a 38.683209,40.550927 0 0 0 -16.39787,70.38213 c 0.64786,0.57332 1.30394,1.12896 1.98549,1.65813 a 38.694147,40.562393 0 1 0 23.12053,-73.08101 z m 0,79.37835 a 36.80641,38.583512 0 0 1 -21.87533,-7.52332 c -0.6898,-0.52917 -1.35447,-1.07599 -2.00234,-1.65809 a 36.997936,38.784285 0 0 1 16.50758,-67.65685 c 0.94202,-0.20284 1.88443,-0.36165 2.8437,-0.48509 a 36.626421,38.394833 0 0 1 4.5264,-0.29107 37.019791,38.807195 0 0 1 0,77.61439 z"
     fill="#3f3d56"
     id="path50"
     style="stroke-width:0.840782" />
  <rect
     x="-275.37048"
     y="-353.26898"
     width="42.067944"
     height="5.2918935"
     rx="2.4635727"
     transform="scale(-1)"
     fill="#a05cf4"
     id="rect50"
     style="stroke-width:0.840782" />
  <rect
     x="-275.37048"
     y="-363.85272"
     width="42.067944"
     height="5.2918935"
     rx="2.4635727"
     transform="scale(-1)"
     fill="#a05cf4"
     id="rect51"
     style="stroke-width:0.840782" />
  <rect
     x="-275.37048"
     y="-374.43655"
     width="42.067944"
     height="5.2918935"
     rx="2.4635727"
     transform="scale(-1)"
     fill="#a05cf4"
     id="rect52"
     style="stroke-width:0.840782" />
  <polygon
     points="717.349,576.441 711.083,525.639 730.522,525.64 730.52,576.442 "
     fill="#9e616a"
     id="polygon52"
     transform="matrix(0.82119093,0,0,0.86084,78.023179,41.064832)" />
  <polygon
     points="655.039,576.441 648.773,525.639 668.212,525.64 668.209,576.442 "
     fill="#9e616a"
     id="polygon53"
     transform="matrix(0.82119093,0,0,0.86084,78.023179,41.064832)" />
  <path
     d="m 627.13152,549.11667 -33.25956,-10e-4 v -0.44096 a 12.946239,13.571315 0 0 1 12.94554,-13.57038 h 8.2e-4 l 6.0753,-4.83157 11.33515,4.83231 2.90335,1.2e-4 z"
     fill="#2f2e41"
     id="path53"
     style="stroke-width:0.840782" />
  <path
     d="m 679.68774,549.11667 -33.25956,-10e-4 v -0.44096 a 12.946239,13.571315 0 0 1 12.94554,-13.57038 h 8.2e-4 l 6.0753,-4.83157 11.33515,4.83231 2.90335,1.2e-4 z"
     fill="#2f2e41"
     id="path54"
     style="stroke-width:0.840782" />
  <path
     d="m 616.14123,278.46621 -16.43752,104.92269 4.47343,15.63531 -5.8701,11.07347 8.62033,97.24926 -3.4992,8.07572 9.7767,6.32067 h 19.89417 l 1.05589,-88.04046 4.91421,-12.92624 v -7.12396 l 10.00392,-53.68506 1.84194,75.18248 2.90995,12.94648 -2.44439,9.21798 3.19384,6.45796 8.48388,59.88919 h 22.30793 l -1.72533,-13.9331 v 0 a 9.8231845,10.297471 0 0 0 5.15754,-11.39535 l -1.27903,-6.10689 2.91098,-18.05731 5.30093,-100.73861 -1.49456,-81.28339 -26.09614,-20.91887 z"
     fill="#2f2e41"
     id="path55"
     style="stroke-width:0.840782" />
  <ellipse
     id="ab6171fa-7d69-4734-b81c-8dff60f9761b"
     data-name="Ellipse 219"
     cx="653.82495"
     cy="122.00626"
     fill="#9e616a"
     rx="20.725866"
     ry="21.726561"
     style="stroke-width:0.840782" />
  <path
     d="m 608.54137,320.1026 a 8.8713996,9.299732 0 0 0 -1.42054,-14.18205 l 8.05955,-31.94988 -15.52767,5.47506 -5.27292,29.50076 a 8.9194639,9.350117 0 0 0 14.16155,11.15611 z"
     fill="#9e616a"
     id="path56"
     style="stroke-width:0.840782" />
  <path
     id="bc44dde2-a388-4b93-9ca4-c442728432a9-129"
     data-name="Path 1101"
     d="m 617.0232,166.70539 -3.33304,-0.72504 -2.84249,1.64986 c 0,0 -7.93996,11.09777 -7.93996,21.27071 0,10.17294 -9.70442,108.20321 -9.70442,108.20321 l 17.64436,8.32332 14.1155,-76.75953 z"
     fill="#e6e6e6"
     style="stroke-width:0.840782" />
  <path
     id="bf427902-b9bf-4946-b5d7-5c1c7e04535e-130"
     data-name="Path 1104"
     d="m 671.97521,106.07674 c 0,0 5.42078,-10.863273 -6.50513,-11.850846 0,0 -10.16694,-9.668017 -20.52988,-1.767451 0,0 -5.6525,0 -8.74352,6.705307 0,0 -4.44567,-1.767451 -5.42262,2.96271 0,0 -3.25302,9.87573 0,18.76387 3.25301,8.88814 4.33357,9.87571 4.33357,9.87571 0,0 -5.3454,-18.63447 7.66577,-19.62204 13.01117,-0.98757 27.57104,-9.51129 28.65538,1.35197 1.08434,10.86327 2.71606,13.53989 2.71606,13.53989 0,0 10.29882,-15.51503 -2.16963,-19.95912 z"
     fill="#2f2e41"
     style="stroke-width:0.840782" />
  <path
     d="m 747.68568,410.09768 a 6.3424271,6.6486547 0 0 1 -4.23988,-1.69563 L 680.72254,349.8725 a 6.3964204,6.7052549 0 0 1 -0.52408,-9.45579 l 40.18103,-47.31846 a 6.3961166,6.7049364 0 0 1 9.02067,-0.54979 l 62.72367,58.5304 a 6.3886191,6.6970769 0 0 1 0.52407,9.45495 l -40.18142,47.31845 a 6.3447593,6.6510995 0 0 1 -4.40187,2.23365 c -0.12672,0.008 -0.25303,0.0118 -0.37893,0.0118 z"
     fill="#ffffff"
     id="path57"
     style="stroke-width:0.840782" />
  <path
     d="m 747.68491,410.5281 a 6.7496557,7.0755452 0 0 1 -4.51213,-1.80407 l -62.72327,-58.52956 a 6.8086419,7.1373794 0 0 1 -0.55776,-10.06442 l 40.18102,-47.31847 a 6.8093152,7.1380853 0 0 1 9.60047,-0.58509 l 62.72367,58.53039 a 6.8007009,7.1290551 0 0 1 0.55776,10.06359 l -40.18146,47.31846 a 6.7573585,7.0836199 0 0 1 -4.68456,2.3774 c -0.13512,0.008 -0.26944,0.0118 -0.40374,0.0118 z m -22.5302,-118.38106 a 5.1438579,5.3922157 0 0 0 -3.85495,1.80953 l -40.18101,47.31846 a 5.1632298,5.4125229 0 0 0 0.42302,7.63323 l 62.72327,58.52955 a 5.1562579,5.4052144 0 0 0 7.28126,-0.44387 l 40.18142,-47.31846 a 5.1571366,5.4061355 0 0 0 -0.42303,-7.63239 L 728.58102,293.5127 a 5.1364918,5.3844939 0 0 0 -3.42636,-1.36566 z"
     fill="#3f3d56"
     id="path58"
     style="stroke-width:0.840782" />
  <path
     d="m 770.43043,365.2844 a 2.753059,2.8859833 0 0 1 -1.83686,-0.73223 L 719.35825,318.6082 a 2.7646789,2.8981642 0 1 1 3.67647,-4.32942 l 49.23577,45.94398 a 2.7637592,2.8972001 0 0 1 -1.84006,5.06164 z"
     fill="#a05cf4"
     id="path59"
     style="stroke-width:0.840782" />
  <path
     d="m 761.03925,376.34333 a 2.7530919,2.8860177 0 0 1 -1.83685,-0.73222 l -49.23533,-45.94397 a 2.7643801,2.897851 0 1 1 3.67652,-4.32858 l 49.23576,45.94397 a 2.7631679,2.8965803 0 0 1 -1.84005,5.0608 z"
     fill="#a05cf4"
     id="path60"
     style="stroke-width:0.840782" />
  <path
     d="m 751.64809,387.40395 a 2.7509896,2.883814 0 0 1 -1.83726,-0.73306 l -49.23577,-45.94314 a 2.7648103,2.8983019 0 1 1 3.67692,-4.32941 l 49.23532,45.94397 a 2.7635785,2.8970107 0 0 1 -1.83925,5.06164 z"
     fill="#a05cf4"
     id="path61"
     style="stroke-width:0.840782" />
  <path
     d="m 695.34315,321.98834 a 8.8714078,9.2997406 0 0 1 4.85341,-13.3215 l 0.0533,-33.04803 13.6612,9.47862 -2.14504,29.92978 a 8.9194721,9.3501256 0 0 1 -16.42289,6.96113 z"
     fill="#9e616a"
     id="path62"
     style="stroke-width:0.840782" />
  <path
     id="f348f81f-b961-4ae4-bc6b-758f6acfb12a-131"
     data-name="Path 1100"
     d="m 696.6059,175.76161 6.1032,-6.16669 4.48341,3.39221 c 0,0 4.41109,5.54888 7.93996,22.19553 3.52887,16.64665 0,108.2032 0,108.2032 l -19.4088,-2.77445 2.64665,-48.09031 -7.93995,-40.6918 z"
     fill="#e6e6e6"
     style="stroke-width:0.840782" />
  <path
     d="m 705.61794,171.09914 -20.5621,-10.29619 -13.96025,-13.57373 -25.45692,-0.19971 -8.21191,11.19092 -21.67954,7.71986 3.61334,78.36414 -2.46357,6.02588 c 0,0 1.71633,1.62537 2.50053,2.53436 0.78419,0.909 -1.0836,8.51932 -1.0836,8.51932 l -1.05309,8.27955 2.9209,2.18779 -3.79719,4.7019 -0.94273,7.41163 c 0,0 66.28249,-17.26998 78.80659,11.3393 0.6617,1.51155 -0.96775,-13.26118 -0.96775,-13.26118 l -1.62945,-10.81473 1.61651,-9.70695 2.46358,-2.58252 -4.13183,-4.33132 2.64894,-20.55169 z"
     fill="#3f3d56"
     id="path63"
     style="stroke-width:0.840782" />
  <path
     d="m 239.31308,344.82609 a 9.5254042,9.9853136 0 0 0 -6.98307,-13.44805 l -4.56766,-35.15988 -13.24369,12.13574 6.36792,31.52789 a 9.5770243,10.039426 0 0 0 18.4265,4.94428 z"
     fill="#ffb8b8"
     id="path64"
     style="stroke-width:0.840782" />
  <path
     id="e1bf2fad-858c-4bea-9733-320cc40b59f5-132"
     data-name="Path 1101"
     d="m 187.42601,189.06781 -3.58973,0.72082 -2.16983,2.86367 c 0,0 -3.51026,14.43319 0.48849,24.51975 3.99874,10.08657 32.91016,111.47615 32.91016,111.47615 l 20.76623,0.63115 -16.17676,-82.20488 z"
     fill="#3f3d56"
     style="stroke-width:0.840782" />
  <path
     d="m 269.29221,339.66841 a 9.5253796,9.9852877 0 0 1 1.69629,-15.20766 l -8.26749,-34.40979 16.60515,6.08422 5.3052,31.74334 a 9.5770243,10.039426 0 0 1 -15.33915,11.78989 z"
     fill="#ffb8b8"
     id="path65"
     style="stroke-width:0.840782" />
  <path
     id="ff35f29e-9865-4218-824f-c5cf71e1b056-133"
     data-name="Path 1101"
     d="m 262.03715,174.86153 3.58725,-0.73423 3.03192,1.80907 c 0,0 8.39078,12.02038 8.26799,22.94254 -0.12278,10.92216 9.11314,116.30073 9.11314,116.30073 l -19.04424,8.70229 -14.2286,-82.59984 z"
     fill="#3f3d56"
     style="stroke-width:0.840782" />
</svg>
